<svg width="300" height="300" viewBox="0 0 300 300" fill="none" xmlns="http://www.w3.org/2000/svg">
<rect width="300" height="300" rx="150" fill="#0F0F0F"/>
<path d="M150.005 216.111C186.522 216.111 216.125 186.509 216.125 149.992C216.125 113.475 186.522 83.8722 150.005 83.8722C113.488 83.8722 83.8857 113.475 83.8857 149.992C83.8857 186.509 113.488 216.111 150.005 216.111Z" fill="#4A7984"/>
<path d="M201.37 108.361C201.37 108.361 197.198 87.3858 167.164 75.3421C137.131 63.2983 110.778 85.5548 110.778 85.5548C110.778 85.5548 123.939 78.1918 142.237 87.979C160.535 97.7662 201.37 108.361 201.37 108.361Z" fill="#4A7984"/>
<path d="M108.374 98.6266C108.374 98.6266 87.3994 102.799 75.3556 132.833C63.3119 162.866 85.5683 189.219 85.5683 189.219C85.5683 189.219 78.2054 176.058 87.9926 157.76C97.7797 139.462 108.374 98.6266 108.374 98.6266Z" fill="#4A7984"/>
<path d="M98.64 191.623C98.64 191.623 102.813 212.597 132.846 224.641C162.88 236.685 189.233 214.428 189.233 214.428C189.233 214.428 176.071 221.791 157.773 212.004C139.476 202.217 98.64 191.623 98.64 191.623Z" fill="#4A7984"/>
<path d="M191.636 201.357C191.636 201.357 212.611 197.184 224.655 167.151C236.698 137.117 214.442 110.764 214.442 110.764C214.442 110.764 221.805 123.926 212.018 142.224C202.23 160.522 191.636 201.357 191.636 201.357Z" fill="#4A7984"/>
<path d="M150.005 207.97C182.026 207.97 207.984 182.012 207.984 149.992C207.984 117.971 182.026 92.0134 150.005 92.0134C117.985 92.0134 92.0269 117.971 92.0269 149.992C92.0269 182.012 117.985 207.97 150.005 207.97Z" fill="#FCBC1D"/>
<path d="M150.005 183.92C168.743 183.92 183.933 168.73 183.933 149.992C183.933 131.254 168.743 116.064 150.005 116.064C131.267 116.064 116.077 131.254 116.077 149.992C116.077 168.73 131.267 183.92 150.005 183.92Z" fill="#FCD275"/>
<path d="M208.137 96.2742C206.961 96.2742 206.009 95.3215 206.009 94.1466V85.0262C206.009 83.8513 206.961 82.8986 208.137 82.8986C209.312 82.8986 210.264 83.8513 210.264 85.0262V94.1466C210.264 95.3215 209.312 96.2742 208.137 96.2742Z" fill="#FCBC1D"/>
<path d="M212.697 91.7139H203.577C202.402 91.7139 201.449 90.7612 201.449 89.5863C201.449 88.4114 202.402 87.4586 203.577 87.4586H212.697C213.873 87.4586 214.825 88.4114 214.825 89.5863C214.825 90.7612 213.873 91.7139 212.697 91.7139Z" fill="#FCBC1D"/>
<path d="M83.4036 225.368C82.2288 225.368 81.276 224.415 81.276 223.24V214.119C81.276 212.944 82.2288 211.991 83.4036 211.991C84.5785 211.991 85.5313 212.944 85.5313 214.119V223.24C85.5313 224.415 84.5785 225.368 83.4036 225.368Z" fill="#FCBC1D"/>
<path d="M87.9639 220.807H78.8431C77.6682 220.807 76.7155 219.854 76.7155 218.679C76.7155 217.505 77.6682 216.552 78.8431 216.552H87.9639C89.1388 216.552 90.0915 217.505 90.0915 218.679C90.0915 219.854 89.1388 220.807 87.9639 220.807Z" fill="#FCBC1D"/>
<path d="M158.226 141.07C157.81 141.07 157.389 140.948 157.021 140.694C146.606 133.514 133.068 132.477 121.687 137.99C120.63 138.502 119.357 138.06 118.845 137.003C118.332 135.945 118.774 134.672 119.832 134.16C132.588 127.981 147.763 129.143 159.435 137.19C160.403 137.857 160.647 139.182 159.979 140.15C159.567 140.748 158.902 141.07 158.226 141.07Z" fill="#333333"/>
<path d="M120.2 220.597C119.803 220.597 119.402 220.486 119.044 220.254C113.915 216.926 109.319 212.83 105.382 208.079C97.0592 198.034 93.1461 185.349 94.3635 172.361C95.5814 159.373 101.784 147.636 111.829 139.314C112.734 138.564 114.075 138.69 114.825 139.594C115.574 140.499 115.448 141.84 114.544 142.59C105.374 150.188 99.712 160.902 98.6005 172.758C97.489 184.615 101.061 196.194 108.659 205.364C112.32 209.783 116.594 213.592 121.36 216.685C122.345 217.325 122.626 218.642 121.987 219.628C121.579 220.256 120.897 220.597 120.2 220.597Z" fill="#333333"/>
<path d="M152.031 230.015C144.328 230.015 136.596 228.537 129.234 225.559C128.144 225.118 127.619 223.878 128.059 222.789C128.5 221.699 129.74 221.173 130.83 221.614C146.484 227.947 163.942 226.986 178.726 218.978C179.76 218.418 181.051 218.802 181.61 219.835C182.17 220.868 181.786 222.159 180.753 222.719C171.803 227.567 161.942 230.015 152.031 230.015Z" fill="#333333"/>
<path d="M184.601 220.028C183.918 220.028 183.247 219.7 182.836 219.091C182.178 218.117 182.435 216.795 183.408 216.137C184.942 215.102 186.445 213.976 187.875 212.79C188.78 212.041 190.122 212.166 190.871 213.071C191.621 213.976 191.495 215.317 190.591 216.067C189.053 217.341 187.438 218.551 185.791 219.664C185.425 219.91 185.011 220.028 184.601 220.028Z" fill="#333333"/>
<path d="M163.003 169.755C155.261 169.755 147.606 167.487 141.075 163.132C140.098 162.48 139.834 161.159 140.486 160.182C141.138 159.204 142.459 158.94 143.436 159.592C151.677 165.088 161.93 166.858 171.568 164.445C172.705 164.16 173.863 164.852 174.148 165.992C174.433 167.132 173.741 168.287 172.601 168.573C169.437 169.365 166.212 169.755 163.003 169.755Z" fill="#333333"/>
<path d="M180.025 165.651C179.253 165.651 178.508 165.23 178.13 164.495C177.594 163.45 178.006 162.167 179.051 161.631C181.322 160.465 183.48 159.039 185.467 157.394C186.372 156.644 187.713 156.77 188.462 157.675C189.212 158.579 189.086 159.921 188.181 160.67C185.957 162.513 183.54 164.11 180.995 165.416C180.684 165.575 180.351 165.651 180.025 165.651Z" fill="#333333"/>
<path d="M193.633 154.213C193.169 154.213 192.702 154.062 192.311 153.751C191.391 153.021 191.238 151.682 191.968 150.762C198.231 142.878 201.653 132.957 201.605 122.827C201.557 112.559 197.915 102.541 191.351 94.6189C186.504 88.7696 180.658 84.0453 173.976 80.5773C172.933 80.036 172.526 78.7517 173.068 77.7088C173.609 76.6654 174.895 76.2594 175.936 76.8003C183.126 80.5322 189.416 85.6138 194.628 91.904C201.818 100.582 205.807 111.557 205.86 122.807C205.912 133.902 202.162 144.77 195.3 153.409C194.88 153.938 194.26 154.213 193.633 154.213Z" fill="#333333"/>
<path d="M110.779 87.6824C110.167 87.6824 109.56 87.4198 109.14 86.9122C108.39 86.0075 108.516 84.6662 109.42 83.9165C117.57 77.1637 127.36 72.6531 137.732 70.8719C147.791 69.1442 158.209 69.9944 167.86 73.331C168.97 73.7148 169.559 74.9267 169.175 76.0369C168.792 77.1476 167.581 77.7365 166.469 77.3527C157.495 74.2497 147.807 73.4595 138.453 75.0655C128.813 76.7212 119.713 80.9144 112.135 87.193C111.738 87.522 111.257 87.6824 110.779 87.6824Z" fill="#333333"/>
<path d="M163.438 156.375C163.107 156.375 162.772 156.298 162.459 156.136C161.416 155.594 161.009 154.31 161.551 153.267C168.09 140.666 166.463 125.461 157.407 114.53C148.411 103.674 135.159 97.8075 121.059 98.4356C119.894 98.4854 118.891 97.5786 118.839 96.4045C118.787 95.2309 119.696 94.2369 120.87 94.1846C136.318 93.4969 150.83 99.9232 160.684 111.816C170.834 124.066 172.657 141.106 165.328 155.228C164.949 155.957 164.206 156.375 163.438 156.375Z" fill="#333333"/>
<path d="M110.297 100.163C109.369 100.163 108.516 99.5517 108.251 98.6151C107.93 97.4845 108.586 96.3083 109.717 95.9875C110.87 95.6602 112.048 95.3726 113.22 95.1326C114.369 94.8964 115.495 95.6381 115.731 96.7896C115.967 97.9406 115.226 99.0653 114.074 99.3011C113.006 99.5202 111.93 99.7828 110.878 100.081C110.684 100.136 110.489 100.163 110.297 100.163Z" fill="#333333"/>
<path d="M74.8611 171.764C73.9585 171.764 73.1211 171.185 72.8334 170.279C69.2339 158.925 69.0607 146.848 72.3326 135.351C75.6836 123.576 82.4559 113.209 91.918 105.369C95.1682 102.676 98.7401 100.417 102.535 98.6551C103.6 98.1598 104.866 98.6232 105.36 99.6891C105.855 100.755 105.392 102.02 104.326 102.515C100.863 104.123 97.6022 106.186 94.6329 108.646C85.8359 115.935 79.5402 125.572 76.4253 136.516C73.3828 147.207 73.5432 158.438 76.8896 168.993C77.2445 170.113 76.6245 171.309 75.5045 171.664C75.2908 171.732 75.0743 171.764 74.8611 171.764Z" fill="#333333"/>
<path d="M85.5695 191.347C84.9576 191.347 84.3508 191.084 83.9299 190.577C80.4116 186.33 77.4963 181.649 75.2649 176.662C74.7849 175.59 75.2653 174.331 76.3376 173.851C77.4117 173.371 78.6691 173.852 79.1487 174.924C81.2231 179.559 83.9342 183.912 87.2065 187.862C87.9563 188.766 87.8303 190.108 86.9256 190.858C86.5286 191.186 86.0473 191.347 85.5695 191.347Z" fill="#333333"/>
<path d="M135.087 179.109C134.246 179.109 133.45 178.606 133.115 177.779C128.124 165.447 129.646 151.543 137.185 140.588C137.851 139.62 139.176 139.376 140.144 140.042C141.112 140.708 141.357 142.033 140.691 143.001C133.965 152.775 132.607 165.179 137.059 176.183C137.5 177.272 136.975 178.512 135.885 178.953C135.624 179.059 135.353 179.109 135.087 179.109Z" fill="#333333"/>
<path d="M176.974 205.825C162.922 205.826 148.972 199.809 139.327 188.168C138.577 187.263 138.703 185.922 139.607 185.172C140.512 184.422 141.854 184.548 142.603 185.453C158.287 204.382 186.447 207.022 205.377 191.338C218.824 180.196 226.238 163.782 225.719 146.304C225.684 145.13 226.608 144.149 227.783 144.114C228.95 144.076 229.937 145.003 229.972 146.178C230.531 164.975 222.556 182.63 208.093 194.614C198.998 202.15 187.954 205.825 176.974 205.825Z" fill="#333333"/>
<path d="M226.805 138.998C225.807 138.998 224.916 138.291 224.719 137.274C222.939 128.079 218.819 119.381 212.804 112.121C212.054 111.217 212.18 109.875 213.085 109.126C213.991 108.376 215.331 108.502 216.081 109.407C222.55 117.215 226.982 126.572 228.897 136.465C229.12 137.619 228.366 138.735 227.212 138.958C227.075 138.985 226.939 138.998 226.805 138.998Z" fill="#333333"/>
<path d="M150.005 157.227C154.001 157.227 157.241 153.988 157.241 149.992C157.241 145.996 154.001 142.757 150.005 142.757C146.009 142.757 142.77 145.996 142.77 149.992C142.77 153.988 146.009 157.227 150.005 157.227Z" fill="#F24125"/>
<path d="M150.005 159.355C144.843 159.355 140.642 155.154 140.642 149.992C140.642 144.829 144.843 140.629 150.005 140.629C155.168 140.629 159.368 144.829 159.368 149.992C159.368 155.154 155.168 159.355 150.005 159.355ZM150.005 144.884C147.189 144.884 144.898 147.175 144.898 149.992C144.898 152.808 147.189 155.099 150.005 155.099C152.822 155.099 155.113 152.808 155.113 149.992C155.113 147.176 152.821 144.884 150.005 144.884Z" fill="#333333"/>
<path d="M184.364 182.021C184.223 182.021 184.087 182.008 183.947 181.978C183.811 181.953 183.679 181.91 183.551 181.859C183.423 181.804 183.3 181.74 183.185 181.664C183.066 181.587 182.96 181.498 182.857 181.4C182.76 181.302 182.674 181.191 182.594 181.076C182.517 180.957 182.453 180.834 182.398 180.706C182.347 180.578 182.304 180.446 182.279 180.31C182.249 180.174 182.236 180.034 182.236 179.893C182.236 179.753 182.249 179.617 182.279 179.476C182.304 179.34 182.347 179.208 182.398 179.081C182.453 178.953 182.517 178.829 182.594 178.71C182.674 178.595 182.76 178.485 182.857 178.387C182.959 178.289 183.066 178.2 183.185 178.123C183.3 178.047 183.424 177.983 183.551 177.927C183.679 177.876 183.81 177.834 183.947 177.808C184.223 177.753 184.504 177.753 184.781 177.808C184.917 177.834 185.049 177.876 185.177 177.927C185.305 177.983 185.432 178.047 185.547 178.123C185.662 178.2 185.772 178.289 185.871 178.387C185.968 178.485 186.057 178.595 186.134 178.71C186.211 178.829 186.274 178.953 186.33 179.081C186.381 179.208 186.424 179.34 186.449 179.476C186.479 179.617 186.492 179.753 186.492 179.893C186.492 180.034 186.479 180.174 186.449 180.31C186.423 180.446 186.381 180.578 186.33 180.706C186.274 180.834 186.211 180.957 186.134 181.076C186.057 181.191 185.968 181.302 185.871 181.4C185.773 181.498 185.662 181.587 185.547 181.664C185.432 181.74 185.305 181.804 185.177 181.859C185.049 181.91 184.917 181.953 184.781 181.978C184.644 182.008 184.504 182.021 184.364 182.021Z" fill="white"/>
<path d="M215.427 158.191C214.87 158.191 214.321 157.966 213.925 157.57C213.525 157.17 213.3 156.625 213.3 156.064C213.3 155.923 213.312 155.787 213.342 155.647C213.368 155.511 213.41 155.379 213.462 155.251C213.517 155.123 213.58 155 213.657 154.881C213.738 154.766 213.827 154.655 213.925 154.557C214.419 154.064 215.155 153.838 215.844 153.979C215.981 154.004 216.113 154.047 216.24 154.098C216.368 154.153 216.492 154.217 216.61 154.294C216.726 154.37 216.836 154.459 216.934 154.557C217.032 154.655 217.121 154.766 217.198 154.881C217.275 155 217.338 155.123 217.393 155.251C217.444 155.379 217.487 155.511 217.513 155.647C217.542 155.787 217.556 155.923 217.556 156.064C217.556 156.621 217.33 157.17 216.934 157.57C216.836 157.668 216.726 157.757 216.61 157.834C216.492 157.911 216.368 157.974 216.24 158.03C216.113 158.081 215.981 158.123 215.844 158.149C215.708 158.178 215.567 158.191 215.427 158.191Z" fill="white"/>
<path d="M102.237 111.383C101.679 111.383 101.13 111.158 100.735 110.762C100.637 110.664 100.547 110.553 100.466 110.438C100.39 110.319 100.326 110.196 100.275 110.068C100.22 109.941 100.177 109.809 100.152 109.673C100.126 109.532 100.109 109.396 100.109 109.255C100.109 109.115 100.126 108.979 100.152 108.838C100.177 108.702 100.22 108.57 100.275 108.443C100.326 108.315 100.39 108.192 100.466 108.073C100.547 107.958 100.637 107.847 100.735 107.749C100.832 107.651 100.939 107.562 101.058 107.485C101.173 107.409 101.296 107.345 101.424 107.29C101.552 107.238 101.688 107.196 101.824 107.17C102.096 107.115 102.377 107.115 102.654 107.17C102.79 107.196 102.922 107.238 103.049 107.29C103.181 107.345 103.305 107.409 103.42 107.485C103.535 107.562 103.645 107.651 103.743 107.749C104.139 108.145 104.364 108.694 104.364 109.255C104.364 109.817 104.139 110.362 103.743 110.762C103.347 111.157 102.798 111.383 102.237 111.383Z" fill="white"/>
<path d="M175.853 150.532C175.713 150.532 175.577 150.519 175.436 150.489C175.3 150.464 175.168 150.421 175.04 150.37C174.913 150.315 174.789 150.251 174.675 150.174C174.555 150.098 174.449 150.008 174.347 149.911C173.951 149.515 173.726 148.966 173.726 148.404C173.726 147.842 173.951 147.294 174.347 146.898C174.449 146.8 174.555 146.711 174.675 146.634C174.79 146.557 174.913 146.494 175.04 146.438C175.168 146.387 175.3 146.345 175.436 146.319C175.713 146.264 175.994 146.264 176.27 146.319C176.406 146.345 176.538 146.387 176.666 146.438C176.798 146.494 176.922 146.557 177.036 146.634C177.152 146.711 177.262 146.8 177.36 146.898C177.756 147.294 177.981 147.842 177.981 148.404C177.981 148.966 177.756 149.515 177.36 149.911C177.262 150.008 177.152 150.098 177.036 150.174C176.921 150.251 176.798 150.315 176.666 150.37C176.538 150.421 176.407 150.464 176.27 150.489C176.134 150.519 175.993 150.532 175.853 150.532Z" fill="white"/>
<path d="M172.875 136.489C172.734 136.489 172.598 136.477 172.458 136.447C172.321 136.421 172.189 136.379 172.062 136.328C171.934 136.272 171.811 136.208 171.696 136.132C171.577 136.055 171.47 135.966 171.372 135.868C171.275 135.77 171.185 135.66 171.104 135.545C171.027 135.426 170.964 135.302 170.909 135.174C170.858 135.047 170.815 134.915 170.789 134.779C170.76 134.638 170.747 134.502 170.747 134.362C170.747 134.221 170.759 134.085 170.789 133.945C170.815 133.809 170.858 133.677 170.909 133.549C170.964 133.421 171.027 133.298 171.104 133.179C171.185 133.064 171.274 132.957 171.372 132.855C171.47 132.757 171.576 132.672 171.696 132.591C171.811 132.515 171.935 132.451 172.062 132.396C172.189 132.345 172.321 132.302 172.458 132.277C172.734 132.221 173.015 132.221 173.292 132.277C173.428 132.302 173.56 132.345 173.687 132.396C173.82 132.451 173.943 132.515 174.058 132.591C174.173 132.672 174.283 132.757 174.381 132.855C174.777 133.255 175.003 133.8 175.003 134.362C175.003 134.923 174.777 135.468 174.381 135.868C174.284 135.966 174.173 136.055 174.058 136.132C173.943 136.208 173.819 136.272 173.687 136.328C173.56 136.379 173.428 136.421 173.292 136.447C173.155 136.476 173.015 136.489 172.875 136.489Z" fill="white"/>
<path d="M157.556 131.809C157.419 131.809 157.279 131.796 157.138 131.766C157.002 131.74 156.87 131.698 156.743 131.647C156.615 131.592 156.492 131.528 156.373 131.451C156.257 131.375 156.151 131.285 156.049 131.187C155.653 130.792 155.428 130.243 155.428 129.681C155.428 129.119 155.653 128.57 156.049 128.175C156.151 128.077 156.257 127.992 156.373 127.911C156.492 127.834 156.615 127.77 156.743 127.715C156.87 127.664 157.002 127.621 157.138 127.596C157.832 127.455 158.568 127.681 159.062 128.175C159.16 128.272 159.249 128.383 159.326 128.498C159.403 128.617 159.466 128.74 159.521 128.868C159.573 128.996 159.615 129.128 159.641 129.264C159.67 129.404 159.684 129.54 159.684 129.681C159.684 130.243 159.458 130.792 159.062 131.187C158.666 131.583 158.117 131.809 157.556 131.809Z" fill="white"/>
<path d="M127.343 159.468C126.786 159.468 126.237 159.242 125.841 158.847C125.743 158.749 125.654 158.638 125.573 158.523C125.496 158.404 125.432 158.281 125.381 158.153C125.326 158.025 125.283 157.894 125.258 157.757C125.228 157.617 125.215 157.481 125.215 157.34C125.215 156.779 125.445 156.23 125.841 155.834C125.939 155.736 126.045 155.647 126.164 155.57C126.279 155.494 126.403 155.43 126.53 155.374C126.658 155.323 126.794 155.281 126.926 155.255C127.203 155.2 127.483 155.2 127.76 155.255C127.896 155.281 128.028 155.323 128.156 155.374C128.288 155.43 128.411 155.494 128.526 155.57C128.641 155.647 128.751 155.736 128.849 155.834C129.245 156.23 129.471 156.779 129.471 157.34C129.471 157.481 129.458 157.617 129.428 157.757C129.403 157.894 129.36 158.025 129.309 158.153C129.254 158.281 129.19 158.404 129.113 158.523C129.037 158.638 128.947 158.749 128.849 158.847C128.449 159.242 127.905 159.468 127.343 159.468Z" fill="white"/>
<path d="M139.117 171.523C138.977 171.523 138.837 171.51 138.7 171.485C138.564 171.455 138.432 171.417 138.305 171.362C138.173 171.31 138.049 171.242 137.934 171.166C137.82 171.089 137.709 171 137.611 170.902C137.513 170.804 137.424 170.693 137.347 170.579C137.271 170.464 137.207 170.34 137.151 170.213C137.1 170.081 137.058 169.949 137.032 169.813C137.003 169.676 136.99 169.536 136.99 169.396C136.99 168.838 137.215 168.289 137.611 167.893C137.709 167.796 137.82 167.706 137.934 167.63C138.049 167.553 138.173 167.485 138.305 167.434C138.432 167.379 138.564 167.34 138.7 167.31C139.39 167.17 140.126 167.4 140.62 167.893C140.717 167.991 140.807 168.098 140.883 168.217C140.964 168.332 141.028 168.455 141.079 168.583C141.134 168.71 141.177 168.847 141.202 168.983C141.232 169.119 141.245 169.259 141.245 169.396C141.245 169.536 141.232 169.676 141.202 169.813C141.177 169.949 141.134 170.081 141.079 170.213C141.028 170.34 140.964 170.464 140.883 170.579C140.807 170.693 140.717 170.804 140.62 170.902C140.224 171.297 139.675 171.523 139.117 171.523Z" fill="white"/>
<path d="M123.088 145C122.53 145 121.981 144.774 121.585 144.379C121.488 144.281 121.398 144.17 121.317 144.055C121.241 143.936 121.177 143.813 121.122 143.685C121.071 143.557 121.028 143.426 121.003 143.289C120.973 143.149 120.96 143.013 120.96 142.872C120.96 142.732 120.973 142.596 121.003 142.455C121.028 142.319 121.071 142.187 121.122 142.06C121.177 141.932 121.241 141.804 121.317 141.689C121.398 141.574 121.488 141.464 121.585 141.366C122.079 140.872 122.815 140.647 123.505 140.787C123.641 140.813 123.773 140.855 123.9 140.906C124.032 140.962 124.156 141.026 124.271 141.102C124.385 141.179 124.496 141.268 124.594 141.366C124.99 141.762 125.215 142.311 125.215 142.872C125.215 143.013 125.202 143.149 125.173 143.289C125.147 143.426 125.105 143.557 125.054 143.685C124.998 143.813 124.934 143.936 124.858 144.055C124.781 144.17 124.692 144.281 124.594 144.379C124.198 144.774 123.649 145 123.088 145Z" fill="white"/>
<path d="M152.024 173.936C151.887 173.936 151.747 173.923 151.607 173.893C151.475 173.868 151.339 173.825 151.211 173.774C151.083 173.719 150.96 173.655 150.845 173.578C150.726 173.502 150.619 173.412 150.522 173.315C150.424 173.217 150.334 173.106 150.253 172.991C150.176 172.872 150.113 172.749 150.058 172.621C150.007 172.493 149.964 172.361 149.939 172.225C149.909 172.085 149.896 171.949 149.896 171.808C149.896 171.668 149.909 171.527 149.939 171.391C149.964 171.255 150.007 171.123 150.058 170.995C150.113 170.868 150.176 170.744 150.253 170.625C150.334 170.51 150.423 170.404 150.522 170.302C150.619 170.204 150.725 170.115 150.845 170.038C150.96 169.961 151.084 169.898 151.211 169.842C151.339 169.791 151.47 169.749 151.607 169.723C152.3 169.583 153.036 169.808 153.53 170.302C153.628 170.404 153.717 170.51 153.794 170.625C153.871 170.744 153.934 170.868 153.99 170.995C154.041 171.123 154.084 171.255 154.109 171.391C154.139 171.527 154.152 171.668 154.152 171.808C154.152 171.949 154.139 172.085 154.109 172.225C154.083 172.361 154.041 172.493 153.99 172.621C153.934 172.749 153.871 172.872 153.794 172.991C153.717 173.106 153.628 173.217 153.53 173.315C153.134 173.71 152.585 173.936 152.024 173.936Z" fill="white"/>
<path d="M146.777 179.468C146.637 179.468 146.496 179.455 146.36 179.425C146.224 179.4 146.092 179.357 145.964 179.306C145.832 179.251 145.709 179.187 145.594 179.11C145.479 179.034 145.368 178.944 145.271 178.846C144.875 178.451 144.649 177.902 144.649 177.34C144.649 176.778 144.875 176.229 145.271 175.834C145.368 175.736 145.479 175.646 145.594 175.57C145.709 175.493 145.832 175.429 145.964 175.374C146.092 175.323 146.224 175.281 146.36 175.255C147.054 175.115 147.785 175.34 148.279 175.834C148.377 175.932 148.466 176.042 148.547 176.157C148.624 176.276 148.688 176.4 148.739 176.527C148.794 176.655 148.837 176.787 148.862 176.923C148.892 177.063 148.905 177.2 148.905 177.34C148.905 177.902 148.675 178.451 148.279 178.846C147.883 179.242 147.334 179.468 146.777 179.468Z" fill="white"/>
<path d="M164.364 176.915C163.806 176.915 163.257 176.689 162.862 176.293C162.764 176.195 162.675 176.085 162.594 175.97C162.517 175.851 162.453 175.727 162.398 175.6C162.347 175.472 162.304 175.34 162.279 175.204C162.249 175.064 162.236 174.927 162.236 174.787C162.236 174.225 162.461 173.676 162.862 173.281C162.959 173.183 163.066 173.098 163.185 173.017C163.301 172.94 163.424 172.876 163.551 172.821C163.679 172.77 163.81 172.727 163.947 172.702C164.224 172.647 164.504 172.647 164.781 172.702C164.917 172.727 165.049 172.77 165.177 172.821C165.309 172.876 165.432 172.94 165.547 173.017C165.662 173.098 165.772 173.183 165.871 173.281C165.968 173.378 166.058 173.489 166.134 173.604C166.211 173.723 166.275 173.847 166.33 173.974C166.381 174.102 166.424 174.234 166.449 174.37C166.479 174.51 166.492 174.647 166.492 174.787C166.492 174.927 166.479 175.064 166.449 175.204C166.424 175.34 166.381 175.472 166.33 175.6C166.275 175.727 166.211 175.851 166.134 175.97C166.058 176.085 165.968 176.195 165.871 176.293C165.773 176.391 165.662 176.481 165.547 176.557C165.432 176.634 165.309 176.698 165.177 176.753C165.049 176.804 164.918 176.847 164.781 176.872C164.644 176.901 164.504 176.915 164.364 176.915Z" fill="white"/>
<path d="M144.79 125C144.653 125 144.513 124.987 144.373 124.958C144.241 124.932 144.105 124.889 143.977 124.838C143.849 124.783 143.726 124.719 143.611 124.643C143.492 124.566 143.385 124.477 143.288 124.379C143.19 124.281 143.1 124.17 143.019 124.055C142.943 123.941 142.879 123.813 142.828 123.685C142.773 123.558 142.73 123.426 142.705 123.289C142.679 123.153 142.662 123.013 142.662 122.872C142.662 122.732 142.679 122.596 142.705 122.455C142.73 122.319 142.773 122.187 142.828 122.06C142.879 121.932 142.943 121.809 143.019 121.694C143.1 121.575 143.19 121.468 143.288 121.366C143.385 121.268 143.492 121.183 143.611 121.102C143.726 121.026 143.849 120.962 143.977 120.906C144.105 120.855 144.241 120.813 144.373 120.787C145.066 120.647 145.798 120.872 146.296 121.366C146.394 121.468 146.483 121.575 146.56 121.694C146.636 121.809 146.7 121.932 146.756 122.06C146.807 122.187 146.849 122.319 146.875 122.455C146.905 122.596 146.917 122.732 146.917 122.872C146.917 123.013 146.905 123.153 146.875 123.289C146.849 123.426 146.807 123.558 146.756 123.685C146.7 123.813 146.636 123.941 146.56 124.055C146.483 124.17 146.394 124.281 146.296 124.379C145.9 124.774 145.351 125 144.79 125Z" fill="white"/>
<path d="M165.641 161.596C165.5 161.596 165.364 161.583 165.224 161.553C165.087 161.527 164.955 161.485 164.828 161.434C164.7 161.379 164.577 161.315 164.462 161.238C164.343 161.162 164.236 161.072 164.134 160.974C164.036 160.876 163.951 160.766 163.87 160.651C163.793 160.532 163.73 160.408 163.675 160.281C163.624 160.153 163.581 160.021 163.555 159.885C163.526 159.744 163.513 159.608 163.513 159.468C163.513 159.327 163.525 159.191 163.555 159.051C163.581 158.915 163.624 158.783 163.675 158.655C163.73 158.527 163.793 158.404 163.87 158.285C163.951 158.17 164.036 158.059 164.134 157.962C164.236 157.864 164.342 157.774 164.462 157.698C164.577 157.621 164.701 157.557 164.828 157.502C164.955 157.451 165.087 157.408 165.224 157.383C165.5 157.327 165.781 157.327 166.058 157.383C166.194 157.408 166.326 157.451 166.453 157.502C166.581 157.557 166.705 157.621 166.824 157.698C166.939 157.774 167.049 157.864 167.147 157.962C167.543 158.362 167.769 158.91 167.769 159.468C167.769 159.608 167.756 159.744 167.726 159.885C167.7 160.021 167.658 160.153 167.607 160.281C167.551 160.408 167.488 160.532 167.411 160.651C167.334 160.766 167.245 160.876 167.147 160.974C167.05 161.072 166.939 161.162 166.824 161.238C166.705 161.315 166.581 161.379 166.453 161.434C166.326 161.485 166.194 161.527 166.058 161.553C165.921 161.582 165.781 161.596 165.641 161.596Z" fill="white"/>
<path d="M121.811 121.596C121.254 121.596 120.705 121.37 120.309 120.975C119.913 120.575 119.683 120.03 119.683 119.468C119.683 119.328 119.696 119.192 119.726 119.051C119.751 118.915 119.794 118.783 119.849 118.655C119.9 118.528 119.964 118.404 120.041 118.285C120.122 118.17 120.211 118.06 120.309 117.962C120.802 117.468 121.534 117.243 122.228 117.383C122.364 117.409 122.496 117.451 122.624 117.502C122.756 117.558 122.879 117.621 122.994 117.698C123.109 117.775 123.22 117.864 123.317 117.962C123.415 118.06 123.505 118.17 123.581 118.285C123.658 118.4 123.722 118.528 123.777 118.655C123.828 118.783 123.871 118.915 123.896 119.051C123.926 119.192 123.939 119.328 123.939 119.468C123.939 119.609 123.926 119.749 123.896 119.885C123.871 120.021 123.828 120.153 123.777 120.281C123.722 120.409 123.658 120.532 123.581 120.651C123.505 120.766 123.415 120.877 123.317 120.975C123.22 121.072 123.109 121.157 122.994 121.238C122.879 121.315 122.756 121.379 122.624 121.434C122.496 121.485 122.364 121.528 122.228 121.553C122.092 121.583 121.951 121.596 121.811 121.596Z" fill="white"/>
<path d="M103.513 135.213C102.952 135.213 102.407 134.987 102.011 134.592C101.913 134.489 101.824 134.383 101.743 134.264C101.666 134.149 101.603 134.026 101.547 133.898C101.496 133.77 101.454 133.638 101.428 133.502C101.398 133.362 101.386 133.226 101.386 133.085C101.386 132.945 101.398 132.809 101.428 132.668C101.454 132.532 101.496 132.4 101.547 132.272C101.603 132.145 101.666 132.021 101.743 131.902C101.824 131.787 101.913 131.677 102.011 131.579C102.505 131.085 103.237 130.86 103.93 131C104.066 131.026 104.198 131.068 104.326 131.119C104.458 131.175 104.581 131.238 104.696 131.315C104.811 131.392 104.922 131.481 105.02 131.579C105.118 131.677 105.207 131.787 105.283 131.902C105.36 132.021 105.424 132.145 105.479 132.272C105.53 132.4 105.573 132.532 105.598 132.668C105.628 132.809 105.641 132.945 105.641 133.085C105.641 133.226 105.628 133.362 105.598 133.502C105.573 133.638 105.53 133.77 105.479 133.898C105.424 134.026 105.36 134.149 105.283 134.264C105.207 134.383 105.118 134.489 105.02 134.592C104.922 134.689 104.811 134.779 104.696 134.855C104.581 134.932 104.458 134.996 104.326 135.051C104.198 135.102 104.066 135.145 103.93 135.17C103.794 135.2 103.654 135.213 103.513 135.213Z" fill="white"/>
<path d="M105.641 185.425C105.505 185.425 105.364 185.412 105.224 185.383C105.092 185.357 104.956 185.315 104.828 185.264C104.7 185.208 104.577 185.144 104.462 185.068C104.343 184.987 104.237 184.902 104.139 184.804C103.743 184.404 103.513 183.859 103.513 183.298C103.513 183.157 103.526 183.021 103.556 182.881C103.581 182.744 103.624 182.612 103.679 182.485C103.73 182.357 103.794 182.234 103.871 182.115C103.951 182 104.041 181.893 104.139 181.791C104.237 181.693 104.343 181.604 104.462 181.527C104.577 181.451 104.7 181.387 104.828 181.332C104.956 181.281 105.092 181.238 105.224 181.213C105.5 181.157 105.781 181.157 106.058 181.213C106.194 181.238 106.326 181.281 106.454 181.332C106.586 181.387 106.709 181.451 106.824 181.527C106.939 181.604 107.049 181.693 107.147 181.791C107.245 181.893 107.334 182 107.411 182.115C107.488 182.234 107.551 182.357 107.607 182.485C107.658 182.612 107.7 182.744 107.726 182.881C107.756 183.021 107.768 183.157 107.768 183.298C107.768 183.438 107.756 183.578 107.726 183.715C107.7 183.851 107.658 183.983 107.607 184.11C107.551 184.238 107.488 184.366 107.411 184.481C107.334 184.595 107.245 184.706 107.147 184.804C106.751 185.199 106.203 185.425 105.641 185.425Z" fill="white"/>
<path d="M179.683 110.958C179.547 110.958 179.406 110.945 179.266 110.915C179.13 110.89 178.998 110.847 178.87 110.796C178.743 110.741 178.619 110.677 178.5 110.6C178.385 110.524 178.274 110.434 178.177 110.336C178.079 110.234 177.993 110.128 177.913 110.013C177.836 109.894 177.772 109.77 177.717 109.643C177.666 109.515 177.623 109.383 177.598 109.247C177.568 109.107 177.555 108.97 177.555 108.83C177.555 108.268 177.78 107.724 178.177 107.324C178.274 107.226 178.385 107.136 178.5 107.06C178.619 106.983 178.743 106.919 178.87 106.864C178.998 106.813 179.134 106.77 179.266 106.745C179.96 106.604 180.691 106.83 181.19 107.324C181.586 107.724 181.811 108.268 181.811 108.83C181.811 108.97 181.798 109.107 181.768 109.247C181.743 109.383 181.7 109.515 181.649 109.643C181.594 109.77 181.53 109.894 181.453 110.013C181.377 110.128 181.287 110.234 181.19 110.336C180.794 110.732 180.245 110.958 179.683 110.958Z" fill="white"/>
<path d="M156.279 97.3407C156.143 97.3407 156.002 97.3279 155.862 97.2981C155.726 97.2726 155.594 97.23 155.466 97.179C155.338 97.1236 155.215 97.0598 155.096 96.9832C154.981 96.9024 154.874 96.8173 154.773 96.7194C154.376 96.3236 154.151 95.7747 154.151 95.213C154.151 94.6513 154.376 94.1024 154.773 93.7109C154.874 93.6088 154.981 93.5237 155.096 93.4428C155.215 93.3662 155.338 93.3024 155.466 93.2471C155.594 93.196 155.725 93.1534 155.862 93.1279C156.138 93.0726 156.419 93.0726 156.696 93.1279C156.832 93.1534 156.964 93.196 157.092 93.2471C157.22 93.3024 157.343 93.3662 157.462 93.4428C157.577 93.5237 157.687 93.6088 157.786 93.7109C158.181 94.1024 158.407 94.6513 158.407 95.213C158.407 95.7747 158.181 96.3236 157.786 96.7194C157.688 96.8173 157.577 96.9024 157.462 96.9832C157.343 97.0598 157.22 97.1236 157.092 97.179C156.964 97.23 156.833 97.2726 156.696 97.2981C156.559 97.3275 156.419 97.3407 156.279 97.3407Z" fill="white"/>
<path d="M192.449 133.511C192.313 133.511 192.172 133.498 192.032 133.468C191.896 133.443 191.764 133.4 191.636 133.349C191.509 133.294 191.385 133.23 191.27 133.153C191.151 133.077 191.045 132.987 190.947 132.889C190.547 132.489 190.321 131.945 190.321 131.383C190.321 130.821 190.546 130.272 190.947 129.877C191.044 129.779 191.151 129.689 191.27 129.613C191.386 129.536 191.509 129.472 191.636 129.417C191.764 129.366 191.895 129.323 192.032 129.298C192.309 129.243 192.589 129.243 192.866 129.298C193.002 129.323 193.134 129.366 193.262 129.417C193.39 129.472 193.517 129.536 193.632 129.613C193.747 129.689 193.857 129.779 193.956 129.877C194.351 130.272 194.577 130.821 194.577 131.383C194.577 131.945 194.351 132.489 193.956 132.889C193.858 132.987 193.747 133.077 193.632 133.153C193.517 133.23 193.39 133.294 193.262 133.349C193.134 133.4 193.003 133.443 192.866 133.468C192.729 133.498 192.589 133.511 192.449 133.511Z" fill="white"/>
<path d="M136.705 204.149C136.568 204.149 136.428 204.136 136.288 204.106C136.156 204.08 136.019 204.038 135.892 203.987C135.764 203.931 135.641 203.868 135.526 203.791C135.407 203.714 135.3 203.625 135.202 203.527C135.105 203.425 135.015 203.319 134.934 203.204C134.858 203.085 134.794 202.961 134.739 202.834C134.688 202.706 134.645 202.574 134.619 202.438C134.59 202.297 134.577 202.161 134.577 202.021C134.577 201.459 134.807 200.91 135.202 200.514C135.3 200.417 135.407 200.327 135.526 200.251C135.641 200.174 135.764 200.11 135.892 200.055C136.019 200.004 136.156 199.961 136.288 199.936C136.564 199.88 136.845 199.88 137.122 199.936C137.258 199.961 137.39 200.004 137.517 200.055C137.649 200.11 137.773 200.174 137.888 200.251C138.002 200.327 138.113 200.417 138.211 200.514C138.607 200.91 138.832 201.459 138.832 202.021C138.832 202.161 138.819 202.297 138.79 202.438C138.764 202.574 138.722 202.706 138.67 202.834C138.615 202.961 138.551 203.085 138.475 203.204C138.398 203.319 138.309 203.425 138.211 203.527C138.113 203.625 138.002 203.714 137.888 203.791C137.773 203.868 137.649 203.931 137.517 203.987C137.39 204.038 137.258 204.08 137.122 204.106C136.985 204.135 136.845 204.149 136.705 204.149Z" fill="white"/>
</svg>
