<svg width="328" height="86" viewBox="0 0 328 86" fill="none" xmlns="http://www.w3.org/2000/svg">
<path d="M0 83.49H15.49L0 68V83.49Z" fill="#00DEFF"/>
<mask id="path-2-inside-1" fill="white">
<path fill-rule="evenodd" clip-rule="evenodd" d="M5.80875 3.09799H321.03V61.1854L298.566 85.1948H30.0843L5.80875 59.2491V3.09799Z"/>
</mask>
<path fill-rule="evenodd" clip-rule="evenodd" d="M5.80875 3.09799H321.03V61.1854L298.566 85.1948H30.0843L5.80875 59.2491V3.09799Z" fill="#00102F" fill-opacity="0.32"/>
<path d="M321.03 3.09799H323.03V1.09799H321.03V3.09799ZM5.80875 3.09799V1.09799H3.80875V3.09799H5.80875ZM321.03 61.1854L322.49 62.5518L323.03 61.9751V61.1854H321.03ZM298.566 85.1948V87.1948H299.433L300.026 86.5612L298.566 85.1948ZM30.0843 85.1948L28.6239 86.5612L29.2167 87.1948H30.0843V85.1948ZM5.80875 59.2491H3.80875V60.0389L4.34831 60.6156L5.80875 59.2491ZM321.03 1.09799H5.80875V5.09799H321.03V1.09799ZM323.03 61.1854V3.09799H319.03V61.1854H323.03ZM300.026 86.5612L322.49 62.5518L319.569 59.8189L297.105 83.8284L300.026 86.5612ZM30.0843 87.1948H298.566V83.1948H30.0843V87.1948ZM4.34831 60.6156L28.6239 86.5612L31.5448 83.8284L7.26918 57.8827L4.34831 60.6156ZM3.80875 3.09799V59.2491H7.80875V3.09799H3.80875Z" fill="#00DEFF" mask="url(#path-2-inside-1)"/>
<path d="M328 83.49H312.51L328 68V83.49Z" fill="#00DEFF"/>
<path d="M50.3424 5.42148L56.9256 12.7792" stroke="#00DEFF" stroke-width="3"/>
<path d="M39.1122 5.42148L45.6954 12.7792" stroke="#00DEFF" stroke-width="3"/>
<path d="M27.8819 5.42148L34.4652 12.7792" stroke="#00DEFF" stroke-width="3"/>
<path d="M44.9209 5.42148L51.5041 12.7792" stroke="#00DEFF" stroke-width="3"/>
<path d="M33.6907 5.42148L40.2739 12.7792" stroke="#00DEFF" stroke-width="3"/>
<path d="M22.4604 5.42148L29.0437 12.7792" stroke="#00DEFF" stroke-width="3"/>
<path d="M16.6517 5.42148L23.2349 12.7792" stroke="#00DEFF" stroke-width="3"/>
<path d="M11.2302 5.42148L17.8135 12.7792" stroke="#00DEFF" stroke-width="3"/>
<path d="M276.109 5.42148L269.525 12.7792" stroke="#00DEFF" stroke-width="3"/>
<path d="M287.339 5.42148L280.756 12.7792" stroke="#00DEFF" stroke-width="3"/>
<path d="M298.569 5.42148L291.986 12.7792" stroke="#00DEFF" stroke-width="3"/>
<path d="M281.53 5.42148L274.947 12.7792" stroke="#00DEFF" stroke-width="3"/>
<path d="M292.76 5.42148L286.177 12.7792" stroke="#00DEFF" stroke-width="3"/>
<path d="M303.991 5.42148L297.407 12.7792" stroke="#00DEFF" stroke-width="3"/>
<path d="M309.799 5.42148L303.216 12.7792" stroke="#00DEFF" stroke-width="3"/>
<path d="M315.221 5.42148L308.638 12.7792" stroke="#00DEFF" stroke-width="3"/>
<path d="M51.5041 0H275.334L263.717 12.7792H63.1216L51.5041 0Z" fill="#00DEFF"/>
<path d="M51.5041 0L54.4085 3.09799H48.7934L51.5041 0Z" fill="#00DEFF"/>
<path d="M275.334 0L272.43 3.09799H277.851L275.334 0Z" fill="#00DEFF"/>
</svg>
