<svg width="300" height="300" viewBox="0 0 300 300" fill="none" xmlns="http://www.w3.org/2000/svg">
<rect width="300" height="300" rx="150" fill="#0F0F0F"/>
<path d="M110.979 199.193C113.117 199.193 114.851 197.46 114.851 195.321C114.851 193.182 113.117 191.449 110.979 191.449C108.84 191.449 107.106 193.182 107.106 195.321C107.106 197.46 108.84 199.193 110.979 199.193Z" fill="#CCCCCC"/>
<path d="M189.747 190.628C192.647 190.628 194.999 188.276 194.999 185.376C194.999 182.475 192.647 180.124 189.747 180.124C186.846 180.124 184.495 182.475 184.495 185.376C184.495 188.276 186.846 190.628 189.747 190.628Z" fill="#CCCCCC"/>
<path d="M156.916 181.95V195.871C158.941 196.445 160.426 198.307 160.426 200.518C160.426 200.539 160.423 200.56 160.423 200.581C160.739 200.543 161.06 200.518 161.384 200.518C165.161 200.518 168.326 203.105 169.223 206.601C169.765 206.52 170.315 206.478 170.874 206.478C172.634 206.478 174.3 206.879 175.785 207.594C178.439 205.165 181.974 203.683 185.853 203.683C188.177 203.683 190.373 204.214 192.334 205.161C193.461 197.191 200.304 191.059 208.584 191.059C217.649 191.059 224.999 198.409 224.999 207.474C224.999 212.058 223.119 216.201 220.088 219.179C221.092 220.693 221.796 222.418 222.134 224.273H161.531H135.228H74.6257C74.9636 222.418 75.6677 220.693 76.671 219.179C73.64 216.201 71.7601 212.057 71.7601 207.474C71.7601 198.409 79.1105 191.059 88.1753 191.059C96.4551 191.059 103.299 197.191 104.425 205.161C106.386 204.214 108.583 203.682 110.906 203.682C114.785 203.682 118.32 205.164 120.974 207.593C122.46 206.879 124.125 206.478 125.885 206.478C126.445 206.478 126.997 206.52 127.536 206.601C128.434 203.105 131.598 200.518 135.376 200.518C135.699 200.518 136.02 200.542 136.337 200.581C136.337 200.56 136.333 200.539 136.333 200.518C136.333 198.374 137.731 196.554 139.667 195.924V181.95H156.916V181.95Z" fill="#CCCCCC"/>
<path d="M175.836 157.981V181.951H164.219V149.532L175.836 157.981Z" fill="#E6E6E6"/>
<path d="M132.539 149.532V181.951H120.922V157.981L132.539 149.532Z" fill="#CCCCCC"/>
<path d="M164.219 112.108V181.951H132.539V112.108C132.539 110.344 132.627 108.591 132.803 106.852H163.955C164.131 108.591 164.219 110.344 164.219 112.108Z" fill="#E6E6E6"/>
<path d="M163.954 106.852H132.803C134.039 94.7072 139.523 83.3225 148.381 74.7611C153.443 79.6543 157.403 85.4699 160.096 91.824C162.113 96.587 163.423 101.649 163.954 106.852Z" fill="#F24125"/>
<path opacity="0.25" d="M148.381 74.7611C148.381 74.7611 143.885 87.1631 143.885 106.852C143.885 126.541 143.885 181.458 143.885 181.458L132.539 181.951V112.108C132.539 110.344 132.627 108.591 132.803 106.852C134.039 94.7072 139.524 83.3225 148.381 74.7611Z" fill="black"/>
<path d="M165.979 149.532H162.458V112.108C162.458 110.41 162.373 108.701 162.203 107.029C161.692 102.03 160.438 97.145 158.476 92.5098C156.06 86.8111 152.668 81.6845 148.381 77.2496C140.585 85.3259 135.694 95.8347 134.555 107.03C134.386 108.701 134.3 110.41 134.3 112.107V149.532H130.78V112.107C130.78 110.292 130.871 108.464 131.052 106.674C132.334 94.0781 138.054 82.2949 147.158 73.4945C147.84 72.8352 148.922 72.8352 149.604 73.4945C154.815 78.5317 158.891 84.4673 161.717 91.1362C163.817 96.0952 165.159 101.323 165.706 106.672C165.887 108.463 165.979 110.292 165.979 112.107L165.979 149.532Z" fill="#333333"/>
<path d="M164.219 180.191H132.539V183.711H164.219V180.191Z" fill="#333333"/>
<path d="M132.539 183.711H120.922C119.95 183.711 119.162 182.923 119.162 181.951V157.981C119.162 157.418 119.432 156.889 119.887 156.558L131.504 148.109C132.039 147.72 132.748 147.664 133.338 147.964C133.928 148.265 134.299 148.871 134.299 149.533V181.951C134.299 182.923 133.511 183.711 132.539 183.711ZM122.682 180.191H130.779V152.989L122.682 158.877V180.191Z" fill="#333333"/>
<path d="M175.836 183.711H164.219C163.247 183.711 162.458 182.923 162.458 181.951V173.713C162.458 172.741 163.247 171.953 164.219 171.953C165.19 171.953 165.979 172.741 165.979 173.713V180.191H174.075V158.877L165.979 152.989V168.55C165.979 169.522 165.19 170.31 164.219 170.31C163.247 170.31 162.458 169.522 162.458 168.55V149.532C162.458 148.87 162.83 148.264 163.42 147.964C164.01 147.664 164.718 147.719 165.254 148.109L176.871 156.558C177.326 156.888 177.596 157.418 177.596 157.981V181.951C177.596 182.923 176.807 183.711 175.836 183.711Z" fill="#333333"/>
<path d="M157.241 101.456C156.47 101.456 155.762 100.945 155.546 100.166C154.687 97.0732 153.496 94.063 152.003 91.2186C151.552 90.3578 151.884 89.2937 152.744 88.8424C153.605 88.391 154.669 88.7223 155.121 89.5834C156.728 92.6485 158.013 95.8921 158.937 99.2248C159.197 100.162 158.649 101.132 157.712 101.392C157.555 101.435 157.397 101.456 157.241 101.456Z" fill="white"/>
<path d="M150.636 87.3139C150.077 87.3139 149.527 87.0481 149.185 86.5531C148.504 85.5653 147.774 84.5937 147.016 83.6644C146.402 82.9114 146.514 81.8025 147.267 81.1878C148.02 80.5728 149.129 80.6851 149.743 81.4385C150.561 82.4403 151.348 83.4883 152.083 84.5536C152.635 85.3537 152.434 86.45 151.634 87.002C151.329 87.2128 150.98 87.3139 150.636 87.3139Z" fill="white"/>
<path d="M110.979 200.954C107.873 200.954 105.346 198.427 105.346 195.321C105.346 192.215 107.873 189.689 110.979 189.689C114.084 189.689 116.611 192.215 116.611 195.321C116.611 198.427 114.084 200.954 110.979 200.954ZM110.979 193.209C109.814 193.209 108.867 194.156 108.867 195.321C108.867 196.486 109.814 197.433 110.979 197.433C112.144 197.433 113.091 196.486 113.091 195.321C113.091 194.156 112.144 193.209 110.979 193.209Z" fill="#333333"/>
<path d="M189.747 192.388C185.88 192.388 182.735 189.242 182.735 185.376C182.735 181.51 185.88 178.364 189.747 178.364C193.613 178.364 196.759 181.51 196.759 185.376C196.759 189.242 193.613 192.388 189.747 192.388ZM189.747 181.884C187.821 181.884 186.255 183.451 186.255 185.376C186.255 187.301 187.821 188.868 189.747 188.868C191.672 188.868 193.239 187.301 193.239 185.376C193.239 183.45 191.672 181.884 189.747 181.884Z" fill="#333333"/>
<path d="M103.045 213.839C102.773 213.839 102.497 213.776 102.239 213.643C101.375 213.196 101.037 212.134 101.483 211.271C102.541 209.224 102.695 206.203 102.666 205.212C102.636 204.241 103.4 203.429 104.372 203.4C105.341 203.37 106.155 204.135 106.184 205.106C106.19 205.289 106.3 209.619 104.611 212.887C104.298 213.492 103.683 213.839 103.045 213.839Z" fill="#333333"/>
<path d="M127.852 213.11C127.129 213.11 126.451 212.661 126.194 211.94C125.175 209.076 125.754 206.474 125.824 206.186C126.052 205.242 127.003 204.661 127.948 204.889C128.89 205.117 129.47 206.062 129.248 207.004C129.235 207.06 128.843 208.883 129.511 210.76C129.837 211.676 129.359 212.682 128.443 213.008C128.247 213.077 128.048 213.11 127.852 213.11Z" fill="#333333"/>
<path d="M117.587 212.734C117.328 212.734 117.065 212.677 116.817 212.556C115.943 212.13 115.58 211.076 116.006 210.202C117.367 207.412 119.936 206.137 120.224 206.001C121.103 205.586 122.153 205.962 122.567 206.841C122.981 207.717 122.608 208.762 121.736 209.18C121.684 209.206 119.992 210.061 119.17 211.745C118.865 212.371 118.239 212.734 117.587 212.734Z" fill="#333333"/>
<path d="M120.974 209.354C120.543 209.354 120.117 209.195 119.786 208.892C117.355 206.668 114.202 205.443 110.906 205.443C108.904 205.443 106.981 205.881 105.19 206.746C104.685 206.99 104.092 206.979 103.596 206.714C103.1 206.449 102.761 205.964 102.682 205.407C102.009 200.645 99.0302 196.513 94.7136 194.355C93.8441 193.921 93.4914 192.863 93.9261 191.994C94.3606 191.124 95.4177 190.772 96.2876 191.206C100.971 193.547 104.385 197.766 105.724 202.743C107.387 202.198 109.122 201.922 110.906 201.922C114.698 201.922 118.342 203.202 121.287 205.547C122.886 204.946 124.579 204.664 126.32 204.725C127.78 201.319 131.054 198.99 134.805 198.774C135.378 196.67 136.971 194.95 139.122 194.25C140.047 193.948 141.04 194.455 141.34 195.379C141.641 196.303 141.136 197.296 140.211 197.597C138.96 198.005 138.114 199.155 138.093 200.469C138.095 200.507 138.096 200.544 138.096 200.581C138.096 201.085 137.88 201.565 137.503 201.899C137.126 202.233 136.624 202.389 136.123 202.329C135.845 202.294 135.6 202.278 135.375 202.278C132.483 202.278 129.96 204.235 129.24 207.039C129.016 207.913 128.167 208.478 127.274 208.342C126.816 208.273 126.349 208.238 125.884 208.238C124.431 208.238 123.036 208.555 121.736 209.18C121.494 209.297 121.233 209.354 120.974 209.354Z" fill="#333333"/>
<path d="M90.1418 226.033H74.6257C74.1036 226.033 73.6087 225.801 73.2742 225.4C72.9398 224.999 72.8008 224.471 72.894 223.957C73.1862 222.353 73.7174 220.832 74.4782 219.419C71.5806 216.109 70 211.918 70 207.474C70 197.452 78.1534 189.299 88.1753 189.299C89.1473 189.299 89.9355 190.087 89.9355 191.059C89.9355 192.031 89.1473 192.819 88.1753 192.819C80.0945 192.819 73.5203 199.393 73.5203 207.474C73.5203 211.435 75.0773 215.146 77.9045 217.924C78.5058 218.515 78.6036 219.449 78.1379 220.152C77.645 220.895 77.2416 221.685 76.9301 222.513H90.1418C91.1137 222.513 91.9019 223.301 91.9019 224.273C91.9019 225.245 91.1137 226.033 90.1418 226.033Z" fill="#333333"/>
<path d="M100.468 226.033H97.1824C96.2104 226.033 95.4222 225.245 95.4222 224.273C95.4222 223.301 96.2104 222.513 97.1824 222.513H100.468C101.44 222.513 102.228 223.301 102.228 224.273C102.228 225.245 101.44 226.033 100.468 226.033Z" fill="#333333"/>
<path d="M189.414 226.033H107.274C106.302 226.033 105.514 225.245 105.514 224.273C105.514 223.301 106.302 222.513 107.274 222.513H189.414C190.386 222.513 191.175 223.301 191.175 224.273C191.175 225.245 190.386 226.033 189.414 226.033Z" fill="#333333"/>
<path d="M222.134 226.033H195.047C194.075 226.033 193.287 225.245 193.287 224.273C193.287 223.301 194.075 222.513 195.047 222.513H219.829C219.517 221.684 219.114 220.895 218.621 220.152C218.155 219.449 218.253 218.514 218.854 217.924C220.648 216.162 221.964 213.963 222.659 211.567C222.931 210.633 223.908 210.096 224.841 210.367C225.774 210.639 226.311 211.615 226.04 212.548C225.305 215.078 224.016 217.428 222.28 219.417C223.041 220.831 223.572 222.353 223.864 223.957C223.958 224.471 223.819 224.999 223.484 225.4C223.151 225.801 222.656 226.033 222.134 226.033Z" fill="#333333"/>
<path d="M224.999 209.234C224.027 209.234 223.239 208.446 223.239 207.474C223.239 206.479 223.139 205.485 222.941 204.519C222.746 203.567 223.36 202.637 224.313 202.442C225.262 202.247 226.195 202.86 226.39 203.813C226.635 205.01 226.759 206.242 226.759 207.475C226.759 208.446 225.971 209.234 224.999 209.234Z" fill="#333333"/>
<path d="M175.785 209.354C175.526 209.354 175.265 209.297 175.022 209.18C173.723 208.555 172.327 208.238 170.874 208.238C170.413 208.238 169.945 208.273 169.483 208.342C168.592 208.475 167.743 207.912 167.518 207.038C166.799 204.235 164.276 202.278 161.384 202.278C161.159 202.278 160.914 202.294 160.636 202.328C160.136 202.389 159.633 202.233 159.256 201.899C158.879 201.565 158.662 201.085 158.662 200.581C158.662 200.552 158.664 200.513 158.666 200.476C158.647 199.126 157.735 197.932 156.436 197.564C155.501 197.299 154.958 196.325 155.223 195.39C155.488 194.455 156.46 193.912 157.396 194.177C159.64 194.813 161.346 196.594 161.949 198.773C165.702 198.987 168.978 201.317 170.439 204.724C172.183 204.665 173.873 204.945 175.472 205.547C178.417 203.201 182.061 201.922 185.853 201.922C187.637 201.922 189.373 202.197 191.036 202.742C193.144 194.942 200.333 189.298 208.583 189.298C214.986 189.298 220.796 192.569 224.126 198.048C224.631 198.878 224.367 199.961 223.536 200.466C222.705 200.97 221.622 200.706 221.118 199.876C218.432 195.457 213.746 192.818 208.583 192.818C201.328 192.818 195.091 198.23 194.077 205.407C193.998 205.963 193.658 206.449 193.162 206.713C192.667 206.978 192.074 206.99 191.568 206.745C189.778 205.88 187.855 205.442 185.853 205.442C182.557 205.442 179.404 206.667 176.973 208.891C176.642 209.196 176.216 209.354 175.785 209.354Z" fill="#333333"/>
<path d="M193.714 213.839C193.077 213.839 192.461 213.492 192.149 212.887C190.46 209.619 190.569 205.289 190.575 205.106C190.604 204.135 191.422 203.364 192.387 203.4C193.358 203.429 194.122 204.239 194.094 205.21C194.093 205.246 194.011 208.823 195.276 211.271C195.722 212.134 195.384 213.196 194.521 213.642C194.262 213.776 193.986 213.839 193.714 213.839Z" fill="#333333"/>
<path d="M168.907 213.111C168.711 213.111 168.512 213.078 168.317 213.008C167.401 212.682 166.923 211.676 167.249 210.76C167.924 208.862 167.516 207.021 167.512 207.003C167.296 206.059 167.881 205.113 168.823 204.891C169.767 204.671 170.709 205.246 170.936 206.186C171.005 206.473 171.585 209.076 170.565 211.94C170.309 212.661 169.631 213.111 168.907 213.111Z" fill="#333333"/>
<path d="M179.173 212.734C178.521 212.734 177.895 212.371 177.589 211.745C176.755 210.034 175.05 209.192 175.033 209.184C174.154 208.769 173.778 207.72 174.193 206.841C174.607 205.962 175.656 205.585 176.536 206.001C176.824 206.137 179.393 207.412 180.754 210.202C181.18 211.076 180.817 212.13 179.943 212.556C179.694 212.677 179.431 212.734 179.173 212.734Z" fill="#333333"/>
<path d="M145.211 204.207C144.239 204.207 143.451 203.419 143.451 202.447V186.605C143.451 185.634 144.239 184.845 145.211 184.845C146.183 184.845 146.971 185.634 146.971 186.605V202.447C146.971 203.419 146.183 204.207 145.211 204.207Z" fill="white"/>
<path d="M151.548 204.207C150.576 204.207 149.788 203.419 149.788 202.447V186.605C149.788 185.634 150.576 184.845 151.548 184.845C152.52 184.845 153.308 185.634 153.308 186.605V202.447C153.308 203.419 152.52 204.207 151.548 204.207Z" fill="white"/>
<path d="M198.545 226.033C197.573 226.033 196.785 225.245 196.785 224.273C196.785 217.77 202.075 212.48 208.578 212.48C209.55 212.48 210.338 213.268 210.338 214.24C210.338 215.212 209.55 216 208.578 216C204.017 216 200.305 219.712 200.305 224.273C200.305 225.245 199.518 226.033 198.545 226.033Z" fill="#333333"/>
<path d="M207.118 183.79C207.002 183.79 206.889 183.776 206.773 183.755C206.66 183.734 206.551 183.699 206.446 183.653C206.34 183.611 206.238 183.554 206.139 183.491C206.044 183.428 205.956 183.354 205.872 183.273C205.544 182.945 205.358 182.495 205.358 182.03C205.358 181.914 205.368 181.798 205.393 181.685C205.414 181.573 205.449 181.463 205.492 181.358C205.537 181.249 205.59 181.147 205.654 181.051C205.717 180.956 205.791 180.865 205.872 180.784C205.956 180.703 206.044 180.629 206.139 180.566C206.238 180.502 206.34 180.45 206.446 180.404C206.551 180.362 206.66 180.326 206.773 180.305C207.002 180.259 207.234 180.259 207.463 180.305C207.576 180.326 207.685 180.362 207.79 180.404C207.896 180.45 207.998 180.502 208.097 180.566C208.192 180.629 208.283 180.703 208.364 180.784C208.445 180.865 208.519 180.956 208.583 181.051C208.646 181.147 208.699 181.249 208.744 181.358C208.787 181.463 208.822 181.573 208.843 181.685C208.868 181.798 208.878 181.914 208.878 182.03C208.878 182.491 208.692 182.945 208.364 183.273C208.283 183.354 208.192 183.428 208.097 183.491C207.998 183.554 207.896 183.611 207.79 183.653C207.685 183.699 207.576 183.734 207.463 183.755C207.347 183.776 207.234 183.79 207.118 183.79Z" fill="#333333"/>
<path d="M228.24 221.106C227.775 221.106 227.321 220.915 226.994 220.588C226.666 220.261 226.48 219.807 226.48 219.345C226.48 218.881 226.666 218.427 226.994 218.099C227.325 217.772 227.775 217.585 228.24 217.585C228.705 217.585 229.159 217.772 229.486 218.099C229.813 218.427 230 218.881 230 219.345C230 219.807 229.813 220.261 229.486 220.588C229.159 220.915 228.705 221.106 228.24 221.106Z" fill="#333333"/>
<path d="M101.509 186.607C101.044 186.607 100.59 186.416 100.263 186.089C99.9352 185.762 99.7487 185.308 99.7487 184.846C99.7487 184.73 99.7592 184.614 99.7839 184.501C99.805 184.389 99.8402 184.28 99.8824 184.17C99.9282 184.065 99.981 183.963 100.044 183.868C100.111 183.773 100.182 183.681 100.263 183.6C100.671 183.192 101.28 183.005 101.854 183.121C101.966 183.143 102.076 183.178 102.181 183.22C102.287 183.266 102.389 183.319 102.487 183.382C102.583 183.445 102.671 183.519 102.755 183.6C102.836 183.681 102.906 183.773 102.973 183.868C103.037 183.963 103.089 184.065 103.135 184.17C103.177 184.28 103.213 184.389 103.234 184.501C103.258 184.614 103.269 184.73 103.269 184.846C103.269 185.308 103.082 185.762 102.755 186.089C102.671 186.17 102.583 186.244 102.487 186.307C102.389 186.371 102.287 186.427 102.181 186.469C102.076 186.515 101.966 186.55 101.854 186.571C101.741 186.592 101.625 186.607 101.509 186.607Z" fill="#333333"/>
<path d="M79.6829 180.974C79.5667 180.974 79.4541 180.96 79.3379 180.939C79.2252 180.918 79.1161 180.883 79.0105 180.837C78.9049 180.795 78.8028 180.738 78.7042 180.675C78.6092 180.612 78.5177 180.538 78.4367 180.457C78.1093 180.129 77.9227 179.675 77.9227 179.214C77.9227 179.098 77.9333 178.982 77.9579 178.869C77.9791 178.756 78.0143 178.647 78.0565 178.542C78.1023 178.432 78.1551 178.33 78.2184 178.235C78.2818 178.14 78.3557 178.049 78.4367 177.968C78.5177 177.887 78.6092 177.813 78.7042 177.749C78.8028 177.686 78.9049 177.633 79.0105 177.588C79.1161 177.545 79.2252 177.51 79.3379 177.489C79.5667 177.44 79.7991 177.44 80.0279 177.489C80.1405 177.51 80.2497 177.545 80.3553 177.588C80.4609 177.633 80.5665 177.686 80.6615 177.749C80.7566 177.813 80.8481 177.887 80.9291 177.968C81.01 178.049 81.084 178.14 81.1473 178.235C81.2107 178.33 81.2635 178.432 81.3093 178.542C81.3515 178.647 81.3867 178.756 81.4078 178.869C81.4325 178.982 81.443 179.098 81.443 179.214C81.443 179.675 81.2565 180.129 80.9291 180.457C80.8481 180.538 80.7566 180.612 80.6615 180.675C80.5665 180.738 80.4609 180.795 80.3553 180.837C80.2497 180.883 80.1405 180.918 80.0279 180.939C79.9152 180.96 79.7991 180.974 79.6829 180.974Z" fill="#333333"/>
<path d="M145.404 215.739C144.586 215.739 143.852 215.166 143.681 214.332C143.346 212.701 141.949 211.485 140.283 211.375C139.313 211.311 138.578 210.473 138.642 209.503C138.706 208.533 139.543 207.801 140.514 207.862C143.757 208.076 146.477 210.445 147.13 213.625C147.325 214.577 146.712 215.507 145.759 215.703C145.64 215.727 145.521 215.739 145.404 215.739Z" fill="#333333"/>
<path d="M141.721 221.666C141.622 221.666 141.523 221.657 141.422 221.64C140.464 221.477 139.82 220.567 139.984 219.609C140.593 216.046 143.404 213.285 146.979 212.737C150.315 212.224 153.617 213.752 155.389 216.627C155.899 217.455 155.642 218.539 154.814 219.049C153.986 219.559 152.902 219.301 152.392 218.474C151.364 216.805 149.447 215.919 147.512 216.216C145.438 216.534 143.808 218.136 143.454 220.202C143.307 221.06 142.563 221.666 141.721 221.666Z" fill="#333333"/>
<path d="M163.948 108.612H157.732C156.76 108.612 155.972 107.824 155.972 106.852C155.972 105.88 156.76 105.092 157.732 105.092H163.948C164.919 105.092 165.708 105.88 165.708 106.852C165.708 107.824 164.919 108.612 163.948 108.612Z" fill="#333333"/>
<path d="M152.568 108.612H132.806C131.834 108.612 131.046 107.824 131.046 106.852C131.046 105.88 131.834 105.092 132.806 105.092H152.568C153.54 105.092 154.329 105.88 154.329 106.852C154.329 107.824 153.541 108.612 152.568 108.612Z" fill="#333333"/>
<path d="M148.379 125.94C152.198 125.94 155.295 122.844 155.295 119.024C155.295 115.204 152.198 112.108 148.379 112.108C144.559 112.108 141.463 115.204 141.463 119.024C141.463 122.844 144.559 125.94 148.379 125.94Z" fill="#61CCF2"/>
<path d="M148.379 147.739C152.198 147.739 155.295 144.642 155.295 140.823C155.295 137.003 152.198 133.907 148.379 133.907C144.559 133.907 141.463 137.003 141.463 140.823C141.463 144.642 144.559 147.739 148.379 147.739Z" fill="#61CCF2"/>
<path d="M148.379 125.94C152.198 125.94 155.295 122.844 155.295 119.024C155.295 115.204 152.198 112.108 148.379 112.108" fill="white"/>
<path d="M148.379 147.739C152.198 147.739 155.295 144.642 155.295 140.823C155.295 137.003 152.198 133.907 148.379 133.907" fill="white"/>
<path d="M148.379 127.7C143.595 127.7 139.703 123.808 139.703 119.024C139.703 114.24 143.595 110.348 148.379 110.348C150.026 110.348 151.629 110.812 153.015 111.689C153.836 112.21 154.081 113.297 153.561 114.118C153.041 114.939 151.954 115.184 151.132 114.664C150.31 114.143 149.358 113.868 148.379 113.868C145.536 113.868 143.223 116.181 143.223 119.024C143.223 121.867 145.536 124.18 148.379 124.18C151.222 124.18 153.535 121.867 153.535 119.024C153.535 118.052 154.323 117.264 155.295 117.264C156.267 117.264 157.055 118.052 157.055 119.024C157.055 123.808 153.163 127.7 148.379 127.7Z" fill="#333333"/>
<path d="M148.379 149.499C143.595 149.499 139.703 145.607 139.703 140.823C139.703 136.039 143.595 132.147 148.379 132.147C150.828 132.147 153.175 133.19 154.818 135.008C155.47 135.73 155.414 136.843 154.692 137.494C153.971 138.146 152.858 138.09 152.206 137.368C151.23 136.287 149.835 135.667 148.379 135.667C145.536 135.667 143.223 137.98 143.223 140.823C143.223 143.666 145.536 145.979 148.379 145.979C151.222 145.979 153.535 143.666 153.535 140.823C153.535 139.851 154.323 139.063 155.295 139.063C156.267 139.063 157.055 139.851 157.055 140.823C157.055 145.607 153.163 149.499 148.379 149.499Z" fill="#333333"/>
<path d="M158.59 178.43C157.618 178.43 156.83 177.642 156.83 176.67V127.245C156.83 126.273 157.618 125.485 158.59 125.485C159.562 125.485 160.35 126.273 160.35 127.245V176.67C160.35 177.642 159.563 178.43 158.59 178.43Z" fill="white"/>
<path d="M158.59 121.613C157.618 121.613 156.83 120.824 156.83 119.852V115.276C156.83 114.304 157.618 113.516 158.59 113.516C159.562 113.516 160.35 114.304 160.35 115.276V119.852C160.35 120.825 159.563 121.613 158.59 121.613Z" fill="white"/>
</svg>
