<svg width="240" height="240" viewBox="0 0 240 240" fill="none" xmlns="http://www.w3.org/2000/svg">
<path d="M120 0C94.6585 -3.02194e-07 69.9675 8.02259 49.4658 22.918C28.9641 37.8133 13.7042 58.8168 5.87322 82.918C-1.95774 107.019 -1.95774 132.981 5.87322 157.082C13.7042 181.183 28.9641 202.187 49.4658 217.082C69.9675 231.977 94.6585 240 120 240C145.342 240 170.033 231.977 190.534 217.082C211.036 202.187 226.296 181.183 234.127 157.082C241.958 132.981 241.958 107.019 234.127 82.9179L120 120L120 0Z" fill="#FF800B"/>
<path d="M120 0C132.592 1.50161e-07 145.106 1.98199 157.082 5.87322L120 120L120 0Z" fill="#FCBC1D"/>
<path d="M157.082 5.87322C164.258 8.20488 171.198 11.2082 177.81 14.8432L120 120L157.082 5.87322Z" fill="#158ACC"/>
<path d="M177.81 14.8432C186.632 19.6927 194.808 25.6329 202.146 32.5238L120 120L177.81 14.8432Z" fill="#A4DAFF"/>
<path d="M202.146 32.5238C216.88 46.3603 227.881 63.6946 234.127 82.918L120 120L202.146 32.5238Z" fill="#44CC27"/>
</svg>
