<svg width="300" height="300" viewBox="0 0 300 300" fill="none" xmlns="http://www.w3.org/2000/svg">
<rect width="300" height="300" rx="150" fill="#0F0F0F"/>
<path d="M150 228.089C193.128 228.089 228.09 193.127 228.09 149.999C228.09 106.871 193.128 71.9091 150 71.9091C106.872 71.9091 71.9097 106.871 71.9097 149.999C71.9097 193.127 106.872 228.089 150 228.089Z" fill="#53AEF9"/>
<path d="M150 229.999C105.888 229.999 70 194.112 70 149.999C70 105.887 105.888 70 150 70C194.112 70 230 105.888 230 150C230 194.112 194.112 229.999 150 229.999ZM150 73.8194C107.994 73.8194 73.8194 107.994 73.8194 149.999C73.8194 192.005 107.994 226.18 150 226.18C192.006 226.18 226.181 192.005 226.181 149.999C226.181 107.994 192.006 73.8194 150 73.8194Z" fill="#333333"/>
<path d="M150 218.083C187.601 218.083 218.083 187.601 218.083 150C218.083 112.398 187.601 81.9159 150 81.9159C112.398 81.9159 81.9162 112.398 81.9162 150C81.9162 187.601 112.398 218.083 150 218.083Z" fill="#20505B"/>
<path d="M150 219.993C111.405 219.993 80.0065 188.594 80.0065 149.999C80.0065 111.405 111.405 80.0061 150 80.0061C188.594 80.0061 219.993 111.405 219.993 149.999C219.993 188.594 188.594 219.993 150 219.993ZM150 83.8255C113.511 83.8255 83.8259 113.511 83.8259 149.999C83.8259 186.488 113.511 216.173 150 216.173C186.489 216.173 216.174 186.488 216.174 149.999C216.174 113.511 186.489 83.8255 150 83.8255Z" fill="#333333"/>
<path d="M190.65 149.242C185.479 135.372 188.733 138.626 174.863 133.456C188.733 128.286 185.479 131.539 190.65 117.67C195.82 131.539 192.566 128.285 206.436 133.456C192.566 138.626 195.821 135.372 190.65 149.242Z" fill="#FCBC1D"/>
<path d="M206.435 135.367C206.214 135.367 205.989 135.328 205.769 135.246C204.628 134.821 203.499 134.413 202.213 133.963C201.218 133.615 200.694 132.525 201.042 131.53C201.391 130.535 202.48 130.01 203.476 130.358C204.785 130.817 205.938 131.232 207.103 131.667C208.091 132.035 208.593 133.135 208.225 134.123C207.939 134.892 207.21 135.367 206.435 135.367Z" fill="#333333"/>
<path d="M190.65 151.152C189.852 151.152 189.139 150.657 188.86 149.91C188.077 147.81 187.482 146.086 187.002 144.7C185.972 141.719 185.455 140.224 184.669 139.437C183.883 138.651 182.386 138.134 179.407 137.104C178.021 136.625 176.296 136.028 174.197 135.245C173.449 134.967 172.954 134.253 172.954 133.456C172.954 132.658 173.449 131.945 174.197 131.667C176.296 130.884 178.021 130.288 179.406 129.809C182.386 128.778 183.883 128.261 184.669 127.475C185.455 126.688 185.972 125.193 187.002 122.212C187.481 120.827 188.077 119.102 188.86 117.002C189.139 116.255 189.852 115.76 190.65 115.76C191.447 115.76 192.161 116.255 192.44 117.002C193.222 119.102 193.818 120.827 194.297 122.212C195.78 126.501 196.104 127.333 197.503 128.104C198.427 128.613 198.763 129.775 198.254 130.698C197.745 131.622 196.585 131.958 195.66 131.449C192.93 129.945 192.227 127.912 190.688 123.46C190.675 123.424 190.663 123.388 190.65 123.351C190.637 123.388 190.625 123.424 190.612 123.461C188.173 130.514 187.708 130.979 180.654 133.418C180.618 133.431 180.582 133.443 180.545 133.456C180.582 133.469 180.618 133.481 180.654 133.494C187.708 135.932 188.173 136.398 190.612 143.451C190.624 143.488 190.637 143.524 190.65 143.56C190.662 143.524 190.675 143.487 190.688 143.451C193.126 136.397 193.591 135.932 200.645 133.493C202.012 133.021 203.712 132.433 205.769 131.667C206.757 131.298 207.857 131.801 208.226 132.789C208.594 133.777 208.091 134.877 207.103 135.245C205.004 136.028 203.279 136.624 201.893 137.103C198.913 138.134 197.417 138.651 196.631 139.437C195.845 140.223 195.328 141.719 194.298 144.699C193.818 146.084 193.223 147.809 192.44 149.909C192.161 150.657 191.447 151.152 190.65 151.152Z" fill="#333333"/>
<path d="M165.318 207.306C159.234 190.984 163.063 194.814 146.741 188.729C163.063 182.645 159.234 186.474 165.318 170.152C171.403 186.474 167.573 182.644 183.895 188.729C167.574 194.814 171.403 190.985 165.318 207.306Z" fill="#FCBC1D"/>
<path d="M165.318 209.216C164.521 209.216 163.807 208.721 163.529 207.974C162.609 205.507 161.908 203.479 161.345 201.85C160.115 198.294 159.498 196.509 158.519 195.529C157.539 194.549 155.754 193.932 152.198 192.703C150.568 192.139 148.541 191.439 146.074 190.519C145.327 190.24 144.831 189.527 144.831 188.729C144.831 187.932 145.327 187.219 146.074 186.94C148.54 186.021 150.568 185.32 152.197 184.757C155.753 183.527 157.538 182.91 158.518 181.93C159.498 180.95 160.116 179.165 161.345 175.609C161.908 173.98 162.609 171.952 163.529 169.485C163.807 168.738 164.521 168.243 165.318 168.243C166.116 168.243 166.829 168.738 167.108 169.485C168.027 171.952 168.728 173.979 169.291 175.608C170.067 177.851 170.627 179.471 171.181 180.563C171.658 181.504 171.282 182.653 170.342 183.13C169.401 183.607 168.251 183.231 167.775 182.291C167.103 180.966 166.507 179.242 165.682 176.856C165.567 176.523 165.446 176.174 165.319 175.808C165.191 176.174 165.07 176.524 164.955 176.857C162.109 185.09 161.679 185.52 153.445 188.367C153.113 188.482 152.763 188.603 152.396 188.73C152.764 188.857 153.113 188.978 153.446 189.094C161.679 191.94 162.109 192.37 164.955 200.603C165.071 200.936 165.191 201.286 165.319 201.652C165.446 201.285 165.567 200.936 165.682 200.602C168.528 192.37 168.959 191.94 177.192 189.093C177.525 188.978 177.874 188.857 178.241 188.73C177.874 188.602 177.523 188.481 177.19 188.366C175.876 187.911 174.74 187.519 173.79 187.154C172.805 186.777 172.313 185.672 172.69 184.687C173.068 183.702 174.173 183.21 175.157 183.588C176.048 183.93 177.103 184.294 178.438 184.756C180.068 185.32 182.095 186.021 184.563 186.94C185.31 187.219 185.806 187.932 185.806 188.73C185.806 189.527 185.31 190.241 184.563 190.519C182.096 191.439 180.069 192.14 178.44 192.703C174.884 193.932 173.099 194.549 172.119 195.529C171.138 196.509 170.521 198.294 169.292 201.85C168.729 203.479 168.028 205.507 167.108 207.974C166.829 208.721 166.116 209.216 165.318 209.216Z" fill="#333333"/>
<path d="M104.411 182.837C100.033 171.092 102.789 173.847 91.0438 169.469C102.789 165.091 100.033 167.846 104.411 156.102C108.79 167.846 106.034 165.091 117.779 169.469C106.034 173.847 108.79 171.092 104.411 182.837Z" fill="#FCBC1D"/>
<path d="M104.411 184.747C103.614 184.747 102.9 184.251 102.622 183.504C101.958 181.723 101.452 180.261 101.046 179.086C100.216 176.683 99.7582 175.359 99.1398 174.741C98.5218 174.123 97.198 173.665 94.7952 172.835C93.6204 172.429 92.1579 171.923 90.3769 171.259C89.6299 170.981 89.1345 170.267 89.1345 169.47C89.1345 168.672 89.6299 167.959 90.3769 167.68C92.1579 167.017 93.62 166.511 94.7949 166.105C97.198 165.274 98.5215 164.816 99.1398 164.198C99.7582 163.58 100.216 162.256 101.046 159.853C101.452 158.678 101.958 157.216 102.622 155.435C102.9 154.688 103.614 154.193 104.411 154.193C105.209 154.193 105.922 154.688 106.201 155.435C106.865 157.216 107.37 158.678 107.776 159.853C108.607 162.256 109.065 163.58 109.683 164.198C110.301 164.816 111.625 165.274 114.028 166.104C115.203 166.51 116.665 167.016 118.446 167.68C119.193 167.958 119.688 168.672 119.688 169.469C119.688 170.267 119.193 170.98 118.446 171.259C116.665 171.923 115.203 172.428 114.028 172.834C111.625 173.665 110.301 174.123 109.683 174.741C109.065 175.359 108.607 176.682 107.777 179.085C107.37 180.26 106.865 181.722 106.201 183.504C105.922 184.251 105.208 184.747 104.411 184.747ZM96.7458 169.47C101.953 171.297 102.584 171.928 104.411 177.135C106.238 171.928 106.869 171.296 112.076 169.47C106.868 167.643 106.238 167.012 104.411 161.804C102.585 167.011 101.953 167.643 96.7458 169.47Z" fill="#333333"/>
<path d="M118.735 127.287C113.564 113.417 116.818 116.671 102.948 111.501C116.818 106.331 113.564 109.584 118.735 95.7146C123.905 109.584 120.651 106.33 134.521 111.501C120.651 116.671 123.905 113.417 118.735 127.287Z" fill="#FCBC1D"/>
<path d="M118.735 129.197C117.937 129.197 117.224 128.701 116.945 127.954C116.163 125.855 115.566 124.13 115.087 122.744C114.057 119.764 113.539 118.268 112.753 117.482C111.967 116.695 110.471 116.178 107.491 115.148C106.106 114.669 104.381 114.073 102.281 113.29C101.534 113.011 101.038 112.298 101.038 111.501C101.038 110.703 101.534 109.99 102.281 109.711C104.38 108.929 106.105 108.332 107.491 107.853C110.471 106.823 111.967 106.305 112.753 105.519C113.539 104.733 114.057 103.237 115.087 100.257C115.566 98.8716 116.162 97.1468 116.945 95.0473C117.224 94.3002 117.937 93.8048 118.735 93.8048C119.532 93.8048 120.245 94.3002 120.524 95.0473C121.183 96.816 121.716 98.3354 122.151 99.5889C122.496 100.585 121.968 101.674 120.972 102.019C120.139 102.307 119.244 101.987 118.77 101.294C118.746 101.365 118.721 101.436 118.697 101.506C116.258 108.559 115.792 109.024 108.739 111.463C108.703 111.476 108.667 111.488 108.63 111.501C108.667 111.514 108.703 111.526 108.739 111.539C115.793 113.977 116.258 114.443 118.697 121.496C118.709 121.533 118.722 121.569 118.735 121.606C118.747 121.569 118.76 121.533 118.772 121.496C121.211 114.443 121.677 113.977 128.73 111.539C128.766 111.526 128.803 111.514 128.839 111.501C128.803 111.489 128.767 111.476 128.731 111.464C124.859 110.126 122.916 109.454 121.465 107.599C120.815 106.768 120.962 105.568 121.792 104.918C122.623 104.268 123.823 104.415 124.473 105.245C125.195 106.168 126.371 106.607 129.979 107.854C131.364 108.333 133.089 108.929 135.188 109.712C135.935 109.99 136.431 110.704 136.431 111.501C136.431 112.299 135.935 113.012 135.188 113.291C133.089 114.073 131.364 114.669 129.978 115.148C126.998 116.179 125.503 116.696 124.716 117.482C123.93 118.268 123.413 119.764 122.382 122.744C121.904 124.13 121.307 125.855 120.524 127.954C120.246 128.701 119.532 129.197 118.735 129.197Z" fill="#333333"/>
<path d="M151.534 120.405L170.525 125.583C171.865 125.949 173.048 126.745 173.89 127.849C174.733 128.953 175.189 130.304 175.189 131.692V152.739C175.189 162.002 170.466 170.624 162.661 175.613L152.239 182.277C151.563 182.709 150.777 182.939 149.975 182.94C149.173 182.942 148.386 182.715 147.709 182.285L137.183 175.617C133.312 173.164 130.123 169.773 127.914 165.757C125.704 161.742 124.546 157.233 124.545 152.65V131.692C124.545 130.304 125.001 128.953 125.844 127.849C126.687 126.745 127.869 125.949 129.209 125.583L148.2 120.405C149.292 120.107 150.443 120.107 151.534 120.405ZM150.422 124.478C150.059 124.379 149.676 124.379 149.312 124.478L130.321 129.656C129.874 129.778 129.48 130.043 129.199 130.411C128.918 130.779 128.766 131.229 128.766 131.692V152.65C128.766 160.521 132.796 167.843 139.443 172.053L149.966 178.721L160.39 172.057C163.633 169.984 166.302 167.127 168.151 163.751C169.999 160.375 170.968 156.588 170.969 152.739V131.692C170.969 131.229 170.817 130.779 170.535 130.411C170.254 130.043 169.86 129.778 169.413 129.656L150.422 124.476V124.478Z" fill="#53AEF9"/>
<path d="M148.333 155.689L138.481 145.841C138.083 145.457 137.55 145.244 136.997 145.249C136.443 145.253 135.914 145.475 135.523 145.867C135.132 146.258 134.91 146.787 134.905 147.34C134.9 147.894 135.113 148.427 135.497 148.825L146.841 160.167C147.237 160.562 147.774 160.784 148.333 160.784C148.893 160.784 149.429 160.562 149.825 160.167L165.974 144.018C166.358 143.62 166.571 143.087 166.566 142.533C166.561 141.98 166.339 141.451 165.948 141.06C165.557 140.668 165.028 140.447 164.474 140.442C163.921 140.437 163.388 140.65 162.99 141.034L148.333 155.689Z" fill="#53AEF9"/>
<path d="M176.511 118.184C175.457 118.184 174.602 117.329 174.602 116.274V108.088C174.602 107.034 175.457 106.179 176.511 106.179C177.566 106.179 178.421 107.034 178.421 108.088V116.275C178.421 117.329 177.566 118.184 176.511 118.184Z" fill="#FCBC1D"/>
<path d="M180.604 114.091H172.418C171.363 114.091 170.508 113.236 170.508 112.182C170.508 111.127 171.363 110.272 172.418 110.272H180.604C181.659 110.272 182.514 111.127 182.514 112.182C182.514 113.236 181.659 114.091 180.604 114.091Z" fill="#FCBC1D"/>
<path d="M170.216 208.878C169.431 208.878 168.695 208.391 168.417 207.608C168.063 206.615 168.582 205.523 169.575 205.169C171.182 204.597 172.783 203.946 174.333 203.235C175.29 202.794 176.425 203.215 176.865 204.174C177.305 205.132 176.885 206.266 175.926 206.706C174.274 207.464 172.569 208.158 170.856 208.767C170.645 208.842 170.429 208.878 170.216 208.878Z" fill="white"/>
<path d="M184.086 201.804C183.477 201.804 182.879 201.514 182.509 200.974C181.912 200.104 182.135 198.915 183.005 198.319C198.991 187.364 208.535 169.301 208.535 149.999C208.535 135.433 203.129 121.464 193.311 110.663C192.601 109.883 192.659 108.675 193.439 107.966C194.221 107.256 195.428 107.314 196.137 108.094C206.595 119.598 212.355 134.48 212.355 149.999C212.355 170.56 202.19 189.802 185.164 201.469C184.834 201.696 184.458 201.804 184.086 201.804Z" fill="white"/>
<path d="M184.343 102.194C183.968 102.194 183.589 102.084 183.257 101.854C179.967 99.5734 176.435 97.6278 172.76 96.0706C171.79 95.6593 171.336 94.5383 171.748 93.5674C172.159 92.5965 173.28 92.1427 174.251 92.5541C178.166 94.2129 181.928 96.2856 185.433 98.7144C186.3 99.3152 186.516 100.505 185.915 101.372C185.544 101.907 184.948 102.194 184.343 102.194Z" fill="white"/>
</svg>
