<svg width="300" height="300" viewBox="0 0 300 300" fill="none" xmlns="http://www.w3.org/2000/svg">
<rect width="300" height="300" rx="150" fill="#0F0F0F"/>
<path d="M178.077 119.586L194.033 91.8856L210.851 101.574L203.252 114.764L186.435 105.076" fill="#F24125"/>
<path d="M196.767 125.773C202.863 131.862 207.761 139.154 211.061 147.267C214.132 154.818 215.821 163.076 215.821 171.726C215.821 176.407 215.327 180.973 214.383 185.373C211.673 198.053 205.261 209.359 196.329 218.108C192.018 222.336 187.112 225.971 181.754 228.867C172.571 233.841 162.056 236.664 150.883 236.664C149.794 236.664 148.714 236.638 147.641 236.585C127.368 235.587 109.543 225.293 98.3315 209.881C90.5414 199.168 85.9443 185.982 85.9443 171.726C85.9443 171.014 85.9557 170.306 85.9785 169.599C86.4466 155.031 91.7174 141.673 100.253 131.059C111.179 117.473 127.463 108.378 145.894 106.978C147.542 106.852 149.205 106.787 150.883 106.787C165.5 106.787 178.987 111.617 189.841 119.764C192.292 121.602 194.605 123.612 196.767 125.773Z" fill="#FCBC1D"/>
<path opacity="0.25" d="M156.442 233.131C148.846 230.448 141.897 226.387 135.9 221.253C121.975 209.342 113.15 191.646 113.15 171.887C113.15 154.366 120.091 138.463 131.371 126.783C137.585 120.348 145.117 115.192 153.531 111.751C157.04 110.318 160.703 109.187 164.486 108.381C160.099 107.445 155.55 106.949 150.883 106.949C142.191 106.949 133.903 108.657 126.326 111.751C117.912 115.192 110.38 120.348 104.166 126.783C92.8861 138.463 85.9447 154.366 85.9447 171.887C85.9447 191.646 94.7699 209.342 108.695 221.253C114.692 226.387 121.641 230.448 129.237 233.131C136.007 235.524 143.295 236.826 150.883 236.826C155.547 236.826 160.096 236.331 164.482 235.396C161.734 234.81 159.049 234.052 156.442 233.131Z" fill="black"/>
<path opacity="0.25" d="M181.361 156.465C180.432 151.948 181.798 147.661 184.515 145.601C185.255 145.043 186.095 144.647 187.017 144.455C191.326 143.571 195.771 147.512 196.953 153.261C198.132 159.006 195.604 164.382 191.295 165.267C189.917 165.553 188.518 165.339 187.226 164.732C184.475 163.442 182.167 160.372 181.361 156.465Z" fill="black"/>
<path d="M181.361 156.465C180.432 151.948 181.798 147.661 184.515 145.6C187.265 146.892 189.58 149.963 190.379 153.868C191.309 158.386 189.943 162.672 187.226 164.733C184.475 163.441 182.167 160.371 181.361 156.465Z" fill="#FCBC1D"/>
<path d="M190.073 167.295C188.844 167.295 187.603 167.013 186.417 166.455C185.465 166.008 185.057 164.875 185.504 163.924C185.95 162.973 187.084 162.564 188.035 163.011C188.991 163.46 189.984 163.596 190.908 163.404C192.394 163.099 193.654 161.988 194.46 160.276C195.354 158.379 195.577 156.023 195.089 153.644C194.137 149.014 190.614 145.659 187.399 146.32C186.781 146.448 186.195 146.718 185.661 147.12C183.449 148.798 182.468 152.4 183.226 156.082C183.437 157.112 182.774 158.118 181.745 158.329C180.712 158.542 179.709 157.878 179.498 156.849C178.435 151.681 179.953 146.671 183.366 144.085C184.357 143.338 185.453 142.837 186.63 142.593C191.96 141.498 197.426 146.113 198.816 152.878C199.469 156.058 199.145 159.261 197.903 161.898C196.573 164.722 194.362 166.58 191.677 167.131C191.149 167.241 190.612 167.295 190.073 167.295Z" fill="#492F2F"/>
<path d="M197.185 142.544C196.56 142.544 195.948 142.236 195.584 141.672C193.17 137.927 190.302 134.471 187.062 131.401C186.299 130.678 186.267 129.474 186.99 128.711C187.712 127.948 188.917 127.916 189.68 128.638C193.141 131.918 196.203 135.61 198.782 139.61C199.351 140.493 199.097 141.671 198.214 142.24C197.895 142.446 197.538 142.544 197.185 142.544Z" fill="white"/>
<path d="M188.1 215.378C187.591 215.378 187.084 215.176 186.71 214.775C185.992 214.008 186.032 212.803 186.799 212.086C197.978 201.627 204.39 186.878 204.39 171.62C204.39 168.296 204.092 164.966 203.505 161.721C203.318 160.687 204.005 159.697 205.038 159.51C206.069 159.321 207.062 160.009 207.25 161.043C207.877 164.511 208.195 168.069 208.195 171.619C208.195 187.927 201.345 203.689 189.399 214.865C189.033 215.208 188.565 215.378 188.1 215.378Z" fill="white"/>
<path d="M180.096 221.643C179.473 221.643 178.863 221.337 178.498 220.776C177.926 219.894 178.177 218.716 179.058 218.144C180.03 217.513 180.994 216.844 181.922 216.155C182.767 215.529 183.958 215.705 184.584 216.549C185.211 217.393 185.034 218.585 184.19 219.211C183.198 219.948 182.168 220.662 181.131 221.336C180.81 221.543 180.451 221.643 180.096 221.643Z" fill="white"/>
<path d="M150.883 238.567C114.027 238.567 84.0415 208.582 84.0415 171.726C84.0415 134.869 114.027 104.884 150.883 104.884C187.739 104.884 217.724 134.869 217.724 171.726C217.724 208.582 187.739 238.567 150.883 238.567ZM150.883 108.69C116.125 108.69 87.8471 136.968 87.8471 171.726C87.8471 206.484 116.125 234.762 150.883 234.762C185.641 234.762 213.919 206.484 213.919 171.726C213.919 136.968 185.641 108.69 150.883 108.69Z" fill="#492F2F"/>
<path opacity="0.25" d="M161.734 174.208C161.734 181.016 156.212 186.538 149.404 186.538C148.068 186.538 146.782 186.325 145.575 185.929C150.507 184.319 154.073 179.68 154.073 174.208C154.073 168.735 150.507 164.096 145.575 162.486C146.782 162.091 148.068 161.877 149.404 161.877C156.212 161.877 161.734 167.399 161.734 174.208Z" fill="black"/>
<path d="M121.905 203.458C121.201 204.379 120.318 205.118 119.26 205.62C114.652 207.808 108.548 204.593 105.629 198.443C102.71 192.293 104.08 185.53 108.688 183.342C109.385 183.011 110.115 182.805 110.865 182.714C115.066 182.197 119.839 185.298 122.32 190.523C124.569 195.265 124.272 200.364 121.905 203.458Z" fill="#FCBC1D"/>
<path opacity="0.25" d="M121.905 203.458C117.7 203.98 112.928 200.874 110.45 195.653C108.201 190.911 108.498 185.808 110.865 182.714C115.067 182.197 119.839 185.298 122.32 190.523C124.569 195.265 124.272 200.364 121.905 203.458Z" fill="black"/>
<path d="M116.153 208.216C114.438 208.216 112.661 207.756 110.925 206.842C107.989 205.296 105.498 202.602 103.91 199.258C102.323 195.914 101.812 192.281 102.47 189.029C103.17 185.575 105.088 182.946 107.871 181.625C110.655 180.303 113.904 180.48 117.023 182.122C119.959 183.668 122.45 186.361 124.037 189.705C124.488 190.655 124.083 191.79 123.134 192.24C122.184 192.691 121.049 192.286 120.599 191.337C119.362 188.731 117.463 186.654 115.249 185.489C113.218 184.419 111.177 184.268 109.503 185.063C107.829 185.857 106.656 187.534 106.2 189.784C105.704 192.235 106.112 195.02 107.348 197.626C108.585 200.232 110.485 202.309 112.698 203.475C114.729 204.545 116.77 204.696 118.444 203.901C120.118 203.107 121.291 201.43 121.747 199.18C121.956 198.15 122.959 197.484 123.99 197.693C125.02 197.901 125.686 198.905 125.477 199.935C124.778 203.389 122.86 206.018 120.076 207.34C118.843 207.925 117.517 208.216 116.153 208.216Z" fill="#492F2F"/>
<path d="M149.405 188.439C141.557 188.439 135.173 182.055 135.173 174.207C135.173 173.156 136.025 172.304 137.076 172.304C138.126 172.304 138.979 173.156 138.979 174.207C138.979 179.956 143.656 184.633 149.405 184.633C155.154 184.633 159.831 179.956 159.831 174.207C159.831 168.458 155.154 163.781 149.405 163.781C147.511 163.781 145.658 164.293 144.045 165.262C143.144 165.803 141.975 165.512 141.434 164.611C140.893 163.71 141.184 162.541 142.085 162C144.29 160.676 146.821 159.975 149.405 159.975C157.252 159.975 163.637 166.36 163.637 174.207C163.637 182.055 157.252 188.439 149.405 188.439Z" fill="#492F2F"/>
<path d="M148.644 143.006C146.924 143.006 145.205 142.351 143.895 141.042C143.152 140.299 143.152 139.094 143.895 138.351C144.638 137.608 145.843 137.608 146.586 138.351C147.72 139.486 149.567 139.486 150.703 138.351C151.837 137.216 151.837 135.369 150.703 134.234C149.568 133.1 147.721 133.099 146.586 134.234C145.843 134.977 144.638 134.977 143.895 134.234C143.152 133.491 143.152 132.286 143.895 131.543C146.514 128.924 150.775 128.925 153.394 131.543C156.012 134.162 156.012 138.423 153.394 141.042C152.085 142.351 150.365 143.006 148.644 143.006Z" fill="#492F2F"/>
<path d="M172.387 211.648C170.667 211.648 168.947 210.993 167.638 209.684C166.895 208.94 166.895 207.736 167.637 206.993C168.381 206.249 169.585 206.249 170.328 206.993C171.464 208.128 173.311 208.127 174.446 206.993C175.58 205.858 175.58 204.011 174.445 202.876C173.31 201.741 171.463 201.742 170.328 202.876C169.586 203.619 168.381 203.619 167.637 202.876C166.895 202.133 166.895 200.928 167.638 200.185C170.257 197.566 174.518 197.567 177.137 200.185C179.755 202.804 179.755 207.065 177.137 209.684C175.827 210.993 174.107 211.648 172.387 211.648Z" fill="#492F2F"/>
<path d="M123.037 125.727L118.954 129.807L107.568 118.421L114.616 117.309L123.037 125.727Z" fill="#F2F2F2"/>
<path d="M118.954 129.807L107.826 140.934L96.4401 129.548L83.2956 116.404C82.6753 115.783 82.0892 115.136 81.5412 114.463C77.709 109.763 75.635 103.837 75.7415 97.7181C79.2351 97.661 82.6715 98.3117 85.8492 99.598C88.2315 100.561 90.4692 101.881 92.4823 103.522C93.1559 104.07 93.8029 104.656 94.4232 105.276L107.568 118.42L118.954 129.807Z" fill="#F2F2F2"/>
<path opacity="0.25" d="M92.4823 103.522L107.826 140.934L81.5413 114.463L92.4823 103.522Z" fill="black"/>
<path d="M107.826 140.934L103.747 145.018L95.3251 136.596L96.4401 129.548L107.826 140.934Z" fill="#F2F2F2"/>
<path opacity="0.25" d="M107.826 140.934L103.747 145.018L95.3251 136.596L96.4401 129.548L107.826 140.934Z" fill="black"/>
<path d="M103.747 146.92C103.242 146.92 102.758 146.72 102.401 146.363L93.9794 137.941C93.549 137.511 93.3504 136.9 93.4455 136.299L94.5605 129.251C94.6724 128.544 95.1713 127.959 95.8518 127.738C96.5322 127.517 97.2792 127.696 97.7854 128.202L109.172 139.589C109.915 140.332 109.915 141.536 109.172 142.279L105.093 146.362C104.736 146.719 104.252 146.92 103.747 146.92C103.748 146.92 103.747 146.92 103.747 146.92ZM97.3557 135.936L103.746 142.326L105.136 140.935L97.7355 133.535L97.3557 135.936Z" fill="#492F2F"/>
<path d="M118.954 131.71C118.467 131.71 117.98 131.524 117.608 131.153L106.222 119.766C105.716 119.26 105.537 118.513 105.758 117.832C105.98 117.151 106.564 116.652 107.271 116.541L114.319 115.43C114.921 115.334 115.53 115.533 115.96 115.963L124.382 124.381C124.739 124.738 124.94 125.222 124.94 125.727C124.94 126.232 124.739 126.716 124.382 127.073L120.298 131.153C119.927 131.524 119.441 131.71 118.954 131.71ZM111.556 119.718L118.954 127.116L120.345 125.727L113.955 119.34L111.556 119.718Z" fill="#492F2F"/>
<path d="M106.481 139.589L109.172 142.28L120.299 131.152L117.609 128.461L106.481 139.589Z" fill="#492F2F"/>
<path d="M92.4823 103.522L81.5412 114.463C77.709 109.763 75.635 103.837 75.7415 97.7181C79.2351 97.661 82.6715 98.3117 85.8492 99.598C88.2315 100.561 90.4692 101.881 92.4823 103.522Z" fill="#F24125"/>
<path d="M95.0945 130.893L81.95 117.749C81.2802 117.079 80.6462 116.377 80.065 115.663C75.9367 110.601 73.7249 104.215 73.8387 97.685C73.8566 96.6594 74.6843 95.8324 75.7099 95.8153C79.4531 95.7563 83.1023 96.4337 86.5627 97.8342C89.1311 98.872 91.5271 100.289 93.6837 102.046C94.3961 102.626 95.0975 103.26 95.7681 103.93L108.913 117.075L106.222 119.766L93.0771 106.622C92.4983 106.043 91.894 105.496 91.2809 104.997C89.4188 103.481 87.3516 102.258 85.1356 101.362C82.7438 100.394 80.2458 99.8253 77.6873 99.6647C78.0001 104.621 79.858 109.388 83.0155 113.26C83.516 113.876 84.0624 114.48 84.6409 115.058L97.7854 128.202L95.0945 130.893Z" fill="#492F2F"/>
<path d="M80.196 113.117L82.8869 115.808L93.828 104.867L91.1371 102.176L80.196 113.117Z" fill="#492F2F"/>
<path d="M178.075 121.489C177.753 121.489 177.426 121.407 177.127 121.235C176.216 120.71 175.903 119.547 176.428 118.636L184.77 104.155C184.775 104.145 184.78 104.136 184.786 104.127C184.791 104.117 184.797 104.108 184.802 104.099L192.384 90.9362C192.909 90.0255 194.072 89.7123 194.983 90.2371L211.801 99.925C212.238 100.177 212.557 100.592 212.688 101.08C212.82 101.567 212.751 102.087 212.5 102.523L204.901 115.714C204.377 116.625 203.214 116.938 202.302 116.413L187.134 107.675L179.726 120.536C179.373 121.147 178.733 121.489 178.075 121.489ZM189.033 104.377L202.553 112.165L208.252 102.272L194.732 94.4841L189.033 104.377Z" fill="#492F2F"/>
<path d="M152.815 77.23L152.827 77.2414C151.32 79.1747 148.968 80.4153 146.327 80.4153C143.686 80.4153 141.334 79.1747 139.827 77.2414L139.838 77.2338C139.283 76.526 138.837 75.7192 138.537 74.8515C139.656 71.6244 142.719 69.3068 146.327 69.3068C149.934 69.3068 153.002 71.6244 154.113 74.8553C153.812 75.723 153.371 76.5222 152.815 77.23Z" fill="#20505B"/>
<path d="M154.57 72.1457C154.57 73.0933 154.41 74.0067 154.113 74.8553C153.002 71.6244 149.935 69.3068 146.327 69.3068C142.719 69.3068 139.656 71.6244 138.537 74.8515C138.244 74.0067 138.084 73.0971 138.084 72.1457C138.084 67.5943 141.772 63.9028 146.327 63.9028C150.878 63.9028 154.57 67.5943 154.57 72.1457Z" fill="#1AA5E2"/>
<path d="M139.827 77.2413C141.334 79.1746 143.686 80.4152 146.327 80.4152C148.968 80.4152 151.32 79.1746 152.827 77.2413C159.057 81.5645 156.499 98.8419 156.499 98.8419C155.711 99.0055 154.924 99.1501 154.132 99.2719H154.128C153.009 99.4508 151.891 99.5878 150.764 99.6905C149.447 99.8047 148.127 99.8732 146.81 99.8846C146.65 99.8846 146.487 99.8846 146.327 99.8846C146.163 99.8846 146.003 99.8846 145.844 99.8846C144.523 99.8732 143.206 99.8047 141.89 99.6905C140.763 99.5878 139.64 99.4508 138.522 99.2719C137.73 99.1501 136.938 99.0055 136.154 98.8419C136.154 98.8419 133.597 81.5645 139.827 77.2413Z" fill="#1AA5E2"/>
<path d="M154.161 78.5756L153.358 77.773L152.661 77.109L152.804 77.2452L151.214 76.2006L151.327 76.0617L151.319 76.0552C151.752 75.5026 152.088 74.8892 152.315 74.2323C152.549 73.5629 152.667 72.8627 152.667 72.1457C152.667 68.6499 149.823 65.8056 146.327 65.8056C142.831 65.8056 139.987 68.6499 139.987 72.1457C139.987 72.8619 140.104 73.5629 140.335 74.2281C140.564 74.8892 140.9 75.5049 141.335 76.059L138.342 78.4089C137.646 77.5222 137.107 76.5351 136.739 75.4748C136.369 74.4078 136.182 73.2878 136.182 72.1457C136.182 66.5515 140.733 62 146.327 62C151.922 62 156.473 66.5511 156.473 72.1457C156.473 73.292 156.283 74.415 155.91 75.4836C155.549 76.5259 155.016 77.5028 154.33 78.3827C154.284 78.4443 154.234 78.5037 154.183 78.5574L154.181 78.5558C154.174 78.5623 154.167 78.5692 154.161 78.5756ZM151.426 75.933L151.429 75.9353L151.426 75.933Z" fill="#492F2F"/>
<path d="M140.335 75.4748L136.739 74.2285C138.154 70.1466 142.007 67.4039 146.327 67.4039C150.655 67.4039 154.507 70.1497 155.912 74.2365L152.313 75.4741C151.436 72.9232 149.03 71.2095 146.327 71.2095C143.627 71.2095 141.219 72.9236 140.335 75.4748Z" fill="#492F2F"/>
<path d="M146.327 101.788H145.844C144.515 101.776 143.135 101.708 141.726 101.587C140.518 101.476 139.342 101.33 138.221 101.151C137.428 101.029 136.598 100.878 135.766 100.705C134.985 100.542 134.389 99.9099 134.272 99.1206C133.993 97.2326 131.744 80.5344 138.742 75.6781C139.572 75.1023 140.707 75.2751 141.328 76.0716C142.537 77.6232 144.359 78.5129 146.327 78.5129C148.295 78.5129 150.117 77.6232 151.327 76.072C151.948 75.2747 153.083 75.1039 153.912 75.6785C160.911 80.5348 158.662 97.233 158.382 99.121C158.265 99.9106 157.668 100.543 156.886 100.706C156.028 100.884 155.222 101.03 154.421 101.153C154.409 101.155 154.397 101.157 154.385 101.158C153.275 101.335 152.115 101.479 150.937 101.586C149.519 101.709 148.139 101.776 146.827 101.788H146.327V101.788ZM137.863 97.2341C138.183 97.2905 138.499 97.3434 138.811 97.3913C139.858 97.5584 140.948 97.6939 142.062 97.7958C143.365 97.9089 144.646 97.9717 145.86 97.9819H146.81C148.008 97.9717 149.289 97.9089 150.6 97.7951C151.7 97.6946 152.788 97.5591 153.828 97.3932C153.846 97.3902 153.865 97.3875 153.884 97.3852C154.184 97.3388 154.485 97.2886 154.791 97.2345C155.436 91.6327 155.343 83.4746 152.855 79.9442C151.046 81.471 148.756 82.3185 146.326 82.3185C143.897 82.3185 141.607 81.471 139.798 79.9438C137.31 83.4743 137.218 91.6323 137.863 97.2341Z" fill="#492F2F"/>
<path d="M140.068 113.151C139.332 113.151 138.632 112.722 138.321 112.004C135.662 105.868 136.599 99.2708 136.64 98.993C136.793 97.9533 137.761 97.2341 138.801 97.3897C139.84 97.5435 140.558 98.5101 140.405 99.5486C140.389 99.662 139.607 105.4 141.813 110.491C142.231 111.456 141.788 112.576 140.824 112.994C140.577 113.101 140.32 113.151 140.068 113.151Z" fill="#492F2F"/>
<path d="M152.582 113.151C152.33 113.151 152.073 113.101 151.827 112.994C150.863 112.576 150.42 111.456 150.837 110.491C153.054 105.375 152.254 99.605 152.245 99.5475C152.095 98.5086 152.814 97.5427 153.853 97.3909C154.894 97.2387 155.857 97.9549 156.011 98.993C156.051 99.2708 156.988 105.869 154.329 112.004C154.018 112.722 153.318 113.151 152.582 113.151Z" fill="#492F2F"/>
<path d="M128.614 92.2701C128.487 92.2701 128.36 92.2575 128.231 92.2312C127.201 92.0212 126.537 91.0161 126.747 89.9867C129.413 76.9191 138.251 76.3338 138.625 76.3151C139.682 76.266 140.568 77.072 140.62 78.122C140.671 79.1647 139.873 80.053 138.834 80.1154C138.53 80.1394 132.516 80.7475 130.476 90.7474C130.292 91.6486 129.499 92.2701 128.614 92.2701Z" fill="#492F2F"/>
<path d="M164.565 92.27C163.68 92.27 162.887 91.6489 162.703 90.7477C160.651 80.7052 154.598 80.1339 154.341 80.1145C153.292 80.0628 152.495 79.1704 152.547 78.1208C152.598 77.0712 153.488 76.2667 154.553 76.3147C154.927 76.3333 163.761 76.9182 166.431 89.9855C166.641 91.0153 165.977 92.0203 164.948 92.2308C164.819 92.2574 164.691 92.27 164.565 92.27Z" fill="#492F2F"/>
<path d="M149.328 76.4899C149.202 76.4899 149.076 76.4784 148.955 76.4518C148.833 76.429 148.715 76.3909 148.601 76.3452C148.483 76.2958 148.372 76.2387 148.27 76.1702C148.167 76.1017 148.068 76.0218 147.98 75.9342C147.626 75.5803 147.425 75.0894 147.425 74.5871C147.425 74.4653 147.436 74.3397 147.463 74.2141C147.486 74.0961 147.524 73.9744 147.569 73.8602C147.619 73.746 147.676 73.6357 147.744 73.5329C147.813 73.4264 147.893 73.3312 147.98 73.2437C148.068 73.1562 148.167 73.0762 148.27 73.0039C148.372 72.9354 148.483 72.8783 148.601 72.8327C148.715 72.7832 148.833 72.7452 148.955 72.7223C149.575 72.5967 150.229 72.8022 150.671 73.2437C150.758 73.3312 150.838 73.4264 150.911 73.5329C150.975 73.6357 151.036 73.746 151.086 73.8602C151.131 73.9744 151.169 74.0961 151.192 74.2141C151.219 74.3397 151.23 74.4653 151.23 74.5871C151.23 74.7126 151.219 74.8382 151.192 74.96C151.169 75.0818 151.131 75.1998 151.086 75.3139C151.036 75.4319 150.975 75.5423 150.911 75.645C150.839 75.7478 150.759 75.8467 150.671 75.9342C150.584 76.0218 150.489 76.1017 150.382 76.1702C150.279 76.2387 150.168 76.2958 150.054 76.3452C149.94 76.3909 149.818 76.429 149.7 76.4518C149.575 76.4784 149.449 76.4899 149.328 76.4899Z" fill="white"/>
<path d="M151.739 96.6602C151.679 96.6602 151.619 96.6576 151.558 96.6519C150.512 96.5529 149.744 95.6247 149.843 94.5786C150.442 88.2331 149.511 84.0595 149.502 84.0181C149.267 82.9936 149.908 81.9733 150.932 81.7393C151.957 81.5049 152.977 82.1453 153.211 83.1702C153.255 83.3635 154.287 87.9881 153.631 94.9359C153.539 95.9216 152.71 96.6602 151.739 96.6602Z" fill="white"/>
<path d="M224.019 89.8501C222.968 89.8501 222.116 88.998 222.116 87.9473V79.7904C222.116 78.7396 222.968 77.8876 224.019 77.8876C225.07 77.8876 225.922 78.7396 225.922 79.7904V87.9473C225.922 88.998 225.07 89.8501 224.019 89.8501Z" fill="#FCBC1D"/>
<path d="M228.097 85.7715H219.94C218.889 85.7715 218.038 84.9195 218.038 83.8687C218.038 82.818 218.889 81.9659 219.94 81.9659H228.097C229.148 81.9659 230 82.818 230 83.8687C230 84.9195 229.148 85.7715 228.097 85.7715Z" fill="#FCBC1D"/>
<path d="M75.9812 206.301C74.9305 206.301 74.0784 205.449 74.0784 204.398V196.241C74.0784 195.191 74.9305 194.339 75.9812 194.339C77.0319 194.339 77.884 195.191 77.884 196.241V204.398C77.884 205.449 77.0319 206.301 75.9812 206.301Z" fill="#FCBC1D"/>
<path d="M80.0593 202.223H71.9028C70.8521 202.223 70 201.371 70 200.32C70 199.269 70.8521 198.417 71.9028 198.417H80.0593C81.11 198.417 81.9621 199.269 81.9621 200.32C81.9621 201.371 81.1104 202.223 80.0593 202.223Z" fill="#FCBC1D"/>
</svg>
