<svg width="68" height="26" viewBox="0 0 68 26" fill="none" xmlns="http://www.w3.org/2000/svg">
<path d="M1 5.5L6 0.5H62.5L67.5 5.5V20L62.5 25H6L1 20V5.5Z" stroke="#00DEFF"/>
<path d="M11 20V6H18.82L20.88 8.06V11.63L19.99 12.52L21.33 13.87V17.94L19.27 20H11ZM12.44 18.62H18.42L19.9 17.14V14.44L18.34 12.88H17.67L19.47 10.86V8.81L18.18 7.37H12.44V18.62ZM12.44 18.62V12.88H18.34L19.9 14.44V17.14L18.42 18.62H12.44ZM12.44 12.88V7.37H18.18L19.47 8.81V10.86L17.67 12.88H12.44ZM13.83 17.17H17.89L18.5 16.56V15.15L17.62 14.27H13.83V17.17ZM13.83 11.44H17.06L18.06 10.45V9.44L17.45 8.83H13.83V11.44Z" fill="#00DEFF"/>
<path d="M23.6344 20V6H32.7344V8.83H26.4644V11.52H32.0444V14.35H26.4644V17.17H32.7344V20H23.6344ZM25.0844 18.58V12.93V7.41V18.58Z" fill="#00DEFF"/>
<path d="M38.1106 20V8.83H34.6406V6H44.4006V8.83H40.9306V20H38.1106ZM39.5306 18.58H39.5206V7.41H43.0906H35.9506H39.5306V18.58Z" fill="#00DEFF"/>
<path d="M46.3102 20V8.06L48.3702 6H54.8302L56.8902 8.06V20H54.0702V15.88H49.1302V20H46.3102ZM47.7202 18.58H47.7102V14.51H55.5302V18.58H55.5202V8.65L54.2702 7.41H48.9702L47.7202 8.65V18.58ZM49.1302 13.06H54.0702V9.44L53.4602 8.83H49.7402L49.1302 9.44V13.06ZM47.7102 14.52V8.65L48.9702 7.4H54.2702L55.5302 8.65V14.52H47.7102Z" fill="#00DEFF"/>
</svg>
