<svg width="24" height="24" viewBox="0 0 24 24" fill="none" xmlns="http://www.w3.org/2000/svg">
<path d="M12.3923 0L22.7846 6V18L12.3923 24L2 18V6L12.3923 0Z" fill="black"/>
<path fill-rule="evenodd" clip-rule="evenodd" d="M12.3923 2.13175L3.84615 7.06588V16.9341L12.3923 21.8682L20.9385 16.9341V7.06588L12.3923 2.13175ZM22.7846 6L12.3923 0L2 6V18L12.3923 24L22.7846 18V6Z" fill="#00DEFF"/>
<path d="M9.86035 9.20642C9.86035 8.39008 10.1406 7.75741 10.701 7.30842C11.2716 6.84923 12.1276 6.61963 13.2688 6.61963C14.0229 6.61963 14.6648 6.69106 15.1947 6.83392V8.94621C14.6241 8.77274 14.0586 8.686 13.4981 8.686C12.9479 8.686 12.5912 8.75233 12.4282 8.88498C12.2651 9.00744 12.1836 9.19111 12.1836 9.43602V14.579C12.1836 15.0688 12.5657 15.3137 13.33 15.3137C14.1044 15.3137 14.7413 15.2372 15.2406 15.0841V17.1505C14.6903 17.3035 14.0229 17.3801 13.2383 17.3801C12.097 17.3801 11.2462 17.1556 10.6857 16.7066C10.1355 16.2576 9.86035 15.6249 9.86035 14.8086V9.20642Z" fill="#00DEFF"/>
</svg>
