<svg width="30" height="30" viewBox="0 0 30 30" fill="none" xmlns="http://www.w3.org/2000/svg">
<rect width="30" height="30" rx="15" fill="#00DEFF"/>
<path fill-rule="evenodd" clip-rule="evenodd" d="M23.4841 6.51586C24.5882 7.61724 25.4511 8.90085 26.0567 10.3292C26.6838 11.8084 27 13.3814 27 15C27 16.6186 26.6838 18.1916 26.0567 19.6708C25.4511 21.0992 24.5855 22.3828 23.4841 23.4841C22.3828 24.5882 21.0992 25.4511 19.6708 26.0567C18.1916 26.6838 16.6186 27 15 27C13.3814 27 11.8084 26.6838 10.3292 26.0567C8.90085 25.4511 7.61724 24.5855 6.51586 23.4841C5.41179 22.3828 4.54891 21.0992 3.94328 19.6708C3.31621 18.1916 3 16.6186 3 15C3 13.3814 3.31621 11.8084 3.94328 10.3292C4.54891 8.90085 5.41447 7.61724 6.51586 6.51586C7.61724 5.41179 8.90085 4.54891 10.3292 3.94328C11.8084 3.31621 13.3787 3 15 3C16.6213 3 18.1916 3.31621 19.6708 3.94328C21.0992 4.54891 22.3828 5.41447 23.4841 6.51586ZM5.16793 15C5.16793 20.4212 9.57883 24.8321 15 24.8321C20.4238 24.8321 24.8321 20.4212 24.8321 15C24.8321 9.57883 20.4212 5.16793 15 5.16793C9.57883 5.16793 5.16793 9.57883 5.16793 15ZM16.1684 13.8423H20.0031C20.6329 13.8423 21.1501 14.3595 21.1527 14.992C21.1527 15.6244 20.6356 16.1416 20.0031 16.1416H15.0188C14.3863 16.1416 13.8691 15.6244 13.8691 14.992V8.29254C13.8691 7.66012 14.3863 7.14292 15.0188 7.14292C15.6512 7.14292 16.1684 7.66012 16.1684 8.29254V13.8423Z" fill="black"/>
</svg>
