<svg width="24" height="24" viewBox="0 0 24 24" fill="none" xmlns="http://www.w3.org/2000/svg">
<g clip-path="url(#clip0)">
<path fill-rule="evenodd" clip-rule="evenodd" d="M14.3682 20.8225L14.3821 20.8047C14.3849 20.8011 14.3875 20.7975 14.3904 20.7939C14.395 20.7872 14.3994 20.7805 14.4038 20.7737C14.4058 20.7704 14.4082 20.767 14.4102 20.7637L14.4113 20.7621L17.1174 16.2545C17.1579 16.1869 17.1827 16.1108 17.1891 16.0321L18.0158 6.22199C18.016 6.21993 18.016 6.21786 18.016 6.21554C18.0168 6.20651 18.0171 6.19748 18.0173 6.18844C18.0173 6.18483 18.0176 6.18122 18.0176 6.1776C18.0176 6.16676 18.0173 6.15566 18.0165 6.14482L18.0163 6.14095C18.0155 6.13115 18.0145 6.12108 18.0132 6.11127L18.0124 6.10688C18.0119 6.10276 18.0111 6.09863 18.0104 6.0945C18.0091 6.08675 18.0078 6.07901 18.006 6.07153C18.0033 6.05892 18.0001 6.04643 17.9964 6.0341C17.9956 6.03101 17.9949 6.02791 17.9938 6.02481C17.9905 6.01371 17.9866 6.00287 17.9825 5.99203C17.9814 5.9892 17.9802 5.98661 17.9791 5.98403C17.9758 5.97577 17.9722 5.96777 17.9685 5.95977C17.967 5.95642 17.9652 5.9528 17.9636 5.94945C17.9598 5.94196 17.9559 5.93448 17.9518 5.92699C17.9502 5.9239 17.9484 5.92106 17.9469 5.91796C17.9409 5.9079 17.935 5.89809 17.9283 5.88854L17.9262 5.88544C17.9203 5.87693 17.9141 5.86867 17.9076 5.86041C17.9053 5.85731 17.9027 5.85447 17.9004 5.85137C17.8952 5.84518 17.8901 5.83899 17.8847 5.83305C17.8821 5.82995 17.8792 5.82711 17.8767 5.82427C17.8702 5.81731 17.8635 5.81085 17.8568 5.80414C17.855 5.80259 17.8534 5.80079 17.8519 5.79924C17.8434 5.7915 17.8349 5.78401 17.8258 5.77679C17.8227 5.77446 17.8199 5.77214 17.8168 5.76982C17.8103 5.76491 17.8036 5.76001 17.7969 5.75536C17.7936 5.75304 17.7899 5.75046 17.7863 5.74814C17.7788 5.74323 17.7714 5.73859 17.7636 5.73394C17.761 5.73239 17.7585 5.73059 17.7556 5.72904L17.7536 5.72775L11.2199 2.06594C11.1212 2.01056 11.007 1.9892 10.8949 2.00515C10.7828 2.0211 10.6791 2.07348 10.5998 2.1542L9.9522 2.81208C9.75218 3.0152 10.2966 3.30024 10.5 3.5C10.7031 3.70002 10.488 3.73941 10.688 3.53603L11.0592 3.15896L16.6456 6.29039L12.7164 10.1107L7.29463 6.9844L10.688 3.53603C10.888 3.33291 10.7034 3.19976 10.5 3C10.2969 2.79998 10.152 2.6087 9.9522 2.81208L6.09063 6.73637L6.08753 6.73973C6.08521 6.74205 6.08288 6.74463 6.08056 6.74721C6.07437 6.75392 6.06843 6.76063 6.0625 6.7676C6.06017 6.77044 6.05759 6.77328 6.05527 6.77638C6.04804 6.78541 6.04081 6.7947 6.03436 6.80425L6.03178 6.80812C6.02585 6.8169 6.02017 6.82593 6.01475 6.83496C6.01268 6.83832 6.01088 6.84193 6.00881 6.84529C6.00468 6.85277 6.00055 6.86051 5.99668 6.86826L5.99204 6.87755C5.98713 6.88813 5.98249 6.89871 5.9781 6.90955C5.97707 6.91187 5.97629 6.9142 5.97552 6.91652C5.97216 6.92555 5.96907 6.93459 5.96623 6.94362L5.96313 6.95394C5.96055 6.96323 5.95797 6.97227 5.9559 6.98156C5.95539 6.98388 5.95461 6.98621 5.9541 6.98879C5.95091 7.00319 5.94849 7.01775 5.94687 7.0324C5.94584 7.04144 5.9448 7.05047 5.94403 7.05976L5.94326 7.07086C5.94274 7.08067 5.94248 7.09022 5.94248 7.10002V7.10699C5.94274 7.11861 5.94326 7.13022 5.94429 7.14183C5.94455 7.14571 5.94506 7.14958 5.94558 7.15371C5.9461 7.15835 5.94635 7.163 5.94713 7.16764C5.94764 7.17126 5.94842 7.17487 5.94893 7.17848C5.94971 7.18261 5.95022 7.18674 5.951 7.19087C5.95306 7.20145 5.95513 7.21229 5.95771 7.22262L5.95848 7.22597C5.96158 7.23759 5.96494 7.2492 5.96881 7.26056C5.96984 7.26365 5.97113 7.26701 5.97216 7.27011C5.97552 7.27966 5.97913 7.28895 5.983 7.29824L5.98507 7.3034L10.862 18.5433C10.8948 18.6187 10.9448 18.685 11.0083 18.7371L13.6414 20.8953L13.6429 20.8966C13.654 20.9056 13.6654 20.9141 13.6772 20.9224L13.6816 20.9252C13.692 20.9322 13.7025 20.9387 13.7131 20.9449L13.7263 20.9518C13.7343 20.9562 13.7425 20.9603 13.7508 20.9642C13.756 20.9665 13.7614 20.9689 13.7668 20.9712C13.7745 20.9745 13.782 20.9776 13.7898 20.9805C13.7957 20.9825 13.8016 20.9846 13.8076 20.9864L13.83 20.9934C13.8362 20.9952 13.8427 20.9967 13.8489 20.9983C13.8527 20.9993 13.8566 21.0003 13.8605 21.0011C13.8659 21.0024 13.8713 21.0032 13.8767 21.0042C13.8791 21.0047 13.8811 21.005 13.8835 21.0055C13.8964 21.0076 13.909 21.0094 13.9219 21.0104C13.9242 21.0107 13.9263 21.0107 13.9286 21.0109C13.942 21.012 13.9552 21.0127 13.9686 21.0127C13.9766 21.0127 13.9849 21.0122 13.9929 21.012C13.9955 21.012 13.9981 21.012 14.0006 21.0117C14.0068 21.0112 14.013 21.0107 14.0195 21.0099C14.0241 21.0094 14.0288 21.0091 14.0334 21.0086C14.0388 21.0078 14.0443 21.0068 14.0499 21.006C14.0554 21.0053 14.0605 21.0045 14.0659 21.0034C14.0708 21.0024 14.0757 21.0014 14.0806 21.0001L14.0979 20.9962C14.1026 20.9949 14.1072 20.9936 14.1116 20.9923C14.1176 20.9905 14.1235 20.989 14.1292 20.9872C14.1338 20.9856 14.1382 20.9838 14.1428 20.9823L14.1599 20.9761C14.1648 20.9743 14.1694 20.972 14.1741 20.9699C14.1792 20.9676 14.1847 20.9655 14.1898 20.9629C14.195 20.9606 14.1999 20.9578 14.2048 20.9552C14.2087 20.9531 14.2128 20.9513 14.2169 20.949L14.2187 20.948C14.2293 20.942 14.2399 20.9358 14.2502 20.9291L14.2538 20.9265C14.2626 20.9206 14.2714 20.9147 14.2796 20.9082C14.283 20.9056 14.2861 20.903 14.2892 20.9005C14.2954 20.8956 14.3016 20.8904 14.3075 20.8852C14.3111 20.8821 14.3145 20.879 14.3178 20.8759L14.3341 20.8605C14.3374 20.8571 14.3408 20.8538 14.3439 20.8501C14.3491 20.8447 14.354 20.8393 14.3586 20.8336L14.3682 20.8225ZM16.1702 15.8256L14.3011 18.9392L13.3394 10.9448L16.8709 7.51116L16.1702 15.8256ZM7.55375 8.32545L12.3148 11.0708L13.3025 19.2827L11.7591 18.0178L7.55375 8.32545Z" fill="#33FF7A"/>
<path fill-rule="evenodd" clip-rule="evenodd" d="M10.6638 19.2285C10.663 19.1439 10.6416 19.0608 10.601 18.9867L6.42021 11.2976L6.41815 11.294C6.41092 11.2809 6.40292 11.268 6.3944 11.2553C6.39259 11.2527 6.39079 11.2501 6.38898 11.2478C6.38588 11.2434 6.38279 11.2388 6.37969 11.2344C6.37479 11.2279 6.36962 11.2215 6.36446 11.2153C6.3624 11.213 6.36059 11.2104 6.35853 11.2081C6.35001 11.1983 6.34123 11.1887 6.33194 11.1797C6.32885 11.1766 6.32575 11.1732 6.32239 11.1701C6.31284 11.1611 6.30304 11.1523 6.29271 11.1441C6.2891 11.1412 6.28574 11.1384 6.28213 11.1358C6.27181 11.1278 6.26123 11.1201 6.25039 11.1128C6.24806 11.1113 6.24574 11.1097 6.24316 11.1085C6.23232 11.1017 6.22122 11.0953 6.21012 11.0894L6.20161 11.0847C6.18896 11.0783 6.17631 11.0723 6.16315 11.0672C6.16057 11.0661 6.15773 11.0651 6.15515 11.0641C6.14147 11.0586 6.12753 11.0537 6.11334 11.0496L6.11153 11.0491C6.0976 11.045 6.08366 11.0416 6.06946 11.0388L6.06198 11.0372C6.04804 11.0346 6.0341 11.0326 6.01991 11.031C6.01655 11.0308 6.01294 11.0305 6.00959 11.03C5.99642 11.029 5.983 11.0282 5.96958 11.0282H5.9639L1.51233 11.0395C1.27953 11.0401 1.07616 11.1965 1.01525 11.421L0.0174617 15.1128C0.0143646 15.1241 0.0117837 15.1355 0.00971893 15.1468C0.00894465 15.1504 0.00842847 15.154 0.00791229 15.1577C0.00636374 15.1662 0.00507324 15.1747 0.00404087 15.1832C0.00352468 15.1871 0.00300852 15.191 0.00275043 15.1946C0.00171806 15.2057 0.000685686 15.2168 0.000427594 15.2276L0.000169545 15.2315C-8.85471e-05 15.2426 -8.85904e-05 15.2537 0.000427594 15.2648C0.000427594 15.2684 0.000685698 15.2723 0.00094379 15.2759C0.00145997 15.2844 0.0022342 15.2929 0.00300848 15.3017C0.00326657 15.305 0.00378278 15.3086 0.00404087 15.312C0.00558942 15.3236 0.00713795 15.3352 0.00946078 15.3466L0.0102351 15.3497C0.0122999 15.3603 0.0148808 15.3708 0.0177198 15.3812C0.0187522 15.3845 0.0195264 15.3879 0.0205587 15.3912C0.0231397 15.3997 0.0257206 15.4083 0.0285596 15.4165L0.0316567 15.4258C0.0357862 15.4369 0.0399157 15.4478 0.0448195 15.4583L0.0471423 15.463C0.0512718 15.472 0.0556594 15.481 0.0605631 15.4898C0.0623697 15.4934 0.0644344 15.4968 0.0662411 15.5004C0.0703705 15.5076 0.0745001 15.5146 0.0788876 15.5216L0.0850818 15.5316C0.091276 15.5409 0.0977283 15.5502 0.104697 15.5595C0.106245 15.5616 0.10831 15.5642 0.109859 15.5662C0.115795 15.5737 0.121731 15.5809 0.127925 15.5879C0.130506 15.591 0.133345 15.5938 0.135926 15.5969C0.141862 15.6036 0.148314 15.6098 0.154509 15.6163C0.165363 15.627 0.176733 15.6372 0.188577 15.6467L0.190125 15.648L7.22985 21.3808C7.31011 21.4461 7.40793 21.4858 7.51091 21.4949L10.1207 21.7227C10.1352 21.724 10.1496 21.7246 10.1641 21.7246H10.1669C10.1809 21.7246 10.1945 21.7238 10.2085 21.7227C10.2129 21.7225 10.217 21.722 10.2214 21.7215C10.2317 21.7204 10.242 21.7189 10.2524 21.7171L10.2653 21.7147C10.2784 21.7122 10.2916 21.7091 10.3045 21.7057L10.3071 21.7049C10.321 21.7011 10.335 21.6962 10.3484 21.691L10.3525 21.6897C10.3556 21.6884 10.3584 21.6871 10.3613 21.6858C10.3685 21.683 10.3755 21.6799 10.3824 21.6768C10.3873 21.6745 10.392 21.6722 10.3969 21.6698C10.4033 21.6667 10.4095 21.6634 10.4157 21.6598C10.4206 21.6569 10.4255 21.6544 10.4304 21.6515C10.4364 21.6479 10.4421 21.6443 10.4477 21.6407C10.4524 21.6376 10.4573 21.6345 10.4619 21.6314C10.4676 21.6273 10.4733 21.6231 10.479 21.6187C10.4834 21.6154 10.4875 21.6123 10.4916 21.6089C10.4978 21.604 10.5037 21.5986 10.5094 21.5934C10.5128 21.5906 10.5161 21.5878 10.5195 21.5847C10.5283 21.5764 10.5365 21.5682 10.5448 21.5594L10.5456 21.5586C10.5541 21.5493 10.5623 21.5398 10.5701 21.53C10.5716 21.5279 10.5732 21.5256 10.575 21.5235C10.5809 21.5158 10.5869 21.508 10.5923 21.5C10.5949 21.4964 10.5972 21.4923 10.5995 21.4887C10.6039 21.4819 10.608 21.4755 10.6121 21.4685C10.615 21.4639 10.6173 21.459 10.6199 21.4541C10.6225 21.4492 10.6253 21.4445 10.6279 21.4396L10.6297 21.4357C10.6328 21.4293 10.6356 21.4228 10.6385 21.4164C10.6408 21.411 10.6434 21.4056 10.6457 21.4001C10.6483 21.3939 10.6503 21.3875 10.6527 21.381C10.6547 21.3751 10.6568 21.3694 10.6589 21.3635C10.6607 21.3573 10.6625 21.3511 10.664 21.3449C10.6658 21.3387 10.6676 21.3323 10.6689 21.3261C10.6702 21.3201 10.6715 21.3142 10.6725 21.308C10.6738 21.3013 10.6754 21.2946 10.6764 21.2876C10.6772 21.2819 10.678 21.276 10.6785 21.2703C10.6792 21.2631 10.6803 21.2561 10.6808 21.2489C10.6813 21.2432 10.6813 21.2375 10.6816 21.2319L10.6823 21.2097C10.6823 21.2097 10.6826 21.206 10.6826 21.204L10.6638 19.2285ZM9.63681 19.8438L5.44204 15.1584L6.10973 12.888L9.63268 19.3666L9.63681 19.8438ZM1.90954 12.0709L5.27635 12.0624L4.48065 14.7687L1.18843 14.7377L1.90954 12.0709ZM1.98412 15.7773L4.63292 15.8024L8.91028 20.5804L7.75816 20.4798L1.98412 15.7773Z" fill="#33FF7A"/>
<path fill-rule="evenodd" clip-rule="evenodd" d="M23.8889 16.1451C23.8964 16.1358 23.9036 16.126 23.9103 16.1162C23.9116 16.1141 23.9129 16.1121 23.9145 16.11C23.9196 16.102 23.9248 16.094 23.9297 16.0858L23.9359 16.0749C23.9374 16.0723 23.939 16.0698 23.9403 16.0672C23.9431 16.062 23.9454 16.0566 23.948 16.0512C23.9496 16.0483 23.9509 16.0452 23.9524 16.0424C23.9573 16.0318 23.9617 16.0212 23.9658 16.0104C23.9671 16.0073 23.9682 16.0042 23.9692 16.0008C23.9723 15.9926 23.9751 15.9841 23.9777 15.9756L23.9808 15.965C23.9836 15.9546 23.9862 15.9443 23.9885 15.934L23.9893 15.9304C23.9916 15.9188 23.9937 15.9072 23.9953 15.8955C23.9958 15.8922 23.996 15.8888 23.9965 15.8855C23.9976 15.8764 23.9983 15.8677 23.9989 15.8586C23.9991 15.8553 23.9994 15.8519 23.9994 15.8486C23.9999 15.837 24.0002 15.8251 23.9999 15.8135C23.9999 15.8114 23.9996 15.8091 23.9996 15.807C23.9994 15.7972 23.9986 15.7877 23.9978 15.7779C23.9976 15.774 23.9971 15.7701 23.9965 15.766C23.9955 15.7572 23.9942 15.7484 23.9927 15.7394C23.9922 15.7363 23.9916 15.7332 23.9911 15.7298C23.9891 15.7185 23.9865 15.7071 23.9836 15.696C23.9829 15.6927 23.9818 15.6893 23.9808 15.6857C23.9785 15.6772 23.9759 15.6687 23.9731 15.6604C23.9718 15.6568 23.9707 15.6532 23.9692 15.6496C23.9651 15.6382 23.9609 15.6271 23.956 15.6163L22.8509 13.1198C22.7623 12.9197 22.5574 12.7974 22.3391 12.8139L19.7393 13.0147C19.7354 13.015 19.7311 13.0155 19.7269 13.016C19.7197 13.0168 19.7125 13.0176 19.7052 13.0186C19.7003 13.0194 19.6954 13.0201 19.6905 13.0212C19.6843 13.0222 19.6781 13.0235 19.6717 13.0248C19.6668 13.0258 19.6619 13.0269 19.657 13.0281C19.6508 13.0297 19.6443 13.0315 19.6381 13.033L19.6247 13.0369C19.617 13.0392 19.6095 13.0421 19.602 13.0447C19.5992 13.0457 19.5961 13.0467 19.5932 13.0478C19.5832 13.0516 19.5731 13.056 19.5633 13.0604C19.5599 13.062 19.5566 13.0638 19.553 13.0653C19.5463 13.0687 19.5398 13.0718 19.5331 13.0754C19.5292 13.0774 19.5256 13.0795 19.5217 13.0818C19.5155 13.0854 19.5096 13.0891 19.5037 13.0927L19.4928 13.0996C19.4864 13.1038 19.4804 13.1082 19.4743 13.1128C19.4714 13.1149 19.4683 13.1169 19.4655 13.1192C19.4567 13.126 19.4482 13.1329 19.4399 13.1402C19.4381 13.1417 19.4366 13.1433 19.4348 13.1448C19.4281 13.1507 19.4216 13.1567 19.4154 13.1631C19.4126 13.166 19.4097 13.1691 19.4069 13.1719C19.4017 13.1771 19.3968 13.1825 19.3919 13.1879C19.3891 13.1913 19.3862 13.1944 19.3834 13.1977C19.3785 13.2034 19.3739 13.2093 19.3695 13.2153C19.3671 13.2184 19.3646 13.2215 19.3622 13.2248C19.3566 13.2328 19.3509 13.2408 19.3455 13.2491L19.3429 13.2529C19.3367 13.2625 19.3308 13.2731 19.3253 13.2831L19.324 13.2852L16.062 19.3486C16.0207 19.4252 15.9996 19.5109 16.0003 19.5981L16.0166 21.3095C16.0166 21.316 16.0171 21.3224 16.0176 21.3292C16.0179 21.3356 16.0179 21.3421 16.0187 21.3485C16.0194 21.3565 16.0205 21.3643 16.0215 21.372C16.0223 21.3774 16.0225 21.3828 16.0236 21.3883C16.0254 21.3999 16.0279 21.4115 16.0305 21.4228C16.031 21.4252 16.0316 21.4277 16.0323 21.4301C16.0354 21.4422 16.0388 21.4541 16.0427 21.4659C16.044 21.4703 16.0458 21.4745 16.0473 21.4786C16.0504 21.4869 16.0532 21.4954 16.0566 21.5034C16.0587 21.508 16.061 21.5127 16.063 21.5173C16.0664 21.5248 16.07 21.5325 16.0736 21.5398C16.076 21.5444 16.0788 21.5491 16.0814 21.5537C16.0852 21.5609 16.0894 21.5679 16.0935 21.5751L16.0961 21.5798C16.0992 21.5847 16.1025 21.5893 16.1059 21.5942C16.1082 21.5976 16.1105 21.6012 16.1129 21.6045C16.1193 21.6136 16.1258 21.6221 16.1327 21.6306L16.1348 21.6332C16.1425 21.6427 16.1508 21.6518 16.1591 21.6605C16.1609 21.6626 16.1629 21.6644 16.165 21.6665C16.1714 21.6732 16.1782 21.6796 16.1849 21.6858C16.1877 21.6884 16.1908 21.6913 16.1939 21.6938C16.2001 21.6993 16.2063 21.7044 16.2125 21.7093C16.2158 21.7122 16.2195 21.7147 16.2228 21.7173C16.2293 21.7222 16.2357 21.7266 16.2422 21.7313C16.2458 21.7336 16.2491 21.7362 16.2527 21.7385C16.2607 21.7437 16.2687 21.7483 16.2768 21.7529C16.2791 21.7542 16.2814 21.7558 16.2837 21.7571C16.2943 21.7628 16.3051 21.7682 16.316 21.7733C16.3191 21.7746 16.3222 21.7759 16.3253 21.7775C16.3335 21.7811 16.3418 21.7844 16.35 21.7875L16.355 21.7896C16.357 21.7904 16.3609 21.7914 16.3609 21.7914C16.3715 21.795 16.3821 21.7986 16.3929 21.8015L16.4009 21.8038C16.4138 21.8071 16.4267 21.81 16.4399 21.8126L16.4497 21.8141C16.46 21.8157 16.4703 21.8172 16.4809 21.8182C16.4848 21.8185 16.4884 21.819 16.4923 21.8193C16.5057 21.8203 16.5188 21.8211 16.5323 21.8211H16.5348C16.5441 21.8211 16.5537 21.8208 16.563 21.82L16.5738 21.8193C16.5805 21.8188 16.5875 21.818 16.5942 21.8172L16.6058 21.8157C16.6128 21.8146 16.6195 21.8136 16.6265 21.8123C16.6301 21.8115 16.6334 21.811 16.637 21.8102C16.6463 21.8084 16.6556 21.8061 16.6647 21.8038L16.6672 21.8033L19.0706 21.1521C19.1627 21.1271 19.2461 21.0773 19.3114 21.0078L23.859 16.1797C23.859 16.1797 23.8616 16.1769 23.8629 16.1753C23.8696 16.1681 23.876 16.1606 23.8825 16.1529C23.885 16.15 23.8871 16.1474 23.8889 16.1451ZM22.7466 15.4346L21.172 15.7203L20.5089 13.9911L22.0547 13.8718L22.7466 15.4346ZM19.7003 14.7656L20.2509 16.2014L17.0363 19.9303L17.0343 19.7207L19.7003 14.7656ZM18.6605 20.1933L18.0235 20.366L21.1149 16.7798L22.0325 16.6133L18.6605 20.1933Z" fill="#33FF7A"/>
<path d="M9.9522 2.81208L10.5998 2.1542C10.6791 2.07348 10.7828 2.0211 10.8949 2.00515C11.007 1.9892 11.1212 2.01056 11.2199 2.06594L17.7536 5.72775L17.7556 5.72904C17.7585 5.73059 17.761 5.73239 17.7636 5.73394C17.7714 5.73859 17.7788 5.74323 17.7863 5.74814C17.7899 5.75046 17.7936 5.75304 17.7969 5.75536C17.8036 5.76001 17.8103 5.76491 17.8168 5.76982C17.8199 5.77214 17.8227 5.77446 17.8258 5.77679C17.8349 5.78401 17.8434 5.7915 17.8519 5.79924C17.8534 5.80079 17.855 5.80259 17.8568 5.80414C17.8635 5.81085 17.8702 5.81731 17.8767 5.82427C17.8792 5.82711 17.8821 5.82995 17.8847 5.83305C17.8901 5.83899 17.8952 5.84518 17.9004 5.85137C17.9027 5.85447 17.9053 5.85731 17.9076 5.86041C17.9141 5.86867 17.9203 5.87693 17.9262 5.88544L17.9283 5.88854C17.935 5.89809 17.9409 5.9079 17.9469 5.91796C17.9484 5.92106 17.9502 5.9239 17.9518 5.92699C17.9559 5.93448 17.9598 5.94196 17.9636 5.94945C17.9652 5.9528 17.967 5.95642 17.9685 5.95977C17.9722 5.96777 17.9758 5.97577 17.9791 5.98403C17.9802 5.98661 17.9814 5.9892 17.9825 5.99203C17.9866 6.00287 17.9905 6.01371 17.9938 6.02481C17.9949 6.02791 17.9956 6.03101 17.9964 6.0341C18.0001 6.04643 18.0033 6.05892 18.006 6.07153C18.0078 6.07901 18.0091 6.08675 18.0104 6.0945C18.0111 6.09863 18.0119 6.10276 18.0124 6.10688L18.0132 6.11127C18.0145 6.12108 18.0155 6.13115 18.0163 6.14095L18.0165 6.14482C18.0173 6.15566 18.0176 6.16676 18.0176 6.1776C18.0176 6.18122 18.0173 6.18483 18.0173 6.18844C18.0171 6.19748 18.0168 6.20651 18.016 6.21554C18.016 6.21787 18.016 6.21993 18.0158 6.22199L17.1891 16.0321C17.1827 16.1108 17.1579 16.1869 17.1174 16.2545L14.4113 20.7621L14.4102 20.7637C14.4082 20.767 14.4058 20.7704 14.4038 20.7737C14.3994 20.7805 14.395 20.7872 14.3904 20.7939C14.3875 20.7975 14.3849 20.8011 14.3821 20.8047L14.3682 20.8225L14.3586 20.8336C14.354 20.8393 14.3491 20.8447 14.3439 20.8501C14.3408 20.8538 14.3374 20.8571 14.3341 20.8605L14.3178 20.8759C14.3145 20.879 14.3111 20.8821 14.3075 20.8852C14.3016 20.8904 14.2954 20.8956 14.2892 20.9005C14.2861 20.903 14.283 20.9056 14.2796 20.9082C14.2714 20.9147 14.2626 20.9206 14.2538 20.9265L14.2502 20.9291C14.2399 20.9358 14.2293 20.942 14.2187 20.948L14.2169 20.949C14.2128 20.9513 14.2087 20.9531 14.2048 20.9552C14.1999 20.9578 14.195 20.9606 14.1898 20.9629C14.1847 20.9655 14.1792 20.9676 14.1741 20.9699C14.1694 20.972 14.1648 20.9743 14.1599 20.9761L14.1428 20.9823C14.1382 20.9838 14.1338 20.9856 14.1292 20.9872C14.1235 20.989 14.1176 20.9905 14.1116 20.9923C14.1072 20.9936 14.1026 20.9949 14.0979 20.9962L14.0806 21.0001C14.0757 21.0014 14.0708 21.0024 14.0659 21.0034C14.0605 21.0045 14.0554 21.0053 14.0499 21.006C14.0443 21.0068 14.0388 21.0078 14.0334 21.0086C14.0288 21.0091 14.0241 21.0094 14.0195 21.0099C14.013 21.0107 14.0068 21.0112 14.0006 21.0117C13.9981 21.012 13.9955 21.012 13.9929 21.012C13.9849 21.0122 13.9766 21.0127 13.9686 21.0127C13.9552 21.0127 13.942 21.012 13.9286 21.0109C13.9263 21.0107 13.9242 21.0107 13.9219 21.0104C13.909 21.0094 13.8964 21.0076 13.8835 21.0055C13.8811 21.005 13.8791 21.0047 13.8767 21.0042C13.8713 21.0032 13.8659 21.0024 13.8605 21.0011C13.8566 21.0003 13.8527 20.9993 13.8489 20.9983C13.8427 20.9967 13.8362 20.9952 13.83 20.9934L13.8076 20.9864C13.8016 20.9846 13.7957 20.9825 13.7898 20.9805C13.782 20.9776 13.7745 20.9745 13.7668 20.9712C13.7614 20.9689 13.756 20.9665 13.7508 20.9642C13.7425 20.9603 13.7343 20.9562 13.7263 20.9518L13.7131 20.9449C13.7025 20.9387 13.692 20.9322 13.6816 20.9252L13.6772 20.9224C13.6654 20.9141 13.654 20.9056 13.6429 20.8966L13.6414 20.8953L11.0083 18.7371C10.9448 18.685 10.8948 18.6187 10.862 18.5433L5.98507 7.3034L5.983 7.29824C5.97913 7.28895 5.97552 7.27966 5.97216 7.27011C5.97113 7.26701 5.96984 7.26365 5.96881 7.26056C5.96494 7.2492 5.96158 7.23759 5.95848 7.22597L5.95771 7.22262C5.95513 7.21229 5.95306 7.20145 5.951 7.19087C5.95022 7.18674 5.94971 7.18261 5.94893 7.17848C5.94842 7.17487 5.94764 7.17126 5.94713 7.16764C5.94635 7.163 5.9461 7.15835 5.94558 7.15371C5.94506 7.14958 5.94455 7.14571 5.94429 7.14183C5.94326 7.13022 5.94274 7.11861 5.94248 7.10699V7.10002C5.94248 7.09022 5.94274 7.08067 5.94326 7.07086L5.94403 7.05976C5.9448 7.05047 5.94584 7.04144 5.94687 7.0324C5.94849 7.01775 5.95091 7.00319 5.9541 6.98879C5.95461 6.98621 5.95539 6.98388 5.9559 6.98156C5.95797 6.97227 5.96055 6.96323 5.96313 6.95394L5.96623 6.94362C5.96907 6.93459 5.97216 6.92555 5.97552 6.91652C5.97629 6.9142 5.97707 6.91187 5.9781 6.90955C5.98249 6.89871 5.98713 6.88813 5.99204 6.87755L5.99668 6.86826C6.00055 6.86051 6.00468 6.85277 6.00881 6.84529C6.01088 6.84193 6.01268 6.83832 6.01475 6.83496C6.02017 6.82593 6.02585 6.8169 6.03178 6.80812L6.03436 6.80425C6.04082 6.7947 6.04804 6.78541 6.05527 6.77638C6.05759 6.77328 6.06017 6.77044 6.0625 6.7676C6.06843 6.76063 6.07437 6.75392 6.08056 6.74721C6.08288 6.74463 6.08521 6.74205 6.08753 6.73973L6.09063 6.73637L9.9522 2.81208ZM9.9522 2.81208C9.75218 3.0152 10.2966 3.30024 10.5 3.5C10.7031 3.70002 10.488 3.73941 10.688 3.53603M9.9522 2.81208C10.152 2.6087 10.2969 2.79998 10.5 3C10.7034 3.19976 10.888 3.33291 10.688 3.53603M10.688 3.53603L11.0592 3.15896L16.6456 6.29039L12.7164 10.1107L7.29463 6.9844L10.688 3.53603ZM16.1702 15.8256L14.3011 18.9392L13.3394 10.9448L16.8709 7.51116L16.1702 15.8256ZM7.55375 8.32545L11.7591 18.0178L13.3025 19.2827L12.3148 11.0708L7.55375 8.32545ZM10.6638 19.2285C10.663 19.1439 10.6416 19.0608 10.601 18.9867L6.42021 11.2976L6.41815 11.294C6.41092 11.2809 6.40292 11.268 6.3944 11.2553C6.39259 11.2527 6.39079 11.2501 6.38898 11.2478C6.38588 11.2434 6.38279 11.2388 6.37969 11.2344C6.37479 11.2279 6.36962 11.2215 6.36446 11.2153C6.3624 11.213 6.36059 11.2104 6.35853 11.2081C6.35001 11.1983 6.34123 11.1887 6.33194 11.1797C6.32885 11.1766 6.32575 11.1732 6.32239 11.1701C6.31284 11.1611 6.30304 11.1523 6.29271 11.1441C6.2891 11.1412 6.28574 11.1384 6.28213 11.1358C6.27181 11.1278 6.26123 11.1201 6.25039 11.1128C6.24806 11.1113 6.24574 11.1097 6.24316 11.1085C6.23232 11.1017 6.22122 11.0953 6.21012 11.0894L6.20161 11.0847C6.18896 11.0783 6.17631 11.0723 6.16315 11.0672C6.16057 11.0661 6.15773 11.0651 6.15515 11.0641C6.14147 11.0586 6.12753 11.0537 6.11334 11.0496L6.11153 11.0491C6.0976 11.045 6.08366 11.0416 6.06946 11.0388L6.06198 11.0372C6.04804 11.0346 6.0341 11.0326 6.01991 11.031C6.01655 11.0308 6.01294 11.0305 6.00959 11.03C5.99642 11.029 5.983 11.0282 5.96958 11.0282H5.9639L1.51233 11.0395C1.27953 11.0401 1.07616 11.1965 1.01525 11.421L0.0174617 15.1128C0.0143646 15.1241 0.0117837 15.1355 0.00971893 15.1468C0.00894465 15.1504 0.00842847 15.154 0.00791229 15.1577C0.00636374 15.1662 0.00507324 15.1747 0.00404087 15.1832C0.00352468 15.1871 0.00300852 15.191 0.00275043 15.1946C0.00171806 15.2057 0.000685686 15.2168 0.000427594 15.2276L0.000169545 15.2315C-8.85471e-05 15.2426 -8.85904e-05 15.2537 0.000427594 15.2648C0.000427594 15.2684 0.000685698 15.2723 0.00094379 15.2759C0.00145997 15.2844 0.0022342 15.2929 0.00300848 15.3017C0.00326657 15.305 0.00378278 15.3086 0.00404087 15.312C0.00558942 15.3236 0.00713795 15.3352 0.00946078 15.3466L0.0102351 15.3497C0.0122999 15.3603 0.0148808 15.3708 0.0177198 15.3812C0.0187522 15.3845 0.0195264 15.3879 0.0205587 15.3912C0.0231397 15.3997 0.0257206 15.4083 0.0285596 15.4165L0.0316567 15.4258C0.0357862 15.4369 0.0399157 15.4478 0.0448195 15.4583L0.0471423 15.463C0.0512718 15.472 0.0556594 15.481 0.0605631 15.4898C0.0623697 15.4934 0.0644344 15.4968 0.0662411 15.5004C0.0703705 15.5076 0.0745001 15.5146 0.0788876 15.5216L0.0850818 15.5316C0.091276 15.5409 0.0977284 15.5502 0.104697 15.5595C0.106245 15.5616 0.10831 15.5642 0.109859 15.5662C0.115795 15.5737 0.121731 15.5809 0.127925 15.5879C0.130506 15.591 0.133345 15.5938 0.135926 15.5969C0.141862 15.6036 0.148314 15.6098 0.154509 15.6163C0.165363 15.627 0.176733 15.6372 0.188577 15.6467L0.190125 15.648L7.22985 21.3808C7.31011 21.4461 7.40793 21.4858 7.51091 21.4949L10.1207 21.7227C10.1352 21.724 10.1496 21.7246 10.1641 21.7246H10.1669C10.1809 21.7246 10.1945 21.7238 10.2085 21.7227C10.2129 21.7225 10.217 21.722 10.2214 21.7215C10.2317 21.7204 10.242 21.7189 10.2524 21.7171L10.2653 21.7147C10.2784 21.7122 10.2916 21.7091 10.3045 21.7057L10.3071 21.7049C10.321 21.7011 10.335 21.6962 10.3484 21.691L10.3525 21.6897C10.3556 21.6884 10.3584 21.6871 10.3613 21.6858C10.3685 21.683 10.3755 21.6799 10.3824 21.6768C10.3873 21.6745 10.392 21.6722 10.3969 21.6698C10.4033 21.6667 10.4095 21.6634 10.4157 21.6598C10.4206 21.6569 10.4255 21.6544 10.4304 21.6515C10.4364 21.6479 10.4421 21.6443 10.4477 21.6407C10.4524 21.6376 10.4573 21.6345 10.4619 21.6314C10.4676 21.6273 10.4733 21.6231 10.479 21.6187C10.4834 21.6154 10.4875 21.6123 10.4916 21.6089C10.4978 21.604 10.5037 21.5986 10.5094 21.5934C10.5128 21.5906 10.5161 21.5878 10.5195 21.5847C10.5283 21.5764 10.5365 21.5682 10.5448 21.5594L10.5456 21.5586C10.5541 21.5493 10.5623 21.5398 10.5701 21.53C10.5716 21.5279 10.5732 21.5256 10.575 21.5235C10.5809 21.5158 10.5868 21.508 10.5923 21.5C10.5949 21.4964 10.5972 21.4923 10.5995 21.4887C10.6039 21.4819 10.608 21.4755 10.6121 21.4685C10.615 21.4639 10.6173 21.459 10.6199 21.4541C10.6225 21.4492 10.6253 21.4445 10.6279 21.4396L10.6297 21.4357C10.6328 21.4293 10.6356 21.4228 10.6385 21.4164C10.6408 21.411 10.6434 21.4056 10.6457 21.4001C10.6483 21.3939 10.6503 21.3875 10.6527 21.381C10.6547 21.3751 10.6568 21.3694 10.6589 21.3635C10.6607 21.3573 10.6625 21.3511 10.664 21.3449C10.6658 21.3387 10.6676 21.3323 10.6689 21.3261C10.6702 21.3201 10.6715 21.3142 10.6725 21.308C10.6738 21.3013 10.6754 21.2946 10.6764 21.2876C10.6772 21.2819 10.678 21.276 10.6785 21.2703C10.6792 21.2631 10.6803 21.2561 10.6808 21.2489C10.6813 21.2432 10.6813 21.2375 10.6816 21.2319L10.6823 21.2097C10.6823 21.2097 10.6826 21.206 10.6826 21.204L10.6638 19.2285ZM9.63681 19.8438L9.63268 19.3666L6.10973 12.888L5.44204 15.1584L9.63681 19.8438ZM1.90954 12.0709L5.27635 12.0624L4.48065 14.7687L1.18843 14.7377L1.90954 12.0709ZM1.98412 15.7773L7.75816 20.4798L8.91028 20.5804L4.63292 15.8024L1.98412 15.7773ZM23.8889 16.1451C23.8964 16.1358 23.9036 16.126 23.9103 16.1162C23.9116 16.1141 23.9129 16.1121 23.9145 16.11C23.9196 16.102 23.9248 16.094 23.9297 16.0858L23.9359 16.0749C23.9374 16.0723 23.939 16.0698 23.9403 16.0672C23.9431 16.062 23.9454 16.0566 23.948 16.0512C23.9496 16.0483 23.9509 16.0452 23.9524 16.0424C23.9573 16.0318 23.9617 16.0212 23.9658 16.0104C23.9671 16.0073 23.9682 16.0042 23.9692 16.0008C23.9723 15.9926 23.9751 15.9841 23.9777 15.9756L23.9808 15.965C23.9836 15.9546 23.9862 15.9443 23.9885 15.934L23.9893 15.9304C23.9916 15.9188 23.9937 15.9072 23.9953 15.8955C23.9958 15.8922 23.996 15.8888 23.9965 15.8855C23.9976 15.8764 23.9983 15.8677 23.9989 15.8586C23.9991 15.8553 23.9994 15.8519 23.9994 15.8486C23.9999 15.837 24.0002 15.8251 23.9999 15.8135C23.9999 15.8114 23.9996 15.8091 23.9996 15.807C23.9994 15.7972 23.9986 15.7877 23.9978 15.7779C23.9976 15.774 23.9971 15.7701 23.9965 15.766C23.9955 15.7572 23.9942 15.7484 23.9927 15.7394C23.9922 15.7363 23.9916 15.7332 23.9911 15.7298C23.9891 15.7185 23.9865 15.7071 23.9836 15.696C23.9829 15.6927 23.9818 15.6893 23.9808 15.6857C23.9785 15.6772 23.9759 15.6687 23.9731 15.6604C23.9718 15.6568 23.9707 15.6532 23.9692 15.6496C23.9651 15.6382 23.9609 15.6271 23.956 15.6163L22.8509 13.1198C22.7623 12.9197 22.5574 12.7974 22.3391 12.8139L19.7393 13.0147C19.7354 13.015 19.7311 13.0155 19.7269 13.016C19.7197 13.0168 19.7125 13.0176 19.7052 13.0186C19.7003 13.0194 19.6954 13.0201 19.6905 13.0212C19.6843 13.0222 19.6781 13.0235 19.6717 13.0248C19.6668 13.0258 19.6619 13.0269 19.657 13.0281C19.6508 13.0297 19.6443 13.0315 19.6381 13.033L19.6247 13.0369C19.617 13.0392 19.6095 13.0421 19.602 13.0447C19.5992 13.0457 19.5961 13.0467 19.5932 13.0478C19.5832 13.0516 19.5731 13.056 19.5633 13.0604C19.5599 13.062 19.5566 13.0638 19.553 13.0653C19.5463 13.0687 19.5398 13.0718 19.5331 13.0754C19.5292 13.0774 19.5256 13.0795 19.5217 13.0818C19.5155 13.0854 19.5096 13.0891 19.5037 13.0927L19.4928 13.0996C19.4864 13.1038 19.4804 13.1082 19.4743 13.1128C19.4714 13.1149 19.4683 13.1169 19.4655 13.1192C19.4567 13.126 19.4482 13.1329 19.4399 13.1402C19.4381 13.1417 19.4366 13.1433 19.4348 13.1448C19.4281 13.1507 19.4216 13.1567 19.4154 13.1631C19.4126 13.166 19.4097 13.1691 19.4069 13.1719C19.4017 13.1771 19.3968 13.1825 19.3919 13.1879C19.3891 13.1913 19.3862 13.1944 19.3834 13.1977C19.3785 13.2034 19.3739 13.2093 19.3695 13.2153C19.3671 13.2184 19.3646 13.2215 19.3622 13.2248C19.3566 13.2328 19.3509 13.2408 19.3455 13.2491L19.3429 13.2529C19.3367 13.2625 19.3308 13.2731 19.3253 13.2831L19.324 13.2852L16.062 19.3486C16.0207 19.4252 15.9996 19.5109 16.0003 19.5981L16.0166 21.3095C16.0166 21.316 16.0171 21.3224 16.0176 21.3292C16.0179 21.3356 16.0179 21.3421 16.0187 21.3485C16.0194 21.3565 16.0205 21.3643 16.0215 21.372C16.0223 21.3774 16.0225 21.3828 16.0236 21.3883C16.0254 21.3999 16.0279 21.4115 16.0305 21.4228C16.031 21.4252 16.0316 21.4277 16.0323 21.4301C16.0354 21.4422 16.0388 21.4541 16.0427 21.4659C16.044 21.4703 16.0458 21.4745 16.0473 21.4786C16.0504 21.4869 16.0532 21.4954 16.0566 21.5034C16.0587 21.508 16.061 21.5127 16.063 21.5173C16.0664 21.5248 16.07 21.5325 16.0736 21.5398C16.076 21.5444 16.0788 21.5491 16.0814 21.5537C16.0852 21.5609 16.0894 21.5679 16.0935 21.5751L16.0961 21.5798C16.0992 21.5847 16.1025 21.5893 16.1059 21.5942C16.1082 21.5976 16.1105 21.6012 16.1129 21.6045C16.1193 21.6136 16.1258 21.6221 16.1327 21.6306L16.1348 21.6332C16.1425 21.6427 16.1508 21.6518 16.1591 21.6605C16.1609 21.6626 16.1629 21.6644 16.165 21.6665C16.1714 21.6732 16.1782 21.6796 16.1849 21.6858C16.1877 21.6884 16.1908 21.6913 16.1939 21.6938C16.2001 21.6993 16.2063 21.7044 16.2125 21.7093C16.2158 21.7122 16.2195 21.7147 16.2228 21.7173C16.2293 21.7222 16.2357 21.7266 16.2422 21.7313C16.2458 21.7336 16.2491 21.7362 16.2527 21.7385C16.2607 21.7437 16.2687 21.7483 16.2768 21.7529C16.2791 21.7542 16.2814 21.7558 16.2837 21.7571C16.2943 21.7628 16.3051 21.7682 16.316 21.7733C16.3191 21.7746 16.3222 21.7759 16.3253 21.7775C16.3335 21.7811 16.3418 21.7844 16.35 21.7875L16.355 21.7896C16.357 21.7904 16.3609 21.7914 16.3609 21.7914C16.3715 21.795 16.3821 21.7986 16.3929 21.8015L16.4009 21.8038C16.4138 21.8071 16.4267 21.81 16.4399 21.8126L16.4497 21.8141C16.46 21.8157 16.4703 21.8172 16.4809 21.8182C16.4848 21.8185 16.4884 21.819 16.4923 21.8193C16.5057 21.8203 16.5188 21.8211 16.5323 21.8211H16.5348C16.5441 21.8211 16.5537 21.8208 16.563 21.82L16.5738 21.8193C16.5805 21.8188 16.5875 21.818 16.5942 21.8172L16.6058 21.8157C16.6128 21.8146 16.6195 21.8136 16.6265 21.8123C16.6301 21.8115 16.6334 21.811 16.637 21.8102C16.6463 21.8084 16.6556 21.8061 16.6647 21.8038L16.6672 21.8033L19.0706 21.1521C19.1627 21.1271 19.2461 21.0773 19.3114 21.0078L23.859 16.1797C23.859 16.1797 23.8616 16.1769 23.8629 16.1753C23.8696 16.1681 23.876 16.1606 23.8825 16.1529C23.885 16.15 23.8871 16.1474 23.8889 16.1451ZM22.7466 15.4346L21.172 15.7203L20.5089 13.9911L22.0547 13.8718L22.7466 15.4346ZM19.7003 14.7656L20.2509 16.2014L17.0363 19.9303L17.0343 19.7207L19.7003 14.7656ZM18.6605 20.1933L18.0235 20.366L21.1149 16.7798L22.0325 16.6133L18.6605 20.1933Z" stroke="#33FF7A" stroke-width="0.5"/>
</g>
<defs>
<clipPath id="clip0">
<rect width="24" height="24" fill="white"/>
</clipPath>
</defs>
</svg>
