<svg width="33" height="34" viewBox="0 0 33 34" fill="none" xmlns="http://www.w3.org/2000/svg">
<path d="M13.017 23.8013L15.584 26.4413L24.7504 17L15.584 7.55624L13.017 10.199L17.7837 15.1073H0V18.8899H17.7837L13.017 23.8013ZM29.3342 0H3.66863C1.6514 0 4.792e-05 1.69862 4.792e-05 3.77412V11.3332H3.66863V3.77412H29.3342V30.223H3.66863V22.6668H4.792e-05V30.223C4.792e-05 32.3009 1.65145 34 3.66863 34H29.3342C31.3486 34 33 32.3009 33 30.223V3.77412C33 1.69862 31.3486 0 29.3342 0Z" fill="#FFBA0B"/>
</svg>
