<svg width="36" height="36" viewBox="0 0 36 36" fill="none" xmlns="http://www.w3.org/2000/svg">
<path d="M18 0C22.7739 0 27.3523 1.89642 30.7279 5.27208C34.1036 8.64773 36 13.2261 36 18C36 22.7739 34.1036 27.3523 30.7279 30.7279C27.3523 34.1036 22.7739 36 18 36C13.2261 36 8.64773 34.1036 5.27208 30.7279C1.89642 27.3523 0 22.7739 0 18C0 13.2261 1.89642 8.64773 5.27208 5.27208C8.64773 1.89642 13.2261 0 18 0V0ZM4.59675 14.3955C4.43025 14.562 4.43025 14.562 4.59675 14.724C4.1535 15.4418 3.20175 15.5295 2.52 15.0975C2.13134 17.1727 2.16375 19.3049 2.61532 21.3673C3.06689 23.4298 3.9284 25.3804 5.14867 27.1033C6.36894 28.8263 7.92307 30.2864 9.71872 31.3969C11.5144 32.5074 13.5149 33.2456 15.6015 33.5677L15.588 33.5565L15.318 33.4215C15.8243 33.2595 16.4947 33.2595 16.9942 33.2595C16.8277 32.274 16.8278 31.4572 16.8278 30.4695C16.8278 30.4695 12.9757 27.684 12.9757 26.0415C12.9757 24.399 13.4775 23.5823 12.9757 23.5823C12.1365 23.5823 11.1308 24.2393 10.9643 23.5823C10.629 22.5968 9.9585 21.7778 8.95275 21.4515C6.6465 21.4515 6.31575 18.9675 6.27525 16.407L6.273 15.7095C6.273 14.886 5.26725 14.886 4.59675 14.3955ZM18.9518 2.27925L19.1453 2.331C21.6967 3.1095 21.771 5.6835 19.6763 5.3685C19.6763 6.18525 19.6762 7.1685 19.5097 8.154C19.341 9.7965 17.3295 9.306 16.8278 10.125C16.3283 10.9462 17.8335 11.7653 19.5097 11.4368C20.0115 11.4368 19.5098 10.9417 19.8472 10.7797C20.5155 10.6178 21.3525 10.6178 22.023 10.7797C21.3404 12.2551 20.5562 13.6812 19.6763 15.048C19.3387 15.5385 19.6763 16.524 19.6763 17.1788C19.6763 22.104 17.3295 16.0312 16.9942 16.1955C16.659 16.524 15.1537 15.867 14.4832 15.867C13.8127 15.867 14.1457 17.1788 13.4775 17.1788C12.1365 17.1788 12.4718 16.8503 12.4718 17.3407C12.4718 17.9977 12.636 19.3118 12.636 21.2805C12.636 21.9375 13.977 21.1185 14.814 21.1185C15.8197 21.1185 16.4902 21.9375 17.1607 22.266C18.3307 22.761 19.5053 24.4013 20.3423 24.561C21.1793 24.7298 20.5087 26.0392 21.5122 25.875C22.014 25.713 22.6845 26.0415 23.0198 26.532C23.5238 27.189 23.1885 28.0125 22.518 28.503C21.5145 29.4862 21.1792 30.6337 20.6775 32.931C20.952 32.841 21.276 33.0705 21.5437 33.3473C24.0654 32.7637 26.4048 31.5684 28.3554 29.867C30.3059 28.1656 31.8078 26.0103 32.7285 23.5912C31.455 24.9435 29.9835 25.047 30.42 23.9018C29.916 22.9185 29.2455 22.095 28.4085 21.276C26.8988 19.9643 25.5577 17.5005 30.2512 14.0535C29.5245 12.204 31.3245 10.476 32.4675 11.772C31.3148 9.09349 29.4411 6.78759 27.0551 5.11115C24.6692 3.43471 21.8647 2.45356 18.954 2.277L18.9518 2.27925Z" fill="#FCBC1D"/>
</svg>
