<svg width="205" height="64" viewBox="0 0 205 64" fill="none" xmlns="http://www.w3.org/2000/svg">
<mask id="path-1-inside-1" fill="white">
<path fill-rule="evenodd" clip-rule="evenodd" d="M28 0H205V44L185 64H0V28L28 0Z"/>
</mask>
<path fill-rule="evenodd" clip-rule="evenodd" d="M28 0H205V44L185 64H0V28L28 0Z" fill="#010509" fill-opacity="0.3"/>
<path d="M205 0H206V-1H205V0ZM28 0V-1H27.5858L27.2929 -0.707107L28 0ZM205 44L205.707 44.7071L206 44.4142V44H205ZM185 64V65H185.414L185.707 64.7071L185 64ZM0 64H-1V65H0V64ZM0 28L-0.707107 27.2929L-1 27.5858V28H0ZM205 -1H28V1H205V-1ZM206 44V0H204V44H206ZM204.293 43.2929L184.293 63.2929L185.707 64.7071L205.707 44.7071L204.293 43.2929ZM0 65H185V63H0V65ZM-1 28V64H1V28H-1ZM27.2929 -0.707107L-0.707107 27.2929L0.707107 28.7071L28.7071 0.707107L27.2929 -0.707107Z" fill="#00DEFF" mask="url(#path-1-inside-1)"/>
<path d="M0 12.6V21L21 0H12.6L0 12.6Z" fill="#00DEFF"/>
<path d="M193 64L205 64L205 52L193 64Z" fill="#00DEFF"/>
</svg>
