<svg width="49" height="48" viewBox="0 0 49 48" fill="none" xmlns="http://www.w3.org/2000/svg">
<rect x="1.15558" y="1" width="46" height="46" rx="23" stroke="#F5F5F5" stroke-width="2"/>
<path d="M26.5984 23.6803C26.6245 18.4079 22.3035 13.9957 17.0962 13.9696C11.7455 13.9501 7.34639 18.2449 7.32683 23.5174C7.30728 28.9528 11.5565 33.3519 16.842 33.3715C22.2383 33.3911 26.5723 29.0897 26.5984 23.6803Z" fill="#FFBA0B"/>
<path d="M37.1564 23.4849C37.1173 21.4124 36.7849 19.2422 35.7421 17.2283C35.3967 16.5571 34.9731 15.9444 34.4061 15.4361C33.057 14.2174 31.4668 14.2499 30.1633 15.5208C29.277 16.3811 28.71 17.4434 28.3385 18.597C27.1524 22.2792 27.1915 25.9354 28.6513 29.546C28.9968 30.3932 29.4855 31.1688 30.1503 31.8075C31.558 33.1696 33.3242 33.1109 34.6537 31.6706C35.8008 30.4258 36.3743 28.9008 36.7588 27.291C37.0391 26.0983 37.1499 24.8796 37.1564 23.4849Z" fill="#FFBA0B"/>
<path d="M41.4708 23.3674C41.4512 21.4904 41.3535 19.3267 40.806 17.2086C40.6822 16.7394 40.4997 16.2831 40.2651 15.8595C39.9914 15.3642 39.5938 15.3772 39.2875 15.8595C38.8378 16.5569 38.6749 17.365 38.5315 18.1601C38.0492 20.8778 37.9906 23.6216 38.1861 26.3719C38.2773 27.7079 38.4272 29.0309 38.7987 30.3213C38.916 30.7254 39.079 31.123 39.2875 31.4879C39.5678 31.9767 39.9718 31.9702 40.2716 31.4879C40.6952 30.8232 40.8517 30.0672 41.0016 29.3112C41.3665 27.4472 41.4708 25.5637 41.4708 23.3674Z" fill="#FFBA0B"/>
</svg>
