<svg width="684" height="46" viewBox="0 0 684 46" fill="none" xmlns="http://www.w3.org/2000/svg">
<path d="M218 27L236 45H455L473 27" stroke="#ABEEF7"/>
<path d="M237 32.5L219 14.5H53L41 2.5" stroke="#ABEEF7"/>
<path d="M455 32.5L473 14.5H638.5L652 1" stroke="#ABEEF7"/>
<path fill-rule="evenodd" clip-rule="evenodd" d="M8.11892 38H0.746094L8.74611 30L0.746117 22H8.11894L16.1189 30L8.11892 38ZM19.1189 38H11.7461L19.7461 30L11.7461 22H19.1189L27.1189 30L19.1189 38ZM37.373 38H44.7459L52.7459 30L44.7459 22H37.3731L45.3731 30L37.373 38ZM93.7459 38H86.373L94.3731 30L86.3731 22H93.7459L101.746 30L93.7459 38ZM140.119 38H132.746L140.746 30L132.746 22H140.119L148.119 30L140.119 38ZM189.119 38H181.746L189.746 30L181.746 22H189.119L197.119 30L189.119 38ZM109.746 38H117.119L125.119 30L117.119 22H109.746L117.746 30L109.746 38ZM156.119 38H163.492L171.492 30L163.492 22H156.119L164.119 30L156.119 38ZM68.1189 38H60.7461L68.7461 30L60.7461 22H68.1189L76.1189 30L68.1189 38ZM98.7461 38H106.119L114.119 30L106.119 22H98.7461L106.746 30L98.7461 38ZM145.119 38H152.492L160.492 30L152.492 22H145.119L153.119 30L145.119 38ZM57.1189 38H49.7461L57.7461 30L49.7461 22H57.1189L65.1189 30L57.1189 38ZM194.119 38H201.492L209.492 30L201.492 22H194.119L202.119 30L194.119 38ZM129.492 38H122.119L130.119 30L122.119 22H129.492L137.492 30L129.492 38ZM24.1191 38H31.492L39.492 30L31.492 22H24.1192L32.1192 30L24.1191 38ZM175.865 38H168.492L176.492 30L168.492 22H175.865L183.865 30L175.865 38ZM73.1191 38H80.492L88.492 30L80.492 22H73.1192L81.1192 30L73.1191 38Z" fill="url(#paint0_linear)"/>
<path fill-rule="evenodd" clip-rule="evenodd" d="M683.746 38H676.373L668.373 30L676.373 22H683.746L675.746 30L683.746 38ZM650.746 38H658.119L650.119 30L658.119 22H650.746L642.746 30L650.746 38ZM609.119 38H601.746L593.746 30L601.746 22H609.119L601.119 30L609.119 38ZM562.746 38H555.373L547.373 30L555.373 22H562.746L554.746 30L562.746 38ZM513.746 38H506.373L498.373 30L506.373 22H513.746L505.746 30L513.746 38ZM578.373 38H585.746L577.746 30L585.746 22H578.373L570.373 30L578.373 38ZM532 38H539.373L531.373 30L539.373 22H532L524 30L532 38ZM634.746 38H627.373L619.373 30L627.373 22H634.746L626.746 30L634.746 38ZM589.373 38H596.746L588.746 30L596.746 22H589.373L581.373 30L589.373 38ZM550.373 38H543L535 30L543 22H550.373L542.373 30L550.373 38ZM638.373 38H645.746L637.746 30L645.746 22H638.373L630.373 30L638.373 38ZM501.373 38H494L486 30L494 22H501.373L493.373 30L501.373 38ZM566 38H573.373L565.373 30L573.373 22H566L558 30L566 38ZM671.373 38H664L656 30L664 22H671.373L663.373 30L671.373 38ZM519.627 38H527L519 30L527 22H519.627L511.627 30L519.627 38ZM622.373 38H615L607 30L615 22H622.373L614.373 30L622.373 38Z" fill="url(#paint1_linear)"/>
<defs>
<linearGradient id="paint0_linear" x1="209.108" y1="30" x2="8.94009" y2="30" gradientUnits="userSpaceOnUse">
<stop stop-color="#33FFE7"/>
<stop offset="1" stop-color="#020E19" stop-opacity="0"/>
</linearGradient>
<linearGradient id="paint1_linear" x1="486.364" y1="30" x2="675.984" y2="30" gradientUnits="userSpaceOnUse">
<stop stop-color="#33FFE7"/>
<stop offset="1" stop-color="#020E19" stop-opacity="0"/>
</linearGradient>
</defs>
</svg>
