<svg width="20" height="20" viewBox="0 0 20 20" fill="none" xmlns="http://www.w3.org/2000/svg">
<path d="M14.7904 12.0275C15.0614 12.2422 15.4947 12.135 15.7114 11.8127C15.8197 11.6516 15.8197 11.4905 15.8197 11.3295C15.7655 11.1684 15.6572 11.0073 15.5488 10.9C15.1695 10.6852 14.7903 10.4167 14.3569 10.2557C14.8987 9.71867 15.3321 9.12812 15.6029 8.42994C15.9278 7.67835 16.0905 6.87289 16.0905 6.01377C16.0905 2.68485 13.3816 0 10.0227 0C6.66369 0 4.00893 2.73838 4.00893 6.0673C4.00893 7.67812 4.65911 9.18165 5.79682 10.3093C2.27541 11.92 0 15.4102 0 19.2763C0 19.6521 0.270833 19.9206 0.650069 19.9206C1.0293 19.9206 1.30014 19.6521 1.30014 19.2763C1.30014 15.6788 3.57543 12.4572 6.93452 11.2222C8.83082 12.3495 11.2688 12.2961 13.1107 11.2222C13.7068 11.4368 14.3029 11.7053 14.7904 12.0275ZM10.0229 10.7388C7.42239 10.7388 5.30941 8.64464 5.30941 6.0673C5.30941 3.49009 7.42228 1.39601 10.0229 1.39601C12.6235 1.39601 14.7364 3.49009 14.7364 6.0673C14.7364 6.71161 14.6281 7.35614 14.3571 7.94657C14.1405 8.48359 13.7611 8.96685 13.3276 9.39634C12.461 10.2556 11.2689 10.7388 10.0229 10.7388ZM19.2865 15.7185H17.1461V13.5841C17.1461 13.3955 17.071 13.2145 16.9372 13.0811C16.8034 12.9477 16.6219 12.8728 16.4327 12.8728C16.2435 12.8728 16.062 12.9477 15.9282 13.0811C15.7944 13.2145 15.7193 13.3955 15.7193 13.5841V15.7185H13.5787C13.3895 15.7185 13.208 15.7935 13.0742 15.9269C12.9404 16.0603 12.8653 16.2413 12.8653 16.43C12.8653 16.6187 12.9404 16.7996 13.0742 16.9331C13.208 17.0665 13.3895 17.1414 13.5787 17.1414H15.7193V19.2757C15.7176 19.3702 15.7348 19.4641 15.7698 19.5519C15.8049 19.6397 15.8572 19.7196 15.9236 19.7871C15.99 19.8545 16.0693 19.9081 16.1567 19.9446C16.2441 19.9812 16.3379 20 16.4327 20C16.5275 20 16.6213 19.9812 16.7087 19.9446C16.7961 19.9081 16.8753 19.8545 16.9418 19.7871C17.0082 19.7196 17.0604 19.6397 17.0955 19.5519C17.1306 19.4641 17.1478 19.3702 17.1461 19.2757V17.1414H19.2865C19.4757 17.1414 19.6572 17.0665 19.791 16.9331C19.9248 16.7996 20 16.6187 20 16.43C20 16.2413 19.9248 16.0603 19.791 15.9269C19.6572 15.7935 19.4757 15.7185 19.2865 15.7185Z" fill="#FFBA0B"/>
</svg>
