<svg width="25" height="25" viewBox="0 0 25 25" fill="none" xmlns="http://www.w3.org/2000/svg">
<path fill-rule="evenodd" clip-rule="evenodd" d="M21.2088 3.88321C21.2241 3.89792 21.2392 3.91281 21.2543 3.92787C22.2371 4.91064 22.4553 6.36717 21.907 7.55385L20.6222 12.3941L23.1781 9.83817L25 11.6601L19.3055 17.3545L17.9316 22.5308C17.2728 25.0129 14.1702 25.8364 12.347 24.0132L0.986821 12.653C-0.836411 10.8298 -0.0128861 7.72724 2.46917 7.06842L7.6455 5.69445L13.3399 0L15.1618 1.82188L12.6059 4.37779L17.9343 2.96347C19.1991 2.62773 20.4113 3.05496 21.2088 3.88321ZM13.9423 6.6852L3.14094 9.55224C2.56816 9.70428 2.37812 10.4203 2.79886 10.841L6.29267 14.3348L13.9423 6.6852ZM8.11456 16.1567L9.0255 17.0676L19.4447 6.6484C19.4659 6.62721 19.4853 6.6049 19.5029 6.58165L19.5527 6.39397C19.6222 6.13233 19.5501 5.88047 19.3968 5.69853C19.1439 5.48909 18.7694 5.50183 18.5338 5.73745L8.11456 16.1567ZM18.1831 11.5538L10.8474 18.8895L14.159 22.2011C14.5797 22.6219 15.2957 22.4318 15.4478 21.8591L18.1831 11.5538ZM5.75474 24.3465H0.289096L0.289095 18.8809L2.10114 17.0688L7.56678 22.5345L5.75474 24.3465Z" fill="#FECF06"/>
</svg>
