<svg width="52" height="46" viewBox="0 0 52 46" fill="none" xmlns="http://www.w3.org/2000/svg">
<path d="M43.2114 41.2563L42.0026 40.0707L44.5134 36.095C46.3959 32.8808 47.3758 29.2181 47.3498 25.4934C47.3498 19.9439 45.1453 14.6217 41.2212 10.6977C37.2972 6.77361 31.975 4.56909 26.4255 4.56909C20.8761 4.56909 15.5539 6.77361 11.6298 10.6977C7.70579 14.6217 5.50127 19.9439 5.50127 25.4934C5.49611 29.1787 6.47532 32.7986 8.33767 35.9787L8.3843 36.0484L11.1277 39.9077L9.63963 41.3725L6.15225 41.1633C3.67627 37.9433 2.00288 34.18 1.2706 30.1847C0.538321 26.1894 0.768222 22.0771 1.94127 18.1884C3.11432 14.2996 5.19677 10.7462 8.01623 7.82228C10.8357 4.89838 14.311 2.6881 18.1546 1.37444C21.9981 0.0607738 26.0993 -0.318494 30.1186 0.268035C34.1378 0.854565 37.9596 2.39002 41.2674 4.74728C44.5753 7.10454 47.2741 10.2158 49.1404 13.8235C51.0067 17.4312 51.9868 21.4315 51.9996 25.4934C52.004 31.1219 50.1395 36.5926 46.6988 41.0471L43.2114 41.2563Z" fill="url(#paint0_angular)"/>
<path d="M22.4544 35.0347L22.7338 42.2517L29.9508 42.5311L43.382 21.6035L22.4544 35.0347Z" fill="#44CC27"/>
<defs>
<radialGradient id="paint0_angular" cx="0" cy="0" r="1" gradientUnits="userSpaceOnUse" gradientTransform="translate(28.1229 41.3725) rotate(180) scale(23.9234 25.9881)">
<stop offset="0.00230367" stop-color="#C9CC27"/>
<stop offset="0.248001" stop-color="#C8F546"/>
<stop offset="0.496621" stop-color="#44CC27"/>
</radialGradient>
</defs>
</svg>
