<svg width="36" height="38" viewBox="0 0 36 38" fill="none" xmlns="http://www.w3.org/2000/svg">
<path fill-rule="evenodd" clip-rule="evenodd" d="M19.6379 8.73329L18.5709 6.91944L17.9908 5.93329L17.4108 6.91944L16.3438 8.73329L5.14533 8.73329H3.99084L4.56777 9.73329L10.1073 19.3352L9.24574 20.8L8.65751 21.8H9.81769H11.5293L17.4136 31.9994L17.9908 33L18.5681 31.9994L24.4524 21.8H26.164H27.3242L26.7359 20.8L25.8743 19.3352L31.4139 9.73329L31.9908 8.73329H30.8364L19.6379 8.73329ZM30.2594 9.73329L19.6379 9.73329L19.066 9.73329L18.776 9.24031L17.9908 7.9056L17.2057 9.24031L16.9157 9.73329H16.3438L5.72225 9.73329L10.9735 18.8355L11.2647 19.3401L10.9693 19.8422L10.4059 20.8H11.5293H12.1069L12.3955 21.3002L12.5332 21.539L13.367 20.0103L8.65753 11.5333L13.3242 11.5333L15.8161 15.5203L17.9909 11.5333L20.1656 15.5203L22.6575 11.5333L27.3242 11.5333L22.6147 20.0103L23.4485 21.5389L23.5862 21.3002L23.8748 20.8H24.4524H25.5758L25.0124 19.8422L24.717 19.3401L25.0082 18.8355L30.2594 9.73329ZM14.3612 21.7999L17.9909 28.3333L21.6205 21.7999H23.2979L17.9908 30.9988L12.6838 21.7999H14.3612Z" fill="#00DEFF"/>
<path fill-rule="evenodd" clip-rule="evenodd" d="M21.6672 6.70573L18.568 1.33387L17.9908 0.333313L17.4136 1.33387L14.3144 6.70573L1.15449 6.70572H0L0.576923 7.70572L7.1572 19.1115L4.56772 23.6L3.9908 24.6H5.14529H10.3236L17.2848 36.6661L17.8621 37.6666L18.4393 36.6661L25.4005 24.6H30.8363H31.9908L31.4139 23.6L28.6957 18.8884L35.1472 7.70573L35.7241 6.70573H34.5696L21.6672 6.70573ZM33.9927 7.70573L21.6672 7.70573H21.0896L20.801 7.20545L17.9908 2.33442L15.1806 7.20545L14.892 7.70573H14.3144L1.73141 7.70572L8.02339 18.6118L8.31169 19.1115L8.02339 19.6113L5.72221 23.6H10.3236H10.9012L11.1898 24.1003L17.8621 35.6655L24.5343 24.1003L24.823 23.6H25.4005H30.2594L27.8295 19.3881L27.5412 18.8884L27.8295 18.3887L33.9927 7.70573Z" fill="#00DEFF"/>
</svg>
