<svg width="60" height="66" viewBox="0 0 60 66" fill="none" xmlns="http://www.w3.org/2000/svg">
<path d="M58.5046 56.2234H17.9193V47.7792C17.9193 45.9471 19.4031 44.4633 21.2351 44.4633H55.1888C57.0208 44.4633 58.5046 45.9471 58.5046 47.7792V56.2234Z" stroke="white" stroke-width="1.5" stroke-miterlimit="10" stroke-linecap="round" stroke-linejoin="round"/>
<path d="M17.8757 51.764H9.93829V30.4043H5.48288V56.184V56.2235H17.9192" stroke="white" stroke-width="1.5" stroke-miterlimit="10" stroke-linecap="round" stroke-linejoin="round"/>
<path d="M15.5491 29.7394C18.1147 29.7394 20.1944 27.6596 20.1944 25.094C20.1944 22.5283 18.1147 20.4485 15.5491 20.4485C12.9836 20.4485 10.9038 22.5283 10.9038 25.094C10.9038 27.6596 12.9836 29.7394 15.5491 29.7394Z" stroke="white" stroke-width="1.5" stroke-miterlimit="10" stroke-linecap="round" stroke-linejoin="round"/>
<path d="M10.0056 35.394C10.6703 34.1119 12.0077 33.2335 13.5548 33.2335H17.2703C19.4743 33.2335 21.2628 35.022 21.2628 37.226V40.2056" stroke="white" stroke-width="1.5" stroke-miterlimit="10" stroke-linecap="round" stroke-linejoin="round"/>
<path d="M46.8991 10.3109C46.9466 10.5879 46.9743 10.8689 46.9743 11.1577C46.9743 13.8445 44.7941 16.0248 42.1074 16.0248C39.4207 16.0248 37.2405 13.8445 37.2405 11.1577C37.2405 10.8333 37.2721 10.5127 37.3354 10.2041" stroke="white" stroke-width="1.5" stroke-miterlimit="10" stroke-linecap="round" stroke-linejoin="round"/>
<path d="M36.5956 29.526V35.6593C36.5956 36.7237 35.733 37.5824 34.6725 37.5824C33.6081 37.5824 32.7495 36.7197 32.7495 35.6593V23.7765C32.7495 21.5527 34.5538 19.7483 36.7776 19.7483H47.283C49.5067 19.7483 51.3111 21.5527 51.3111 23.7765V35.5129C51.3111 36.5733 50.4524 37.432 49.392 37.432C48.3316 37.432 47.4729 36.5733 47.4729 35.5129V29.4231" stroke="white" stroke-width="1.5" stroke-miterlimit="10" stroke-linecap="round" stroke-linejoin="round"/>
<path d="M36.6075 29.4149V44.3129" stroke="white" stroke-width="1.5" stroke-miterlimit="10" stroke-linecap="round" stroke-linejoin="round"/>
<path d="M47.469 29.4149V44.3129" stroke="white" stroke-width="1.5" stroke-miterlimit="10" stroke-linecap="round" stroke-linejoin="round"/>
<path d="M46.6301 25.9171C47.3688 25.9171 47.9675 25.3183 47.9675 24.5796C47.9675 23.841 47.3688 23.2422 46.6301 23.2422C45.8915 23.2422 45.2927 23.841 45.2927 24.5796C45.2927 25.3183 45.8915 25.9171 46.6301 25.9171Z" stroke="white" stroke-width="1.5" stroke-miterlimit="10" stroke-linecap="round" stroke-linejoin="round"/>
<path d="M39.4405 26.7243H40.319V25.5728C40.319 24.0929 39.12 22.8939 37.6402 22.8939C36.1603 22.8939 34.9614 24.0929 34.9614 25.5728V26.7599H35.8754" stroke="white" stroke-width="1.5" stroke-miterlimit="10" stroke-linecap="round" stroke-linejoin="round"/>
<path d="M37.6441 22.8979V19.76" stroke="white" stroke-width="1.5" stroke-miterlimit="10" stroke-linecap="round" stroke-linejoin="round"/>
<path d="M46.6301 23.242V19.9221" stroke="white" stroke-width="1.5" stroke-miterlimit="10" stroke-linecap="round" stroke-linejoin="round"/>
<path d="M40.3585 19.9895L42.3449 22.9731L44.0146 19.8748" stroke="white" stroke-width="1.5" stroke-miterlimit="10" stroke-linecap="round" stroke-linejoin="round"/>
<path d="M42.2301 38.0411V44.4158" stroke="white" stroke-width="1.5" stroke-miterlimit="10" stroke-linecap="round" stroke-linejoin="round"/>
<path d="M10.7217 56.4411V61.0866" stroke="white" stroke-width="1.5" stroke-miterlimit="10" stroke-linecap="round" stroke-linejoin="round"/>
<path d="M10.6307 65C11.7125 65 12.5894 64.123 12.5894 63.0413C12.5894 61.9595 11.7125 61.0826 10.6307 61.0826C9.549 61.0826 8.67209 61.9595 8.67209 63.0413C8.67209 64.123 9.549 65 10.6307 65Z" stroke="white" stroke-width="1.5" stroke-miterlimit="10" stroke-linecap="round" stroke-linejoin="round"/>
<path d="M19.3596 56.4411V61.0866" stroke="white" stroke-width="1.5" stroke-miterlimit="10" stroke-linecap="round" stroke-linejoin="round"/>
<path d="M19.2685 65C20.3503 65 21.2272 64.123 21.2272 63.0413C21.2272 61.9595 20.3503 61.0826 19.2685 61.0826C18.1868 61.0826 17.3099 61.9595 17.3099 63.0413C17.3099 64.123 18.1868 65 19.2685 65Z" stroke="white" stroke-width="1.5" stroke-miterlimit="10" stroke-linecap="round" stroke-linejoin="round"/>
<path d="M44.1096 56.4411V61.0866" stroke="white" stroke-width="1.5" stroke-miterlimit="10" stroke-linecap="round" stroke-linejoin="round"/>
<path d="M44.0186 65C45.1003 65 45.9772 64.123 45.9772 63.0413C45.9772 61.9595 45.1003 61.0826 44.0186 61.0826C42.9369 61.0826 42.06 61.9595 42.06 63.0413C42.06 64.123 42.9369 65 44.0186 65Z" stroke="white" stroke-width="1.5" stroke-miterlimit="10" stroke-linecap="round" stroke-linejoin="round"/>
<path d="M52.7474 56.4411V61.0866" stroke="white" stroke-width="1.5" stroke-miterlimit="10" stroke-linecap="round" stroke-linejoin="round"/>
<path d="M52.6524 65C53.7341 65 54.6111 64.123 54.6111 63.0413C54.6111 61.9595 53.7341 61.0826 52.6524 61.0826C51.5707 61.0826 50.6938 61.9595 50.6938 63.0413C50.6938 64.123 51.5707 65 52.6524 65Z" stroke="white" stroke-width="1.5" stroke-miterlimit="10" stroke-linecap="round" stroke-linejoin="round"/>
<path d="M7.89261 30.3449V13.7217" stroke="white" stroke-width="1.5" stroke-miterlimit="10" stroke-linecap="round" stroke-linejoin="round"/>
<path d="M11.4221 1H4.54907V11.2169H11.4221V1Z" stroke="white" stroke-width="1.5" stroke-miterlimit="10" stroke-linecap="round" stroke-linejoin="round"/>
<path d="M8.81451 3.39001H11.3271" stroke="white" stroke-width="1.5" stroke-miterlimit="10" stroke-linecap="round" stroke-linejoin="round"/>
<path d="M8.81451 6.17578H11.3271" stroke="white" stroke-width="1.5" stroke-miterlimit="10" stroke-linecap="round" stroke-linejoin="round"/>
<path d="M8.81451 8.68433H11.3271" stroke="white" stroke-width="1.5" stroke-miterlimit="10" stroke-linecap="round" stroke-linejoin="round"/>
<path d="M6.59076 11.4938V12.9341C6.59076 13.2151 6.82026 13.4446 7.10119 13.4446H8.77098C9.05192 13.4446 9.28141 13.2151 9.28141 12.9341V11.5887" stroke="white" stroke-width="1.5" stroke-miterlimit="10" stroke-linecap="round" stroke-linejoin="round"/>
<path d="M4.54907 11.2129C4.54907 11.2129 -1.5326 12.5583 2.2264 20.2229C2.2264 20.2229 5.15051 25.5173 6.68577 30.2538" stroke="white" stroke-width="1.5" stroke-miterlimit="10" stroke-linecap="round" stroke-linejoin="round"/>
<path d="M36.8409 56.2946C36.9279 57.6756 38.0794 58.7677 39.4801 58.7677C40.8769 58.7677 42.0204 57.6835 42.1193 56.3104" stroke="white" stroke-width="1.5" stroke-miterlimit="10" stroke-linecap="round" stroke-linejoin="round"/>
<path d="M42.1312 56.259C42.2024 57.6558 43.3578 58.7678 44.7743 58.7678C46.1869 58.7678 47.3423 57.6598 47.4175 56.2669" stroke="white" stroke-width="1.5" stroke-miterlimit="10" stroke-linecap="round" stroke-linejoin="round"/>
<path d="M37.3434 10.3148H46.8833V4.18945H37.4067L37.3434 10.3148Z" stroke="white" stroke-width="1.5" stroke-miterlimit="10" stroke-linecap="round" stroke-linejoin="round"/>
<path d="M42.1193 6.08862V8.09876" stroke="white" stroke-width="1.5" stroke-miterlimit="10" stroke-linecap="round" stroke-linejoin="round"/>
<path d="M43.1243 7.09375H41.1143" stroke="white" stroke-width="1.5" stroke-miterlimit="10" stroke-linecap="round" stroke-linejoin="round"/>
<path d="M18.0855 36.5376L21.4053 40.6014H27.5107C28.5395 40.6014 29.3783 41.4363 29.3783 42.4691C29.3783 43.5019 28.5395 44.3368 27.5067 44.3368L21.9078 44.317C20.8869 44.313 19.9175 43.8857 19.229 43.1339L15.3909 38.9553" stroke="white" stroke-width="1.5" stroke-miterlimit="10" stroke-linecap="round" stroke-linejoin="round"/>
</svg>
