<svg width="63" height="65" viewBox="0 0 63 65" fill="none" xmlns="http://www.w3.org/2000/svg">
<path fill-rule="evenodd" clip-rule="evenodd" d="M17.1453 0C15.2035 0 13.6235 1.58011 13.6235 3.52177C13.6235 5.46343 15.2036 7.04354 17.1453 7.04354C19.087 7.04354 20.667 5.46343 20.667 3.52177C20.667 1.58011 19.087 0 17.1453 0ZM17.1453 5.03116C16.3129 5.03116 15.636 4.3541 15.636 3.52184C15.636 2.68959 16.313 2.01252 17.1453 2.01252C17.9775 2.01252 18.6546 2.68959 18.6546 3.52184C18.6546 4.3541 17.9776 5.03116 17.1453 5.03116ZM50.8538 15.0934C49.1892 15.0934 47.8352 16.4475 47.8352 18.1121C47.8352 19.7766 49.1892 21.1307 50.8538 21.1307C52.5184 21.1307 53.8725 19.7766 53.8725 18.1121C53.8725 16.4475 52.5184 15.0934 50.8538 15.0934ZM50.8538 19.1183C50.2991 19.1183 49.8475 18.6668 49.8475 18.1121C49.8475 17.5573 50.2991 17.1058 50.8538 17.1058C51.4085 17.1058 51.8601 17.5573 51.8601 18.1121C51.8601 18.6668 51.4086 19.1183 50.8538 19.1183ZM27.3328 7.38413H25.4949V8.85442H23.8776V10.9128H25.4949V12.3831H27.3328V10.9128H28.9501V8.85442H27.3328V7.38413ZM23.8872 50.0382C21.9156 50.452 20.2722 50.4053 18.836 49.8995C17.4101 49.3972 16.4334 48.5237 15.6988 47.7813C15.4837 47.5639 15.2868 47.3586 15.1013 47.1652C13.9949 46.0116 13.3011 45.2882 11.645 45.0272C10.1986 44.7993 9.31946 44.9542 8.80588 45.1543C8.31365 45.3461 8.02476 45.6296 7.8288 45.927C7.61553 46.2506 7.49436 46.6239 7.43188 46.9487C7.40185 47.1048 7.38881 47.232 7.3833 47.3104C7.38074 47.3468 7.37991 47.3712 7.37966 47.3812V47.3959C7.37966 50.3585 8.13549 52.7616 9.58472 54.3991C10.9917 55.9889 13.3218 57.1616 17.1453 57.1616C20.9688 57.1616 23.299 55.9889 24.7059 54.3991C25.9215 53.0256 26.6493 51.1134 26.8523 48.7842C26.078 49.2648 25.0364 49.797 23.8872 50.0382ZM29.1167 47.3959C29.1167 54.0075 25.7497 59.3673 17.1453 59.3673C8.54094 59.3673 5.17399 54.0075 5.17399 47.3959C5.17399 47.3959 5.07055 41.7583 11.9884 42.8484C14.419 43.2314 15.6167 44.4959 16.7473 45.6894C18.2244 47.2488 19.5868 48.6871 23.4342 47.8796C25.3534 47.4767 27.1819 45.8067 27.2073 45.7835C29.204 44.6043 29.1167 47.3959 29.1167 47.3959ZM54.9739 53.4043H39.259C38.9368 54.7163 38.5049 55.9095 37.9652 57.006H54.3756C54.6531 57.006 54.7691 56.9163 54.8177 56.8662C54.8722 56.8101 54.9739 56.664 54.9739 56.3486V53.4043ZM33.8184 59.2116C34.4341 58.5309 34.981 57.8018 35.4567 57.006C36.4193 55.3954 37.0906 53.511 37.4509 51.1986H55.885C56.7151 51.1986 57.1795 51.9967 57.1795 52.8269V56.3486C57.1795 58.0089 56.0359 59.2116 54.3756 59.2116H33.8184ZM54.9731 52.8172C54.9733 52.8172 54.9739 52.8205 54.9739 52.8269L54.9732 52.822L54.9731 52.8205C54.9729 52.8184 54.973 52.8173 54.9731 52.8172ZM18.234 34.2564C20.3644 34.4323 22.4387 35.1378 24.2331 36.2968C24.6998 36.598 24.834 37.221 24.5323 37.6877C24.3402 37.9859 24.0163 38.1481 23.6862 38.1481C23.4928 38.1482 23.3035 38.0922 23.1413 37.9869C21.6241 37.0073 19.8696 36.4108 18.0679 36.2619C17.5142 36.2163 17.1025 35.7303 17.1482 35.1761C17.1939 34.6229 17.671 34.2102 18.234 34.2564ZM25.7856 40.3743C25.4382 39.9405 25.5076 39.3077 25.9414 38.9598C26.3742 38.6119 27.0076 38.6807 27.3559 39.1155C28.0271 39.9523 28.5929 40.8684 29.0406 41.8433C29.272 42.3489 29.0504 42.9458 28.5453 43.1778C28.4093 43.2397 28.2667 43.2691 28.1262 43.2691C27.745 43.2691 27.3804 43.0515 27.2109 42.6825C26.8324 41.8574 26.3537 41.0822 25.7856 40.3743ZM18.8786 28.6774C18.8786 29.2331 18.4051 29.6836 17.8495 29.6836C17.2938 29.6836 16.8203 29.2331 16.8203 28.6774V24.6525C16.8203 24.0968 17.2938 23.6462 17.8495 23.6462C18.4051 23.6462 18.8786 24.0968 18.8786 24.6525V28.6774ZM59.2617 45.852L48.0465 38.9185C47.8726 38.8105 47.6227 38.441 47.6227 38.2366V28.0018C49.1665 27.5867 49.7414 26.3689 49.7414 25.0571C49.7414 23.3925 48.4936 21.9399 46.8289 21.9399H38.7791C37.1145 21.9399 35.6496 23.3925 35.6496 25.0571C35.6496 26.3689 36.5221 27.5866 37.5513 28.0018V38.2366C37.5513 38.4409 37.4567 38.8104 37.2828 38.9185L33.1851 41.4965C31.9139 37.9519 29.5182 34.8836 26.207 32.8035C25.0932 32.1038 23.5616 31.5097 23.3897 31.443L23.3759 31.4376C23.2437 31.3845 22.9955 31.1355 22.9955 30.993V20.9843C24.3922 20.5505 25.6046 19.0844 25.6046 17.4921C25.6046 15.5504 24.1181 13.8534 22.1764 13.8534H12.1142C10.1725 13.8534 8.4345 15.5504 8.4345 17.4921C8.4345 19.0845 9.98352 20.5505 10.7922 20.9843V30.9931C10.7922 31.1355 10.7811 31.3847 10.6489 31.4377C10.5845 31.4633 9.13451 32.0764 7.97791 32.803C2.95762 35.9564 0 41.3732 0 47.2926C0 58.1636 6.25459 64.3985 17.1256 64.3985C27.9966 64.3985 34.2413 58.1636 34.2413 47.2926C34.2413 45.9985 34.0948 44.731 33.8185 43.5033L38.3278 40.6283C39.0987 40.1498 39.5362 39.1441 39.5362 38.2366V27.9681H41.7978C42.3535 27.9681 42.8041 27.5681 42.8041 27.0124C42.8041 26.4567 42.3535 26.0567 41.7978 26.0567H38.7791C38.2244 26.0567 37.7728 25.5823 37.7728 25.0275C37.7728 24.4728 38.2244 23.9983 38.7791 23.9983H46.8289C47.3836 23.9983 47.8352 24.4728 47.8352 25.0275C47.8352 25.5823 47.3837 26.0567 46.8289 26.0567H45.6378V38.2366C45.6378 39.144 46.2899 40.1498 47.0608 40.6283L58.1313 47.5618C59.2441 48.2526 60.1202 50.0076 60.1202 51.3175V57.3549C60.1202 60.1289 58.1559 62.0788 55.3819 62.0788H31.5231V64.2107H55.3818C59.2658 64.2107 62.1785 61.2388 62.1785 57.3549V51.3175C62.1785 49.311 60.9666 46.9104 59.2617 45.852ZM17.1453 62.386C4.01277 62.386 2.05193 52.9295 2.05193 47.2926C2.05193 42.0699 4.69668 37.2903 9.12694 34.507C10.1268 33.8791 11.4039 33.3121 11.4182 33.3067C12.3119 32.9495 12.8505 31.9551 12.8505 30.9931V20.9107H16.139C16.6947 20.9107 17.1453 20.5107 17.1453 19.955C17.1453 19.3994 16.6947 18.9994 16.139 18.9994H12.1141C11.2818 18.9994 10.6048 18.2511 10.6048 17.4188C10.6048 16.5865 11.2819 15.8383 12.1141 15.8383H22.1764C23.0087 15.8383 23.6857 16.5865 23.6857 17.4188C23.6857 18.2511 23.0086 18.9994 22.1764 18.9994H20.9371V30.993C20.9371 31.9555 21.7277 32.9504 22.6214 33.3066L22.6281 33.3092C22.7373 33.3519 24.1365 33.8986 25.1058 34.5074C29.5356 37.2902 32.2095 42.0698 32.2095 47.2926C32.2095 52.9295 30.2778 62.386 17.1453 62.386ZM52.3617 48.316C52.1745 48.3162 51.991 48.2638 51.8321 48.1647L44.3709 43.5335C43.8987 43.2407 43.7533 42.6202 44.0466 42.148C44.3394 41.6748 44.9605 41.5304 45.4321 41.8237L52.8933 46.455C53.3655 46.7478 53.5109 47.3683 53.2176 47.8405C53.027 48.1475 52.6983 48.316 52.3617 48.316ZM43.5059 32.1993V35.2179C43.5059 35.7736 43.0324 36.2241 42.4767 36.2242C41.921 36.2242 41.4475 35.7736 41.4475 35.2179V32.1993C41.4475 31.6436 41.921 31.193 42.4767 31.193C43.0324 31.193 43.5059 31.6436 43.5059 32.1993ZM37.7728 18.1121C37.7728 19.7767 36.4188 21.1308 34.7542 21.1308C33.0896 21.1308 31.7356 19.7767 31.7356 18.1121C31.7356 16.4476 33.0896 15.0935 34.7542 15.0935C36.4188 15.0935 37.7728 16.4476 37.7728 18.1121ZM35.7605 18.1121C35.7605 17.5574 35.3089 17.1059 34.7542 17.1059C34.1995 17.1059 33.7479 17.5574 33.7479 18.1121C33.7479 18.6669 34.1995 19.1184 34.7542 19.1184C35.3089 19.1184 35.7605 18.6669 35.7605 18.1121ZM45.8226 10.5654C45.8226 12.23 44.4686 13.584 42.804 13.584C41.1394 13.584 39.7854 12.23 39.7854 10.5654C39.7854 8.90082 41.1394 7.54676 42.804 7.54676C44.4686 7.54676 45.8226 8.90082 45.8226 10.5654ZM43.8103 10.5654C43.8103 10.0107 43.3587 9.55914 42.804 9.55914C42.2493 9.55914 41.7977 10.0107 41.7977 10.5654C41.7977 11.1201 42.2493 11.5717 42.804 11.5717C43.3587 11.5717 43.8103 11.1201 43.8103 10.5654ZM8.29262 12.3831H6.38125V10.9128H4.83745V8.85443H6.38125V7.38415H8.29262V8.85443H9.98345V10.9128H8.29262V12.3831Z" fill="white"/>
</svg>
