<svg width="64" height="64" viewBox="0 0 64 64" fill="none" xmlns="http://www.w3.org/2000/svg">
<path d="M32 0.789854C14.3283 0.789854 0 15.1156 0 32.7899C0 46.9287 9.16864 58.9236 21.8829 63.154C23.4816 63.4497 24.0704 62.4603 24.0704 61.6142C24.0704 60.8513 24.041 58.3297 24.0269 55.6571C15.1245 57.5924 13.2454 51.8811 13.2454 51.8811C11.7901 48.1831 9.69216 47.1988 9.69216 47.1988C6.78912 45.2123 9.91104 45.2532 9.91104 45.2532C13.1238 45.4785 14.816 48.5505 14.816 48.5505C17.6704 53.4427 22.3014 52.0283 24.1293 51.2103C24.416 49.1419 25.2454 47.73 26.1606 46.9313C19.0528 46.1223 11.5814 43.378 11.5814 31.1169C11.5814 27.6238 12.832 24.7681 14.8787 22.5281C14.5459 21.7217 13.4502 18.4679 15.1885 14.0596C15.1885 14.0596 17.8765 13.2007 23.991 17.3403C26.5434 16.6311 29.2813 16.2753 32.0013 16.2625C34.72 16.2753 37.4592 16.6299 40.0166 17.3403C46.1248 13.1995 48.8077 14.0596 48.8077 14.0596C50.5498 18.4679 49.4541 21.7217 49.1226 22.5281C51.1744 24.7694 52.416 27.6238 52.416 31.1169C52.416 43.4075 44.9293 46.1134 37.8035 46.9057C38.9517 47.899 39.9744 49.8459 39.9744 52.8308C39.9744 57.1124 39.9373 60.5582 39.9373 61.6129C39.9373 62.4641 40.5133 63.4625 42.135 63.1489C54.8429 58.9134 64 46.9223 64 32.7886C64 15.1143 49.673 0.788574 32 0.788574V0.789854Z" fill="white"/>
</svg>
