<svg width="64" height="64" viewBox="0 0 64 64" fill="none" xmlns="http://www.w3.org/2000/svg">
<path d="M32 0C14.3226 0 0 14.3226 0 32C0 49.6774 14.3226 64 32 64C49.6774 64 64 49.6774 64 32C64 14.3226 49.6774 0 32 0ZM47.7161 21.9226L42.4645 46.671C42.0774 48.4258 41.0323 48.8516 39.5742 48.0258L31.5742 42.129L27.7161 45.8452C27.2903 46.271 26.929 46.6323 26.1032 46.6323L26.671 38.4903L41.4968 25.0968C42.1419 24.529 41.3548 24.2065 40.5032 24.7742L22.1806 36.3097L14.2839 33.8452C12.5677 33.3032 12.529 32.129 14.6452 31.3032L45.4968 19.4065C46.929 18.8903 48.1806 19.7548 47.7161 21.9226V21.9226Z" fill="white"/>
</svg>
