<svg width="64" height="64" viewBox="0 0 64 64" fill="none" xmlns="http://www.w3.org/2000/svg">
<path d="M36.4526 17.7714C33.2709 18.9303 31.264 21.9131 31.4926 25.1794L31.5657 26.4389L30.2926 26.2857C25.664 25.6937 21.6183 23.6869 18.1806 20.3154L16.5006 18.6469L16.0709 19.8811C15.1566 22.6309 15.7394 25.5406 17.6503 27.4949C18.6651 28.576 18.4366 28.7291 16.6857 28.0891C16.0709 27.8834 15.5383 27.7257 15.488 27.8057C15.3097 27.9886 15.9223 30.3246 16.4046 31.2503C17.0674 32.5417 18.4114 33.7989 19.8903 34.5486L21.1383 35.1429L19.6617 35.1611C18.2331 35.1611 18.1829 35.1886 18.3383 35.728C18.8434 37.4011 20.8549 39.1794 23.0949 39.9474L24.6743 40.4891L23.3029 41.3143C21.2248 42.5122 18.8781 43.1663 16.48 43.216C15.3326 43.2434 14.3909 43.344 14.3909 43.4217C14.3909 43.6754 17.4994 45.1177 19.3006 45.6869C24.7223 47.3554 31.1589 46.6331 35.9931 43.7806C39.4286 41.7486 42.864 37.7097 44.4686 33.7966C45.3326 31.7166 46.1966 27.9086 46.1966 26.0823C46.1966 24.8983 46.2743 24.7429 47.6983 23.3303C48.5394 22.5029 49.3257 21.6046 49.4811 21.3463C49.7349 20.8594 49.7051 20.8594 48.4114 21.296C46.2514 22.0686 45.9429 21.968 47.0126 20.8091C47.8011 19.9863 48.7429 18.4914 48.7429 18.0571C48.7429 17.9817 48.3611 18.1097 47.9291 18.3406C47.472 18.5966 46.4526 18.9829 45.6914 19.2137L44.3154 19.6526L43.0697 18.7977C42.384 18.3406 41.4149 17.8194 40.9097 17.6663C39.6069 17.3051 37.6229 17.3577 36.4526 17.7714ZM32 0C49.6754 0 64 14.3246 64 32C64 49.6709 49.6754 64 32 64C14.3246 64 0 49.6709 0 32C0 14.3246 14.3246 0 32 0Z" fill="white"/>
</svg>
