<svg width="28" height="28" viewBox="0 0 28 28" fill="none" xmlns="http://www.w3.org/2000/svg">
<path d="M11.0062 26H6.84112C6.22813 26 5.66066 25.6948 5.32071 25.1836C4.98343 24.6723 4.92454 24.0299 5.16545 23.4651L8.92097 14.6853H5.82126C5.16813 14.6853 4.56318 14.3346 4.23929 13.7671C3.9154 13.2023 3.92075 12.501 4.25267 11.9389L9.58481 2.89672C9.9087 2.3453 10.511 2 11.1534 2H22.3477C23.0008 2 23.6058 2.35066 23.9297 2.91814C24.2536 3.48561 24.2482 4.18425 23.9163 4.74637L19.4862 12.2601H20.7256C21.4563 12.2601 22.1148 12.6964 22.4012 13.3683C22.6876 14.0428 22.5458 14.8164 22.0372 15.3437L12.3178 25.4406C11.9752 25.7966 11.4987 26 11.0062 26ZM7.75122 23.5775H10.7519L19.3149 14.6799H18.4369C17.7838 14.6799 17.1788 14.3292 16.8549 13.7618C16.5311 13.1943 16.5364 12.4957 16.8683 11.9335L21.2984 4.42248H11.496L6.87324 12.2601H9.83108C10.4441 12.2601 11.0142 12.5652 11.3515 13.0792C11.6888 13.5905 11.7477 14.2329 11.5067 14.7977L7.75122 23.5775ZM20.7256 14.6826H20.7309H20.7256Z" fill="#20CA8D"/>
</svg>
