<svg width="28" height="28" viewBox="0 0 28 28" fill="none" xmlns="http://www.w3.org/2000/svg">
<path d="M3.50126 19.0154C3.8898 18.8853 4.2798 18.8853 4.66834 19.0154C6.35446 19.2741 7.39396 20.8266 7.00252 22.5077C8.56105 23.4126 10.2472 23.9301 12.0638 23.9301C13.3613 23.9301 14.7894 23.6713 16.0855 23.0252C16.0855 23.0252 16.9945 24.8364 17.1235 24.965C16.864 25.0951 16.4755 25.2252 16.216 25.3539C14.9184 25.7413 13.6208 26 12.1928 26C9.9891 26 7.91154 25.3539 6.09639 24.3189C5.53658 24.7424 4.85205 24.9696 4.14932 24.965C3.75571 24.9715 3.36482 24.8989 2.9999 24.7517C2.63498 24.6045 2.30349 24.3856 2.02513 24.1081C1.74677 23.8306 1.52723 23.5 1.37958 23.1362C1.23192 22.7724 1.15917 22.3827 1.16564 21.9902C1.16564 21.214 1.42515 20.5679 1.8137 20.0504C2.23605 19.5176 2.83384 19.151 3.50126 19.0154ZM16.735 2.97337C18.8932 3.895 20.7324 5.42848 22.0239 7.38334C23.3155 9.33821 24.0026 11.6283 23.9999 13.9692C24.0072 16.0535 23.4706 18.1038 22.4428 19.9188C22.8328 20.5664 23.0924 21.2125 23.0924 21.8601C23.0988 22.2527 23.026 22.6425 22.8783 23.0065C22.7305 23.3704 22.5109 23.701 22.2324 23.9785C21.9538 24.2561 21.6222 24.4749 21.2571 24.6221C20.892 24.7692 20.501 24.8416 20.1072 24.8349C19.3287 24.8349 18.6806 24.5747 18.1616 24.1874C17.6275 23.7666 17.2598 23.1712 17.1235 22.5063C16.994 22.1291 16.994 21.7198 17.1235 21.3426C17.3845 19.6601 18.9401 18.6251 20.6263 19.014C21.5353 17.4615 22.0543 15.7804 22.0543 13.9692C22.0543 9.95942 19.5896 6.46711 16.0855 4.91321L16.735 2.97337ZM20.1072 20.9552C19.5882 20.8252 19.0692 21.3426 19.0692 21.8601C19.0692 22.3762 19.4592 22.8936 20.1072 22.8936L20.2595 22.8792C20.7016 22.791 21.0278 22.3256 21.1453 21.8601C21.0148 21.3426 20.6263 20.9538 20.1072 20.9538V20.9552ZM4.14932 20.9552C3.63029 20.9552 3.11126 21.3426 3.11126 21.8601C3.11126 22.5063 3.50126 22.8936 4.14932 22.8936C4.66834 22.8936 5.18737 22.3762 5.18737 21.8601C5.18737 21.3426 4.66834 20.9538 4.14932 20.9538V20.9552ZM11.6738 7.2419C11.8042 6.98315 12.0638 6.85451 12.3233 6.98315C12.4538 6.98315 12.5828 7.24334 12.5828 7.50064L11.9347 12.4153H16.6045C16.735 12.4153 16.8655 12.5454 16.9945 12.6755V13.0629L12.4523 20.4363C12.3233 20.6965 12.1928 20.6965 11.9347 20.6965C11.6738 20.6965 11.5447 20.4363 11.5447 20.1776L12.4523 15.2629H7.39251C7.26203 15.1328 7.133 14.8741 7.26203 14.6153L11.6738 7.2419ZM12.0652 0C13.4918 0 14.7908 0.904876 15.0489 2.32724C15.0489 2.58742 15.0489 2.84617 14.7894 2.97482C14.7894 3.36365 14.6589 3.88114 14.4008 4.26853C13.8818 5.3035 12.9728 5.94963 11.8057 5.94963C10.7676 5.94963 9.72958 5.3035 9.21056 4.26853C5.05979 5.43215 1.94563 9.31328 1.94563 13.8406C1.94563 15.2644 2.33417 16.5581 2.8532 17.8503L1.0366 18.7567C0.906123 18.4965 0.777091 18.1091 0.648059 17.8503C0.258064 16.5566 2.54847e-08 15.2629 0 13.8406C0 8.27831 3.89125 3.62095 9.08152 2.32868C9.46862 1.03497 10.6357 0 12.0638 0H12.0652ZM12.0652 2.06994C11.9453 2.06717 11.826 2.08868 11.7146 2.13318C11.6033 2.17767 11.5021 2.24422 11.4173 2.32881C11.3324 2.41339 11.2657 2.51425 11.2211 2.62529C11.1764 2.73632 11.1549 2.85523 11.1576 2.97482C11.0272 3.4923 11.5462 4.00978 12.0652 4.00978C12.5842 4.00978 13.1033 3.75104 13.1033 3.10491C13.1052 2.96846 13.0797 2.833 13.0282 2.70655C12.9767 2.5801 12.9004 2.46523 12.8036 2.36874C12.7068 2.27224 12.5916 2.19608 12.4647 2.14476C12.3379 2.09343 12.2021 2.06799 12.0652 2.06994Z" fill="#00DEFF"/>
</svg>
