<svg width="212" height="101" viewBox="0 0 212 101" fill="none" xmlns="http://www.w3.org/2000/svg">
<g filter="url(#filter0_bdi)">
<mask id="path-1-inside-1" fill="white">
<path fill-rule="evenodd" clip-rule="evenodd" d="M39 20H192V62L173 81H20V39L39 20Z"/>
</mask>
<path fill-rule="evenodd" clip-rule="evenodd" d="M39 20H192V62L173 81H20V39L39 20Z" fill="#020305" fill-opacity="0.5" shape-rendering="crispEdges"/>
<path d="M192 20H193V19H192V20ZM39 20V19H38.5858L38.2929 19.2929L39 20ZM192 62L192.707 62.7071L193 62.4142V62H192ZM173 81V82H173.414L173.707 81.7071L173 81ZM20 81H19V82H20V81ZM20 39L19.2929 38.2929L19 38.5858V39H20ZM192 19H39V21H192V19ZM193 62V20H191V62H193ZM173.707 81.7071L192.707 62.7071L191.293 61.2929L172.293 80.2929L173.707 81.7071ZM20 82H173V80H20V82ZM19 39V81H21V39H19ZM20.7071 39.7071L39.7071 20.7071L38.2929 19.2929L19.2929 38.2929L20.7071 39.7071Z" fill="#ABEEF7" mask="url(#path-1-inside-1)"/>
</g>
<defs>
<filter id="filter0_bdi" x="0" y="0" width="212" height="101" filterUnits="userSpaceOnUse" color-interpolation-filters="sRGB">
<feFlood flood-opacity="0" result="BackgroundImageFix"/>
<feGaussianBlur in="BackgroundImage" stdDeviation="10"/>
<feComposite in2="SourceAlpha" operator="in" result="effect1_backgroundBlur"/>
<feColorMatrix in="SourceAlpha" type="matrix" values="0 0 0 0 0 0 0 0 0 0 0 0 0 0 0 0 0 0 127 0" result="hardAlpha"/>
<feOffset/>
<feGaussianBlur stdDeviation="10"/>
<feComposite in2="hardAlpha" operator="out"/>
<feColorMatrix type="matrix" values="0 0 0 0 0.670588 0 0 0 0 0.933333 0 0 0 0 0.968627 0 0 0 0.52 0"/>
<feBlend mode="normal" in2="effect1_backgroundBlur" result="effect2_dropShadow"/>
<feBlend mode="normal" in="SourceGraphic" in2="effect2_dropShadow" result="shape"/>
<feColorMatrix in="SourceAlpha" type="matrix" values="0 0 0 0 0 0 0 0 0 0 0 0 0 0 0 0 0 0 127 0" result="hardAlpha"/>
<feOffset/>
<feGaussianBlur stdDeviation="25"/>
<feComposite in2="hardAlpha" operator="arithmetic" k2="-1" k3="1"/>
<feColorMatrix type="matrix" values="0 0 0 0 0.186042 0 0 0 0 0.440781 0 0 0 0 0.475 0 0 0 1 0"/>
<feBlend mode="normal" in2="shape" result="effect3_innerShadow"/>
</filter>
</defs>
</svg>
